<?xml version="1.0" encoding="UTF-8" standalone="no"?>
<!DOCTYPE svg PUBLIC "-//W3C//DTD SVG 1.1//EN" "http://www.w3.org/Graphics/SVG/1.1/DTD/svg11.dtd">
<svg width="100%" height="100%" viewBox="0 0 200 200" version="1.1" xmlns="http://www.w3.org/2000/svg" xmlns:xlink="http://www.w3.org/1999/xlink" xml:space="preserve" xmlns:serif="http://www.serif.com/" style="fill-rule:evenodd;clip-rule:evenodd;stroke-linejoin:round;stroke-miterlimit:2;">
    <g transform="matrix(7.37532,0,0,7.37532,-503.417,-4012.38)">
        <path d="M74.632,560.385C74.315,560.589 74.047,560.861 73.739,561.082C73.463,561.315 73.108,561.46 72.899,561.767C72.939,561.772 73.022,561.782 73.064,561.788C73.084,561.666 73.108,561.464 73.277,561.482C73.542,561.504 73.816,561.631 74.08,561.537C74.507,561.122 74.959,560.733 75.435,560.375C75.166,560.375 74.897,560.35 74.632,560.385ZM73.013,560.46C73.022,560.701 73.022,560.944 73.015,561.185C73.288,560.893 73.591,560.634 73.884,560.364C73.589,560.354 73.301,560.413 73.013,560.46ZM76.896,560.295C76.913,560.744 76.913,561.194 76.897,561.643C77.54,561.852 78.274,561.516 78.877,561.88C79.107,561.993 79.349,561.85 79.58,561.812C79.869,561.725 80.216,561.764 80.416,562.014C80.978,562.038 81.539,561.976 82.101,561.998C82.085,561.913 82.07,561.825 82.059,561.746C82.084,561.66 82.11,561.576 82.138,561.495C82.249,561.491 82.362,561.487 82.476,561.489C82.506,561.649 82.492,561.812 82.411,561.958C83.486,561.938 84.564,561.956 85.638,561.928C85.931,561.98 86.215,561.793 86.498,561.917C87.093,561.991 87.689,561.834 88.287,561.886C88.874,561.855 89.461,561.934 90.048,561.889C90.043,561.356 90.048,560.824 90.043,560.294C88.056,560.319 86.068,560.295 84.081,560.294C81.686,560.304 79.289,560.316 76.896,560.295ZM75.315,559.811C75.554,559.812 75.794,559.831 76.034,559.851C76.028,559.606 76.031,559.364 76.047,559.121C75.846,559.392 75.6,559.628 75.315,559.811ZM74.23,559.816C74.311,559.81 74.393,559.806 74.477,559.806C74.969,559.483 75.402,558.996 76.024,558.934C76.023,558.805 76.023,558.679 76.023,558.554C75.882,558.557 75.741,558.545 75.606,558.581C75.097,558.934 74.705,559.423 74.23,559.816ZM73.039,558.555C73.032,558.963 73.002,559.374 73.052,559.783C73.095,559.777 73.188,559.77 73.232,559.764C73.393,559.507 73.641,559.306 73.76,559.021C73.83,558.856 73.929,558.707 74.04,558.567C73.921,558.568 73.798,558.536 73.686,558.581C73.573,558.686 73.495,558.821 73.413,558.952C73.348,558.954 73.219,558.958 73.154,558.96C73.147,558.829 73.151,558.702 73.163,558.576C73.131,558.572 73.07,558.561 73.039,558.555ZM76.835,558.517C76.848,558.894 76.853,559.272 76.845,559.65C76.855,559.722 76.809,559.838 76.896,559.889C77.12,559.893 77.344,559.881 77.57,559.888C77.946,559.81 78.331,559.85 78.712,559.842C82.489,559.846 86.266,559.841 90.043,559.845C90.038,559.398 90.035,558.952 90.043,558.509C85.64,558.509 81.237,558.502 76.835,558.517ZM75.078,557.954C75.238,557.949 75.397,557.946 75.557,557.945C75.711,557.86 75.87,557.784 76.039,557.731C76.04,557.465 76.041,557.2 76.048,556.936C75.717,557.267 75.389,557.602 75.078,557.954ZM74.865,556.879C74.787,556.954 74.708,557.031 74.634,557.112C74.376,557.335 74.401,557.707 74.231,557.985C74.379,557.966 74.512,557.892 74.601,557.77C74.857,557.453 75.134,557.155 75.431,556.877C75.242,556.877 75.054,556.877 74.865,556.879ZM73.852,556.875C73.708,557.018 73.569,557.166 73.425,557.31C73.252,557.493 73.008,557.649 73.018,557.932C73.169,557.92 73.323,557.923 73.472,557.888C73.718,557.538 73.984,557.2 74.254,556.868C74.119,556.868 73.985,556.871 73.852,556.875ZM76.868,556.869C76.847,557.237 76.843,557.607 76.874,557.976C81.261,557.966 85.649,557.969 90.036,557.975C90.04,557.58 90.037,557.183 90.048,556.79C88.521,556.793 86.992,556.782 85.464,556.798C85.488,557.002 85.374,557.168 85.193,557.251C85.18,557.299 85.15,557.39 85.137,557.436C84.956,557.491 84.603,557.629 84.559,557.351C84.702,557.32 84.894,557.367 84.994,557.234C84.952,557.149 84.885,557.058 84.785,557.067C84.238,557.053 83.695,556.982 83.149,557.012C82.867,557.035 82.659,556.78 82.383,556.79C82.042,556.784 81.702,556.793 81.362,556.791C79.862,556.767 78.368,556.929 76.868,556.869ZM76.044,555.851C75.832,556.021 75.603,556.17 75.397,556.347C75.606,556.305 75.82,556.293 76.034,556.319C76.036,556.161 76.04,556.006 76.044,555.851ZM75.815,555.328C75.404,555.706 74.885,555.933 74.451,556.279C74.596,556.267 74.766,556.313 74.878,556.193C75.238,555.903 75.6,555.582 76.065,555.475C76.04,555.346 75.933,555.304 75.815,555.328ZM85.526,555.241C85.536,555.621 85.514,556 85.485,556.379C87.007,556.364 88.528,556.4 90.047,556.366C90.043,556.017 90.037,555.67 90.038,555.323C88.534,555.315 87.03,555.261 85.526,555.241ZM76.857,555.348C76.851,555.659 76.848,555.97 76.864,556.284C77.588,556.279 78.315,556.242 79.036,556.328C80.119,556.335 81.202,556.428 82.285,556.355C82.051,556.017 82.104,555.606 82.092,555.22C80.657,555.216 79.221,555.222 77.786,555.218C77.47,555.212 77.172,555.345 76.857,555.348ZM74.763,555.36C74.294,555.665 73.836,555.99 73.358,556.279C73.774,556.353 74.041,555.991 74.364,555.803C74.669,555.608 74.961,555.355 75.332,555.304C75.332,555.296 75.335,555.278 75.335,555.27C75.143,555.281 74.932,555.245 74.763,555.36ZM73.002,555.248C72.996,555.441 72.994,555.636 72.998,555.833C73.25,555.652 73.455,555.414 73.731,555.266C73.485,555.313 73.243,555.317 73.002,555.248ZM84.66,554.806C84.63,555.099 84.677,555.399 84.607,555.687C84.549,555.837 84.362,555.848 84.228,555.887C84.003,555.928 83.764,556.033 83.544,555.925C83.33,555.743 83.434,555.433 83.4,555.194C83.33,555.201 83.193,555.217 83.125,555.224C83.139,555.517 83.153,555.809 83.178,556.102C83.741,556.055 84.273,556.261 84.831,556.266C84.796,555.779 84.955,555.239 84.66,554.806ZM83.883,553.467C84.173,554.055 83.951,554.723 83.956,555.348C84,555.345 84.088,555.336 84.131,555.333C84.111,554.704 84.245,554.084 84.278,553.459C84.144,553.459 84.013,553.462 83.883,553.467ZM84.689,553.458C84.731,553.848 84.712,554.244 84.663,554.636C84.744,554.633 84.824,554.634 84.909,554.637C84.942,554.236 85.078,553.848 85.071,553.443C84.943,553.446 84.816,553.451 84.689,553.458ZM83.193,553.455C83.112,553.836 83.132,554.226 83.109,554.613C83.316,554.594 83.314,554.792 83.296,554.941C83.314,554.97 83.353,555.026 83.372,555.054C83.581,554.541 83.447,553.977 83.424,553.447C83.345,553.447 83.268,553.449 83.193,553.455ZM76.859,553.442C76.85,553.73 76.846,554.023 76.875,554.314C77.309,554.283 77.685,554.523 78.088,554.629C79.445,554.639 80.801,554.634 82.156,554.631C82.123,554.236 82.162,553.842 82.197,553.451C80.418,553.447 78.638,553.454 76.859,553.442ZM74.982,553.489C74.674,553.764 74.416,554.095 74.079,554.34C74.217,554.318 74.383,554.361 74.496,554.256C74.824,554 75.135,553.723 75.442,553.443C75.291,553.447 75.106,553.371 74.982,553.489ZM85.756,553.416C85.638,553.424 85.651,553.568 85.648,553.654C85.642,553.962 85.629,554.271 85.588,554.579C85.944,554.606 86.298,554.538 86.654,554.549C87.786,554.556 88.917,554.528 90.048,554.499C90.037,554.123 90.043,553.748 90.045,553.375C88.616,553.415 87.185,553.389 85.756,553.416ZM72.999,553.405C72.97,553.447 72.942,553.493 72.913,553.542C73.062,553.456 73.223,553.392 73.397,553.445C73.479,553.742 73.167,553.836 72.999,554.002C72.976,554.125 72.993,554.253 72.996,554.384L73.132,554.384C73.072,554.084 73.338,553.913 73.551,553.77C73.762,553.638 73.945,553.427 74.216,553.438C74.196,553.651 74.009,553.782 73.894,553.945C74.205,553.762 74.465,553.502 74.809,553.376C74.21,553.462 73.602,553.399 72.999,553.405ZM75.981,553.637C75.674,553.857 75.399,554.118 75.087,554.328C75.402,554.318 75.72,554.304 76.037,554.31C76.019,553.969 76.086,553.625 76.041,553.286C76.006,553.398 75.998,553.517 75.981,553.637ZM76.084,552.557C76.541,552.326 77.059,552.404 77.552,552.389C80.172,552.384 82.79,552.388 85.409,552.386C86.804,552.484 88.204,552.424 89.602,552.457C89.961,552.476 90.35,552.395 90.683,552.574C90.965,552.827 90.939,553.232 90.952,553.581C90.968,556.185 90.963,558.79 90.95,561.396C91.065,561.327 91.198,561.326 91.33,561.342C91.36,561.432 91.392,561.524 91.425,561.618C91.397,561.677 91.369,561.736 91.343,561.8C91.469,562.122 91.196,562.372 91.007,562.596C90.879,562.76 90.661,562.787 90.468,562.783C89.221,562.778 87.976,562.805 86.731,562.762C85.564,562.806 84.4,562.719 83.235,562.754C81.938,562.698 80.641,562.664 79.341,562.679C78.309,562.661 77.264,562.727 76.243,562.607C76.019,562.358 75.636,562.61 75.402,562.356C75.308,562.352 75.215,562.351 75.123,562.354C74.894,562.413 74.67,562.491 74.441,562.547C74.302,562.514 74.177,562.439 74.045,562.396C73.822,562.483 73.614,562.654 73.358,562.61C73.147,562.628 73.019,562.451 72.893,562.318C72.656,562.352 72.447,562.56 72.197,562.476C72.018,562.398 71.838,562.251 71.636,562.352C71.347,562.505 71.067,562.236 70.772,562.326C70.546,562.384 70.323,562.484 70.084,562.443C69.866,562.427 69.606,562.135 69.821,561.948C70.066,561.682 70.468,561.784 70.779,561.848C71.04,561.938 71.236,561.702 71.48,561.662C71.702,561.622 71.93,561.666 72.157,561.655C72.12,559.327 72.172,556.997 72.157,554.671C72.151,554.123 72.2,553.574 72.12,553.033C72.091,552.845 72.131,552.595 72.349,552.55C72.855,552.433 73.379,552.507 73.893,552.472C74.625,552.43 75.353,552.55 76.084,552.557Z" style="fill:white;fill-rule:nonzero;"/>
    </g>
    <g transform="matrix(7.37532,0,0,7.37532,-503.417,-4012.38)">
        <path d="M83.936,561.444C84.122,561.394 84.333,561.495 84.412,561.672C84.419,561.827 84.252,561.82 84.149,561.867C83.999,561.782 83.754,561.628 83.936,561.444Z" style="fill:white;fill-rule:nonzero;"/>
    </g>
    <g transform="matrix(7.37532,0,0,7.37532,-503.417,-4012.38)">
        <path d="M91.458,561.566C91.619,561.366 91.97,561.4 92.034,561.672C92.023,561.926 92.059,562.179 92.066,562.433C92.041,562.738 91.579,562.796 91.448,562.531C91.33,562.215 91.463,561.888 91.458,561.566Z" style="fill:white;fill-rule:nonzero;"/>
    </g>
    <g transform="matrix(7.37532,0,0,7.37532,-503.417,-4012.38)">
        <path d="M92.075,561.727C92.208,561.651 92.399,561.567 92.527,561.705C92.675,561.91 92.816,562.179 92.724,562.438C92.564,562.622 92.338,562.489 92.191,562.362C92.164,562.325 92.108,562.251 92.081,562.213C92.085,562.049 92.084,561.887 92.075,561.727Z" style="fill:white;fill-rule:nonzero;"/>
    </g>
    <g transform="matrix(7.37532,0,0,7.37532,-503.417,-4012.38)">
        <path d="M93.347,561.89C93.613,561.736 94.015,562.042 93.854,562.329C93.575,562.58 93.086,562.202 93.347,561.89Z" style="fill:white;fill-rule:nonzero;"/>
    </g>
</svg>
