<?xml version="1.0" encoding="UTF-8" standalone="no"?>
<!DOCTYPE svg PUBLIC "-//W3C//DTD SVG 1.1//EN" "http://www.w3.org/Graphics/SVG/1.1/DTD/svg11.dtd">
<svg width="100%" height="100%" viewBox="0 0 200 200" version="1.1" xmlns="http://www.w3.org/2000/svg" xmlns:xlink="http://www.w3.org/1999/xlink" xml:space="preserve" xmlns:serif="http://www.serif.com/" style="fill-rule:evenodd;clip-rule:evenodd;stroke-linejoin:round;stroke-miterlimit:2;">
    <g transform="matrix(4.16667,0,0,4.16667,-3183.79,-986.515)">
        <path d="M799.243,268.282C799.361,268.45 799.443,268.641 799.509,268.841C799.586,268.653 799.629,268.453 799.666,268.256C799.523,268.26 799.381,268.27 799.243,268.282ZM789.565,267.367C789.435,268.155 789.221,268.95 789.323,269.753C789.48,270.408 789.631,271.065 789.83,271.709C789.898,271.979 789.985,272.323 789.774,272.553C789.506,272.863 789.206,273.143 788.913,273.431C788.589,273.723 788.393,274.123 788.167,274.492C788.009,274.808 787.943,275.16 787.902,275.508C788.22,275.092 788.499,274.641 788.88,274.276C789.279,273.846 789.784,273.541 790.213,273.146C790.503,272.946 790.585,272.563 790.617,272.233C790.621,271.595 790.771,270.975 790.933,270.363C791.001,270.106 791.152,269.832 791.062,269.565C790.747,269.043 790.669,268.425 790.401,267.885C790.345,267.78 790.329,267.631 790.204,267.598C789.991,267.513 789.784,267.426 789.565,267.367ZM804.021,267.917C804.359,267.989 804.72,267.95 805.056,267.864C805.045,267.748 805.04,267.641 805.039,267.533C805.007,267.533 804.942,267.535 804.91,267.537C804.706,267.707 804.44,267.834 804.17,267.791C803.823,267.66 803.55,267.399 803.291,267.147C803.463,267.458 803.706,267.738 804.021,267.917ZM798.106,265.262C798.128,265.347 798.156,265.438 798.184,265.53C798.224,265.44 798.271,265.354 798.316,265.27C798.264,265.268 798.158,265.264 798.106,265.262ZM795.782,262.438C795.907,262.537 796.031,262.642 796.152,262.754C796.258,262.67 796.287,262.53 796.34,262.416C796.151,262.391 795.964,262.408 795.782,262.438ZM782.04,262.686C781.855,262.969 781.84,263.326 781.876,263.657C782.199,263.287 782.469,262.871 782.833,262.539C783.074,262.315 783.312,262.051 783.637,261.953C783.677,261.719 783.536,261.53 783.412,261.354C782.993,261.839 782.374,262.124 782.04,262.686ZM794.513,261.136C794.695,261.235 794.838,261.391 794.985,261.539C795.055,261.32 795.122,261.1 795.158,260.873C794.921,260.905 794.73,261.056 794.513,261.136ZM786.065,260.886C785.971,261.063 785.971,261.275 785.95,261.473C785.918,261.848 785.847,262.217 785.798,262.59C785.743,262.834 785.903,263.046 786.032,263.239C786.509,263.816 786.909,264.459 787.45,264.983C787.975,265.443 788.554,265.832 789.12,266.241C789.27,266.284 789.438,266.242 789.595,266.293C789.708,266.367 789.738,266.505 789.796,266.625C789.893,266.647 789.991,266.672 790.095,266.7C790.087,266.285 790.083,265.873 790.132,265.462C789.991,264.843 790.413,264.2 790.125,263.601C789.99,263.309 789.649,263.299 789.391,263.202C789.26,263.106 789.206,262.943 789.082,262.85C788.761,262.815 788.432,262.885 788.116,262.815C787.925,262.702 787.834,262.491 787.698,262.328C787.515,262.061 787.239,261.873 787.076,261.594C786.929,261.346 786.938,261.024 786.734,260.813C786.516,260.706 786.26,260.761 786.065,260.886ZM793.667,260.266C793.713,260.391 793.841,260.462 793.933,260.561C794.002,260.376 794.063,260.19 794.1,259.998C793.95,260.077 793.785,260.141 793.667,260.266ZM789.621,249.179C789.766,250.186 789.959,251.226 789.725,252.239C789.651,252.609 789.488,252.952 789.41,253.322C789.147,254.014 789.115,254.789 788.697,255.42C788.331,256.11 787.88,256.754 787.355,257.332C787.994,257.469 788.566,257.787 789.122,258.119C789.446,258.356 789.806,258.537 790.165,258.716C790.637,258.86 791.096,259.041 791.552,259.227C791.868,259.313 792.16,259.463 792.455,259.608C792.298,258.745 792.533,257.833 793.095,257.162C793.213,257.029 793.397,256.993 793.56,256.934C793.381,255.979 793.214,254.968 792.615,254.172C792.36,253.8 792.169,253.386 791.895,253.027C791.659,252.705 791.358,252.432 791.182,252.073C790.963,251.565 790.542,251.182 790.333,250.671C790.183,250.283 789.985,249.922 789.776,249.567C789.693,249.453 789.714,249.268 789.621,249.179ZM789.244,247.163C789.335,247.45 789.387,247.75 789.499,248.033C789.796,247.877 790.089,248.129 790.179,248.408C790.299,248.838 790.527,249.227 790.709,249.633C790.937,250.043 791.062,250.504 791.343,250.886C791.669,251.348 791.823,251.91 792.183,252.352C792.497,252.752 792.719,253.217 792.893,253.697C793.067,254.067 793.316,254.404 793.46,254.793C793.572,255.087 793.62,255.402 793.751,255.692C793.901,256.075 793.945,256.487 794.064,256.879C794.147,256.073 794.507,255.313 794.938,254.634C795.313,254.08 795.874,253.643 796.525,253.466C797.015,253.348 797.509,253.207 798.019,253.248C798.512,253.219 798.978,253.399 799.45,253.512C799.462,253.369 799.505,253.212 799.404,253.097C799.127,252.705 798.838,252.313 798.454,252.02C798.062,251.74 797.678,251.448 797.283,251.17C796.764,250.756 796.155,250.475 795.55,250.213C795.048,249.978 794.628,249.605 794.125,249.373C793.454,249.063 792.877,248.586 792.199,248.289C791.63,248.049 791.072,247.777 790.487,247.576C790.073,247.436 789.609,247.416 789.244,247.163ZM791.265,246.929C791.728,247.151 792.215,247.329 792.655,247.6C793.297,247.933 793.864,248.389 794.484,248.758C795.035,249.043 795.477,249.496 796.023,249.785C796.435,249.984 796.82,250.237 797.18,250.518C797.399,250.754 797.665,250.937 797.934,251.116C798.503,251.599 799.067,252.086 799.62,252.59C799.82,251.91 800.107,251.265 800.479,250.66C800.771,250.112 801.29,249.659 801.915,249.551C801.631,249.309 801.327,249.092 801.025,248.877C800.832,248.739 800.678,248.556 800.467,248.45C800.082,248.225 799.635,248.161 799.22,248.022C798.781,247.899 798.381,247.67 797.938,247.564C797.415,247.429 796.884,247.325 796.37,247.158C796.006,247.028 795.616,247.054 795.238,247.047C794.579,247.06 793.935,246.905 793.277,246.889C792.604,246.811 791.935,246.916 791.265,246.929ZM795.232,244.731C794.309,244.77 793.418,245.042 792.555,245.354C791.845,245.537 791.2,245.891 790.507,246.119C791.132,246.126 791.757,246.116 792.384,246.09C793.22,246.062 794.031,246.303 794.859,246.383C795.234,246.396 795.608,246.459 795.983,246.489C796.352,246.521 796.691,246.674 797.041,246.787C797.478,246.954 797.956,246.99 798.371,247.219C799.235,247.667 800.262,247.721 801.071,248.285C801.49,248.601 801.936,248.879 802.335,249.224C802.444,248.79 802.489,248.34 802.654,247.922C802.877,247.241 803.329,246.669 803.788,246.131C803.177,245.871 802.533,245.686 801.944,245.373C801.499,245.116 800.988,245.028 800.504,244.884C799.958,244.754 799.415,244.58 798.851,244.574C797.644,244.571 796.43,244.564 795.232,244.731ZM790.992,243.556C790.963,243.651 790.972,243.766 790.905,243.848C790.633,244.182 790.418,244.56 790.231,244.949C790.144,245.109 790.05,245.291 789.874,245.369C789.767,245.366 789.775,245.25 789.767,245.18C789.738,244.993 789.843,244.83 789.908,244.668C790.08,244.278 790.264,243.864 790.629,243.614C790.053,243.841 789.431,243.91 788.837,244.073C788.235,244.275 787.662,244.555 787.049,244.719C786.229,245.061 785.407,245.393 784.595,245.75C784.6,245.778 784.606,245.834 784.61,245.862C785.405,246.862 785.682,248.151 785.915,249.377C786.017,250.328 785.94,251.285 785.912,252.239C785.861,253.172 785.802,254.114 785.544,255.016C785.438,255.367 785.379,255.731 785.339,256.098C785.533,256.197 785.701,256.373 785.753,256.592C785.792,256.707 785.778,256.881 785.915,256.946C786.096,257.008 786.291,257.088 786.484,257.086C787.151,256.473 787.59,255.664 788.029,254.884C788.179,254.544 788.282,254.182 788.367,253.823C788.229,253.379 788.284,252.914 788.219,252.462C788.196,251.975 788.099,251.495 788.023,251.016C787.837,250.26 787.605,249.5 787.599,248.715C787.837,248.736 787.914,248.985 787.987,249.179C788.244,249.93 788.482,250.694 788.622,251.477C788.712,251.864 788.774,252.269 788.722,252.666L788.743,252.658C788.903,252.01 789.016,251.332 788.928,250.664C788.854,249.749 788.746,248.836 788.568,247.937C788.406,247.464 788.296,246.969 788.28,246.471C788.127,246.393 787.972,246.311 787.799,246.313C787.214,246.29 786.621,246.323 786.042,246.23C786.008,246.078 786.009,245.866 786.211,245.856C787.007,245.729 787.878,245.616 788.628,245.989C788.8,245.976 788.944,245.867 789.102,245.803C789.451,245.621 789.845,245.557 790.202,245.395C790.479,245.272 790.768,245.173 791.047,245.057C791.203,244.428 791.603,243.893 792.054,243.441C791.695,243.437 791.342,243.498 790.992,243.556ZM795.109,243.946C795.331,243.918 795.554,243.903 795.78,243.893C795.916,243.866 796.058,243.854 796.202,243.852C796.295,243.657 796.371,243.453 796.423,243.246C796.226,243.248 796.027,243.241 795.833,243.262C795.515,243.391 795.325,243.694 795.109,243.946ZM792.156,243.382C792.19,243.451 792.229,243.524 792.269,243.597C791.96,244.016 791.702,244.467 791.433,244.912C791.615,244.834 791.804,244.77 791.989,244.698C792.253,244.616 792.285,244.295 792.458,244.114C792.677,243.832 792.902,243.426 793.312,243.455C793.293,243.866 792.901,244.134 792.712,244.477C792.908,244.389 793.109,244.311 793.313,244.231C793.451,243.938 793.675,243.694 793.919,243.485C794.005,243.391 794.142,243.376 794.259,243.431C794.335,243.54 794.19,243.63 794.145,243.719C794.027,243.858 793.917,244 793.827,244.157C794.102,244.053 794.44,244.11 794.679,243.91C794.858,243.67 795.058,243.444 795.289,243.25C794.244,243.193 793.188,243.182 792.156,243.382ZM790.498,242.94C791.892,242.725 793.287,242.41 794.706,242.512C795.526,242.623 796.357,242.52 797.18,242.59C797.415,242.638 797.508,242.979 797.335,243.145C797.153,243.334 796.996,243.551 796.889,243.793C797.793,243.821 798.713,243.697 799.604,243.907C800.368,244.032 801.12,244.233 801.85,244.491C802.383,244.701 802.872,245.014 803.423,245.182C803.735,245.274 804.035,245.405 804.319,245.565C804.581,245.746 804.908,245.479 805.178,245.684C805.205,245.961 805.368,246.331 805.084,246.537C804.891,246.651 804.706,246.465 804.517,246.483C804.26,246.617 804.101,246.871 803.937,247.099C803.338,247.867 803.043,248.86 803.081,249.83C803.095,250.035 802.972,250.27 802.753,250.307C802.52,250.301 802.299,250.162 802.065,250.228C801.757,250.315 801.461,250.492 801.277,250.76C800.882,251.38 800.559,252.051 800.367,252.763C800.172,253.215 800.309,253.748 800.027,254.17C799.764,254.352 799.439,254.264 799.159,254.185C798.882,254.127 798.616,254.035 798.346,253.973C798.052,253.957 797.759,253.973 797.468,253.97C797.031,254.098 796.545,254.086 796.163,254.369C795.284,254.872 794.929,255.885 794.669,256.804C794.581,257.117 794.76,257.543 794.413,257.738C794.156,257.827 793.861,257.625 793.61,257.763C793.216,258.326 792.966,259.066 793.202,259.742C793.218,259.869 793.339,259.752 793.391,259.723C793.716,259.487 794.107,259.36 794.484,259.227C794.663,259.137 794.868,259.207 794.979,259.371C794.949,259.766 794.687,260.087 794.596,260.469C794.855,260.414 795.124,260.289 795.393,260.364C795.563,260.395 795.694,260.559 795.702,260.733C795.759,261.143 795.582,261.53 795.529,261.93C795.901,261.904 796.28,261.855 796.654,261.91C796.882,261.967 796.975,262.231 796.943,262.448C796.895,262.728 796.764,262.989 796.747,263.277C797.04,263.25 797.335,263.181 797.633,263.221C797.849,263.239 797.949,263.475 797.97,263.666C798.007,264.035 797.818,264.381 797.813,264.749C798.104,264.753 798.398,264.723 798.691,264.766C798.92,264.83 798.98,265.112 798.931,265.319C798.853,265.616 798.695,265.892 798.688,266.207C798.94,266.221 799.2,266.219 799.443,266.303C799.494,266.446 799.565,266.586 799.56,266.746C799.551,267.061 799.325,267.336 799.378,267.66C799.613,267.741 799.931,267.674 800.109,267.897C800.318,268.136 800.307,268.479 800.232,268.771C800.162,268.983 800.079,269.194 800.06,269.42C800.292,269.401 800.637,269.321 800.754,269.598C800.966,270.041 800.825,270.551 800.896,271.024C801.14,270.887 801.393,270.7 801.689,270.754C801.907,270.764 801.989,271.008 802.023,271.191C802.094,271.565 802.025,271.989 802.25,272.321C802.488,272.172 802.643,271.839 802.969,271.875C803.387,271.907 803.386,272.494 803.742,272.602C803.926,272.434 803.997,272.131 804.255,272.054C804.468,272.006 804.601,272.192 804.681,272.36C804.897,272.346 804.995,272.123 805.158,272.009C805.272,271.884 805.46,271.923 805.602,271.846C805.784,271.682 805.884,271.399 806.142,271.332C806.674,271.3 806.993,270.783 807.22,270.36C807.458,269.711 807.678,269.022 807.565,268.325C807.552,267.815 807.285,267.274 806.807,267.058C806.74,267.103 806.682,267.158 806.627,267.217C806.586,267.366 806.558,267.541 806.421,267.639C806.298,267.721 806.159,267.657 806.043,267.61C805.87,267.91 805.742,268.261 805.446,268.465C805.127,268.711 804.703,268.675 804.325,268.725C803.777,268.789 803.308,268.408 802.989,268.007C802.645,267.513 802.358,266.897 802.533,266.285C802.688,265.873 802.84,265.438 803.167,265.128C803.353,264.939 803.708,265.135 803.662,265.392C803.617,265.768 803.472,266.141 803.535,266.528C803.695,266.727 803.888,266.903 804.095,267.055C804.231,267.176 804.405,267.024 804.521,266.935C804.76,266.698 805,266.459 805.269,266.251C805.701,265.771 806.296,265.392 806.955,265.356C807.823,265.27 808.726,265.719 809.176,266.469C809.503,266.946 809.584,267.533 809.679,268.091C809.814,269.085 809.541,270.062 809.358,271.031C809.137,271.672 808.871,272.305 808.525,272.891C808.162,273.533 807.601,274.037 807.011,274.468C806.461,274.926 805.777,275.212 805.085,275.372C804.299,275.616 803.456,275.487 802.669,275.315C801.91,275.194 801.183,274.93 800.498,274.593C799.755,274.278 799.195,273.672 798.662,273.09C798.269,272.578 797.725,272.193 797.41,271.623C797.086,271.091 796.698,270.598 796.242,270.177C795.678,269.635 795.167,269.037 794.552,268.551C794.369,268.408 794.206,268.223 793.975,268.17C793.822,268.514 793.947,268.889 794.003,269.241C794.12,269.738 794.294,270.221 794.398,270.723C794.509,271.244 794.78,271.762 794.653,272.307C794.513,272.908 794.265,273.479 794.07,274.065C793.781,274.606 793.711,275.223 793.546,275.806C793.401,276.366 793.277,276.932 793.151,277.496C793.057,277.917 793.062,278.364 792.901,278.77C792.704,279.104 792.256,279.059 791.936,278.974C791.395,278.82 791.022,278.328 790.884,277.802C790.69,277.314 790.816,276.787 790.878,276.289C790.938,275.731 791.298,275.263 791.386,274.713C791.52,273.799 791.939,272.961 792.267,272.106C792.36,271.855 792.192,271.621 792.083,271.41C791.917,271.156 791.823,270.866 791.707,270.592C791.637,270.885 791.576,271.18 791.506,271.475C791.407,271.848 791.454,272.243 791.357,272.619C791.261,272.982 791.137,273.37 790.832,273.612C790.273,274.071 789.629,274.436 789.176,275.013C788.91,275.381 788.631,275.741 788.354,276.102C788.077,276.469 787.386,276.352 787.283,275.889C787.125,275.325 787.286,274.721 787.503,274.195C787.734,273.741 787.968,273.274 788.344,272.918C788.597,272.68 788.858,272.451 789.09,272.192C789.22,272.047 789.134,271.852 789.093,271.696C788.938,271.231 788.841,270.751 788.722,270.278C788.448,269.477 788.577,268.601 788.813,267.805C788.868,267.555 788.942,267.299 788.931,267.044C788.436,266.74 787.972,266.387 787.494,266.055C786.816,265.504 786.23,264.843 785.78,264.096C785.719,263.996 785.646,263.912 785.571,263.83C785.394,264.127 785.255,264.455 785.014,264.711C784.821,264.917 784.615,265.125 784.504,265.392C784.462,265.7 784.536,266.041 784.368,266.323C784.214,266.544 783.926,266.553 783.687,266.528C783.658,266.631 783.707,266.794 783.587,266.858C783.343,267.037 783.038,266.824 782.88,266.629C782.578,266.293 782.553,265.811 782.62,265.385C782.647,264.743 782.923,264.135 783.308,263.63C783.506,263.338 783.798,263.067 783.781,262.687C783.458,262.899 783.163,263.155 782.932,263.467C782.659,263.778 782.454,264.164 782.083,264.373C781.821,264.519 781.452,264.45 781.29,264.194C781.023,263.844 781.148,263.362 781.267,262.979C781.36,262.545 781.569,262.131 781.894,261.823C782.256,261.442 782.723,261.162 783.033,260.735C782.74,260.217 782.534,259.639 782.485,259.045C782.469,259.044 782.436,259.044 782.419,259.044C782.439,258.674 782.328,258.316 782.35,257.948C782.365,257.344 782.311,256.741 782.167,256.156C781.896,255.535 781.685,254.871 781.24,254.346C781.044,254.165 780.808,254.037 780.595,253.883C780.184,253.588 779.597,253.521 779.147,253.771C778.828,253.936 778.478,254.057 778.219,254.317C777.873,254.649 777.479,254.942 777.031,255.119C776.73,255.198 776.42,255.277 776.148,255.427C775.854,255.731 775.482,255.942 775.218,256.274C774.966,256.561 774.483,256.755 774.151,256.492C773.854,256.299 773.88,255.873 774.016,255.592C774.222,255.198 774.429,254.801 774.688,254.439C774.332,254.67 773.891,254.612 773.495,254.713C773.163,254.848 772.899,255.103 772.674,255.373C772.567,255.543 772.249,255.53 772.21,255.315C772.18,255.023 772.476,254.871 772.622,254.658C772.94,254.23 773.443,253.987 773.951,253.858C774.222,253.791 774.424,253.588 774.549,253.346C774.018,253.361 773.482,253.309 772.96,253.422C772.647,253.494 772.32,253.556 772.002,253.498C771.892,253.43 771.78,253.338 771.737,253.217C771.579,252.638 771.805,251.957 772.324,251.637C772.526,251.511 772.77,251.46 772.963,251.313C773.342,251.043 773.84,251.107 774.26,250.942C774.634,250.792 774.994,250.592 775.398,250.526C775.831,250.428 776.291,250.52 776.712,250.354C777.256,250.09 777.671,249.639 778.133,249.258C778.483,248.903 778.745,248.471 779.072,248.094C779.204,247.965 779.021,247.785 779.089,247.645C779.141,247.529 779.287,247.551 779.396,247.523C779.479,247.438 779.571,247.366 779.677,247.311C779.755,247.565 780.061,247.549 780.22,247.729C780.327,247.903 780.177,248.108 779.983,248.1C779.825,248.143 779.576,248.03 779.516,248.237C779.247,248.835 778.819,249.338 778.396,249.832C777.956,250.252 777.484,250.66 776.937,250.934C776.37,251.2 775.712,250.992 775.154,251.268C774.786,251.412 774.434,251.612 774.035,251.655C773.748,251.686 773.45,251.695 773.189,251.83C772.938,251.951 772.638,252.01 772.46,252.243C772.345,252.41 772.308,252.621 772.315,252.825C772.817,252.792 773.307,252.629 773.813,252.683C774.455,252.694 775.146,252.625 775.728,252.957C776.001,253.153 775.983,253.543 775.861,253.823C775.722,254.079 775.499,254.284 775.372,254.551C775.122,255.026 774.686,255.402 774.541,255.932C774.833,255.841 774.971,255.53 775.218,255.367C775.553,255.139 775.826,254.824 776.211,254.673C776.44,254.547 776.735,254.651 776.945,254.467C777.521,254.18 777.914,253.645 778.479,253.342C778.875,253.126 779.282,252.872 779.749,252.875C780.398,252.852 780.985,253.2 781.485,253.578C781.804,253.789 782.021,254.112 782.22,254.432C782.396,254.748 782.589,255.058 782.683,255.412C782.97,255.882 783.004,256.446 783.093,256.979C783.154,257.352 783.067,257.789 783.358,258.087C783.656,258.418 783.622,258.897 783.858,259.262C784.022,259.52 784.1,259.819 784.23,260.096C784.291,260.194 784.275,260.309 784.242,260.421C783.916,260.436 783.91,260.049 783.82,259.83C783.765,259.543 783.542,259.348 783.354,259.147C783.317,258.922 783.278,258.696 783.171,258.494C783.235,258.934 783.292,259.387 783.485,259.793C783.641,259.984 783.832,260.153 783.928,260.387C784.119,260.854 784.317,261.326 784.376,261.832C784.448,262.299 784.585,262.798 784.396,263.258C784.225,263.787 783.758,264.141 783.533,264.643C783.377,264.955 783.356,265.312 783.347,265.658C783.514,265.67 783.646,265.786 783.769,265.899C783.78,265.612 783.731,265.298 783.896,265.045C784.134,264.573 784.58,264.249 784.818,263.778C784.914,263.575 785.046,263.366 785.035,263.133C785.033,262.812 785.021,262.487 785.1,262.174C785.178,261.669 785.183,261.153 785.325,260.658C785.38,260.504 785.457,260.334 785.608,260.252C785.803,260.164 785.982,260.393 786.176,260.307C786.431,260.187 786.706,260.312 786.969,260.35C787.228,260.456 787.293,260.758 787.378,260.998C787.491,261.453 787.929,261.701 788.164,262.088C788.316,262.375 788.676,262.224 788.93,262.33C789.263,262.377 789.421,262.742 789.74,262.817C790.112,262.902 790.47,263.149 790.599,263.522C790.728,263.825 790.654,264.164 790.675,264.487C790.798,265.467 790.623,266.498 790.99,267.44C791.166,267.92 791.402,268.38 791.515,268.883C791.673,268.88 791.887,268.871 791.955,269.059C792.11,269.288 791.919,269.604 792.106,269.825C792.366,270.212 792.504,270.664 792.729,271.071C792.897,271.407 793.133,271.754 793.074,272.151C792.798,273.012 792.368,273.828 792.205,274.724C792.11,275.002 792.124,275.312 791.975,275.572C791.73,276.022 791.561,276.522 791.557,277.041C791.556,277.338 791.513,277.677 791.707,277.932C791.862,278.129 792.046,278.375 792.329,278.366C792.391,277.926 792.446,277.487 792.538,277.053C792.603,276.67 792.713,276.301 792.793,275.926C792.847,275.457 793.073,275.033 793.123,274.567C793.288,273.977 793.507,273.403 793.723,272.831C793.832,272.512 793.982,272.18 793.902,271.836C793.729,271.133 793.532,270.434 793.328,269.741C793.252,269.204 792.967,268.658 793.154,268.116C793.301,267.737 793.467,267.366 793.612,266.987C793.712,266.733 793.683,266.416 793.893,266.217C794.091,266.092 794.376,266.191 794.444,266.42C794.615,266.791 794.333,267.157 794.279,267.522C794.868,267.84 795.349,268.323 795.868,268.741C796.377,269.231 796.874,269.737 797.368,270.242C797.734,270.664 797.984,271.171 798.341,271.605C798.543,271.874 798.816,272.082 799.032,272.344C799.449,272.857 799.931,273.328 800.493,273.682C801.562,274.231 802.739,274.643 803.956,274.614C804.85,274.66 805.742,274.321 806.442,273.772C806.879,273.436 807.327,273.084 807.618,272.61C807.918,272.176 808.117,271.686 808.339,271.211C808.54,270.77 808.563,270.28 808.701,269.823C808.843,269.258 808.814,268.671 808.816,268.096C808.823,267.348 808.448,266.56 807.764,266.217C807.438,265.986 807.026,266.036 806.654,266.046C806.385,266.051 806.144,266.186 805.927,266.329C806.072,266.454 806.218,266.643 806.441,266.575C807.064,266.473 807.664,266.89 807.957,267.417C808.131,267.795 808.273,268.203 808.243,268.627C808.291,269.602 808.021,270.59 807.487,271.407C806.959,272.154 806.294,272.834 805.449,273.211C805.173,273.293 804.902,273.395 804.631,273.489C804.116,273.604 803.585,273.656 803.06,273.612C802.643,273.569 802.318,273.277 801.969,273.078C801.557,272.773 801.097,272.535 800.729,272.176C800.457,271.907 800.265,271.573 800.052,271.261C799.803,270.902 799.668,270.479 799.413,270.125C798.882,269.455 798.608,268.633 798.249,267.869C797.825,266.975 797.645,265.966 797.059,265.153C796.87,264.884 796.711,264.592 796.48,264.36C796.336,264.293 796.146,264.401 796.032,264.268C795.581,263.848 795.428,263.211 795.014,262.76C794.796,262.535 794.601,262.291 794.379,262.074C794.079,261.745 793.698,261.506 793.406,261.174C793.153,260.889 792.799,260.735 792.468,260.568C792.22,260.444 792.003,260.264 791.744,260.164C790.98,259.872 790.194,259.615 789.483,259.201C788.958,258.925 788.481,258.569 787.952,258.303C787.436,258.11 786.911,257.928 786.362,257.86C785.583,257.746 784.93,257.16 784.661,256.432C784.544,256.061 784.361,255.709 784.321,255.319C784.271,254.908 784.167,254.509 784.089,254.108C784.08,253.719 783.895,253.37 783.828,252.994C783.513,252.124 783.037,251.233 782.198,250.771C781.715,250.522 781.188,250.302 780.653,250.246C780.418,250.411 780.027,250.623 779.845,250.277C779.908,250.151 779.989,250.035 780.103,249.95C780.104,249.897 780.107,249.788 780.11,249.735C780.323,249.594 780.649,249.694 780.794,249.436C780.647,249.326 780.536,249.184 780.443,249.034C780.01,249.579 779.569,250.186 778.923,250.501C778.692,250.645 778.388,250.375 778.556,250.143C778.745,249.948 779.036,249.887 779.23,249.69C779.569,249.352 779.935,249.025 780.162,248.595C780.328,248.28 780.338,247.91 780.494,247.594C780.598,247.606 780.702,247.622 780.81,247.642C780.849,247.869 780.794,248.098 780.776,248.327C780.807,248.543 780.874,248.771 781.031,248.935C781.128,249.03 781.276,248.877 781.387,248.957C781.524,249.073 781.547,249.283 781.473,249.444C781.381,249.555 781.281,249.66 781.195,249.779C781.746,249.889 782.142,249.317 782.688,249.349C783.007,249.451 783.067,249.836 783.072,250.128C783.336,250.104 783.622,250.012 783.876,250.138C784.127,250.407 783.846,250.774 783.886,251.091C784.117,251.116 784.426,251.092 784.559,251.335C784.75,251.602 784.554,251.91 784.5,252.19C784.614,252.249 784.761,252.311 784.791,252.458C784.881,252.757 784.663,253.023 784.656,253.321C784.775,253.338 784.92,253.347 784.993,253.469C785.205,253.748 785.005,254.09 785.011,254.4C785.014,254.48 784.907,254.662 784.987,254.688C785.055,254.509 785.022,254.299 785.144,254.139C785.073,253.205 785.229,252.266 785.212,251.328C785.209,250.502 785.231,249.662 785.014,248.858C784.939,248.489 784.759,248.155 784.684,247.787C784.594,247.404 784.391,247.065 784.197,246.729C784.015,246.393 783.737,246.116 783.577,245.771C783.485,245.51 783.688,245.212 783.961,245.199C784.319,245.167 784.599,244.919 784.934,244.818C785.193,244.737 785.439,244.619 785.696,244.526C786.128,244.358 786.524,244.092 786.988,244.002C787.718,243.783 788.391,243.372 789.156,243.274C789.615,243.217 790.058,243.075 790.498,242.94Z" style="fill:white;fill-rule:nonzero;"/>
    </g>
    <g transform="matrix(4.16667,0,0,4.16667,-3183.79,-986.515)">
        <path d="M788.763,244.547C788.852,244.473 788.978,244.49 788.956,244.639C788.803,244.858 788.662,245.112 788.423,245.246C788.382,244.963 788.573,244.731 788.763,244.547Z" style="fill:white;fill-rule:nonzero;"/>
    </g>
    <g transform="matrix(4.16667,0,0,4.16667,-3183.79,-986.515)">
        <path d="M797.064,244.975C797.244,244.856 797.555,245.023 797.414,245.25C797.224,245.383 797.055,245.541 796.88,245.692C796.727,245.795 796.507,245.653 796.57,245.471C796.682,245.263 796.854,245.083 797.064,244.975Z" style="fill:white;fill-rule:nonzero;"/>
    </g>
    <g transform="matrix(4.16667,0,0,4.16667,-3183.79,-986.515)">
        <path d="M787.042,245.487C786.87,245.352 787.073,245.128 787.188,245.02C787.511,245.116 787.251,245.43 787.042,245.487Z" style="fill:white;fill-rule:nonzero;"/>
    </g>
    <g transform="matrix(4.16667,0,0,4.16667,-3183.79,-986.515)">
        <path d="M795.527,245.568C795.492,245.411 795.495,245.173 795.698,245.148C795.866,245.073 796.052,245.149 796.125,245.321C795.998,245.518 795.744,245.573 795.527,245.568Z" style="fill:white;fill-rule:nonzero;"/>
    </g>
    <g transform="matrix(4.16667,0,0,4.16667,-3183.79,-986.515)">
        <path d="M798.119,245.285C798.222,245.167 798.496,245.1 798.509,245.33C798.374,245.575 798.197,245.791 798.043,246.024C797.975,246.126 797.834,246.108 797.733,246.14C797.585,245.795 797.884,245.496 798.119,245.285Z" style="fill:white;fill-rule:nonzero;"/>
    </g>
    <g transform="matrix(4.16667,0,0,4.16667,-3183.79,-986.515)">
        <path d="M799.458,245.247C799.59,245.16 799.939,245.158 799.89,245.385C799.678,245.727 799.451,246.059 799.25,246.407C799.147,246.551 798.982,246.772 798.785,246.65C798.626,246.38 798.829,246.107 798.967,245.883C799.117,245.662 799.25,245.42 799.458,245.247Z" style="fill:white;fill-rule:nonzero;"/>
    </g>
    <g transform="matrix(4.16667,0,0,4.16667,-3183.79,-986.515)">
        <path d="M801.116,245.651C801.263,245.576 801.532,245.555 801.575,245.768C801.519,245.934 801.297,245.963 801.206,246.114C801.002,246.41 800.852,246.742 800.666,247.051C800.563,247.201 800.288,247.149 800.248,246.971C800.213,246.756 800.349,246.573 800.439,246.393C800.601,246.096 800.781,245.774 801.116,245.651Z" style="fill:white;fill-rule:nonzero;"/>
    </g>
    <g transform="matrix(4.16667,0,0,4.16667,-3183.79,-986.515)">
        <path d="M802.231,246.37C802.324,246.241 802.472,246.19 802.629,246.207C802.672,246.428 802.459,246.551 802.35,246.71C802.1,247.065 801.929,247.468 801.766,247.869C801.727,247.996 801.513,247.998 801.467,247.882C801.392,247.783 801.467,247.67 801.496,247.577C801.672,247.138 801.935,246.736 802.231,246.37Z" style="fill:white;fill-rule:nonzero;"/>
    </g>
    <g transform="matrix(4.16667,0,0,4.16667,-3183.79,-986.515)">
        <path d="M786.421,247.201C786.338,246.993 786.647,246.85 786.767,247.03C787.09,247.423 787.479,247.862 787.459,248.403C787.052,248.058 786.688,247.66 786.421,247.201Z" style="fill:white;fill-rule:nonzero;"/>
    </g>
    <g transform="matrix(4.16667,0,0,4.16667,-3183.79,-986.515)">
        <path d="M796.142,247.722C796.236,247.66 796.482,247.625 796.47,247.812C796.372,248.008 796.118,248.176 795.893,248.108C795.813,247.92 795.988,247.782 796.142,247.722Z" style="fill:white;fill-rule:nonzero;"/>
    </g>
    <g transform="matrix(4.16667,0,0,4.16667,-3183.79,-986.515)">
        <path d="M797.071,248.721C797.27,248.479 797.587,248.364 797.89,248.469C797.957,248.744 797.667,248.854 797.498,248.999C797.363,249.086 797.213,249.252 797.041,249.162C796.864,249.063 796.911,248.809 797.071,248.721Z" style="fill:white;fill-rule:nonzero;"/>
    </g>
    <g transform="matrix(4.16667,0,0,4.16667,-3183.79,-986.515)">
        <path d="M798.178,249.461C798.373,249.279 798.587,249.078 798.864,249.044C798.981,249.008 799.176,249.09 799.07,249.241C798.897,249.461 798.651,249.615 798.486,249.844C798.299,250.058 798.117,250.408 797.776,250.312C797.719,249.969 797.975,249.699 798.178,249.461Z" style="fill:white;fill-rule:nonzero;"/>
    </g>
    <g transform="matrix(4.16667,0,0,4.16667,-3183.79,-986.515)">
        <path d="M798.997,250.373C799.251,250.026 799.628,249.772 800.044,249.67C800.323,249.616 800.742,249.794 800.656,250.139C800.437,250.158 800.199,250.125 800.008,250.253C799.686,250.42 799.464,250.712 799.264,251.005C799.175,251.152 798.939,251.176 798.838,251.033C798.745,250.799 798.868,250.562 798.997,250.373Z" style="fill:white;fill-rule:nonzero;"/>
    </g>
    <g transform="matrix(4.16667,0,0,4.16667,-3183.79,-986.515)">
        <path d="M792.778,249.932C792.934,249.878 793.076,250.055 792.988,250.202C792.882,250.28 792.729,250.34 792.604,250.293C792.515,250.151 792.633,249.969 792.778,249.932Z" style="fill:white;fill-rule:nonzero;"/>
    </g>
    <g transform="matrix(4.16667,0,0,4.16667,-3183.79,-986.515)">
        <path d="M793.298,251.123C793.502,250.815 793.782,250.467 794.195,250.492C794.43,250.737 794.104,250.936 793.947,251.106C793.776,251.26 793.66,251.494 793.438,251.582C793.203,251.595 793.191,251.262 793.298,251.123Z" style="fill:white;fill-rule:nonzero;"/>
    </g>
    <g transform="matrix(4.16667,0,0,4.16667,-3183.79,-986.515)">
        <path d="M775.995,251.637C776.328,251.457 776.796,251.804 776.747,252.17C776.631,252.526 776.169,252.583 775.879,252.424C775.623,252.231 775.673,251.734 775.995,251.637Z" style="fill:white;fill-rule:nonzero;"/>
    </g>
    <g transform="matrix(4.16667,0,0,4.16667,-3183.79,-986.515)">
        <path d="M794.01,252.356C794.235,252.022 794.58,251.633 795.033,251.764C795.059,251.925 794.915,252.019 794.82,252.121C794.604,252.326 794.466,252.597 794.292,252.836C794.221,252.959 794.011,252.972 793.926,252.869C793.769,252.718 793.916,252.497 794.01,252.356Z" style="fill:white;fill-rule:nonzero;"/>
    </g>
    <g transform="matrix(4.16667,0,0,4.16667,-3183.79,-986.515)">
        <path d="M787.138,252.325C787.215,252.189 787.374,252.356 787.314,252.465C787.235,252.752 787.105,253.033 786.961,253.296C786.81,253.367 786.754,253.168 786.772,253.063C786.831,252.792 786.929,252.514 787.138,252.325Z" style="fill:white;fill-rule:nonzero;"/>
    </g>
    <g transform="matrix(4.16667,0,0,4.16667,-3183.79,-986.515)">
        <path d="M795.249,252.783C795.679,252.548 796.207,252.43 796.686,252.587C796.8,252.618 796.831,252.732 796.835,252.844C796.482,252.972 796.099,252.943 795.752,253.08C795.421,253.166 795.173,253.426 794.984,253.7C794.785,253.991 794.6,254.295 794.471,254.625C794.432,254.742 794.316,254.849 794.187,254.805C794.031,254.742 794.051,254.545 794.081,254.419C794.284,253.768 794.687,253.174 795.249,252.783Z" style="fill:white;fill-rule:nonzero;"/>
    </g>
    <g transform="matrix(4.16667,0,0,4.16667,-3183.79,-986.515)">
        <path d="M787.807,252.823C787.977,252.676 788.005,252.934 787.978,253.055C787.897,253.524 787.665,253.946 787.459,254.368C787.295,254.617 787.204,254.967 786.881,255.051C786.715,254.827 786.875,254.565 786.981,254.359C787.273,253.855 787.446,253.286 787.807,252.823Z" style="fill:white;fill-rule:nonzero;"/>
    </g>
    <g transform="matrix(4.16667,0,0,4.16667,-3183.79,-986.515)">
        <path d="M770.656,254.145C771.104,254.053 771.582,253.91 772.026,254.104C772.026,254.229 771.975,254.36 771.851,254.412C771.342,254.624 770.744,254.553 770.27,254.858C770.045,254.983 769.905,255.207 769.8,255.434C769.606,255.844 769.459,256.282 769.177,256.644C769.351,256.63 769.529,256.64 769.703,256.604C769.955,256.467 770.113,256.215 770.232,255.963C770.308,255.802 770.439,255.592 770.652,255.652C770.81,255.674 770.854,255.852 770.838,255.992C770.773,256.559 770.325,257.076 769.756,257.179C769.406,257.26 769.056,257.134 768.706,257.178C768.495,257.19 768.306,257.285 768.102,257.321C767.858,257.34 767.744,257.008 767.907,256.852C768.073,256.685 768.307,256.606 768.481,256.45C769.085,255.944 769.265,255.114 769.826,254.571C770.059,254.359 770.35,254.215 770.656,254.145Z" style="fill:white;fill-rule:nonzero;"/>
    </g>
    <g transform="matrix(4.16667,0,0,4.16667,-3183.79,-986.515)">
        <path d="M789.855,255.045C789.95,254.823 790.222,254.717 790.45,254.772C790.457,254.872 790.453,254.975 790.442,255.08C790.255,255.151 790.093,255.28 789.898,255.322C789.78,255.295 789.836,255.121 789.855,255.045Z" style="fill:white;fill-rule:nonzero;"/>
    </g>
    <g transform="matrix(4.16667,0,0,4.16667,-3183.79,-986.515)">
        <path d="M790.942,255.991C791.059,255.846 791.237,255.786 791.409,255.731C791.511,255.766 791.611,255.799 791.72,255.837C791.72,255.94 791.742,256.088 791.614,256.131C791.325,256.25 791.14,256.502 790.922,256.713C790.787,256.849 790.491,256.828 790.487,256.598C790.546,256.34 790.777,256.178 790.942,255.991Z" style="fill:white;fill-rule:nonzero;"/>
    </g>
    <g transform="matrix(4.16667,0,0,4.16667,-3183.79,-986.515)">
        <path d="M771.338,256.985C771.532,256.653 771.917,256.432 772.308,256.473C772.269,256.745 771.888,256.74 771.824,257.006C771.618,257.694 771.346,258.415 770.769,258.877C770.529,259.086 770.192,259.102 769.895,259.073C769.656,259.034 769.469,258.727 769.656,258.527C769.833,258.261 770.192,258.496 770.404,258.299C770.833,257.961 771.073,257.45 771.338,256.985Z" style="fill:white;fill-rule:nonzero;"/>
    </g>
    <g transform="matrix(4.16667,0,0,4.16667,-3183.79,-986.515)">
        <path d="M791.94,256.901C792.083,256.817 792.374,256.819 792.381,257.043C792.11,257.453 791.884,257.893 791.655,258.328C791.595,258.45 791.471,258.592 791.319,258.549C791.137,258.514 791.053,258.283 791.141,258.132C791.343,257.686 791.606,257.26 791.94,256.901Z" style="fill:white;fill-rule:nonzero;"/>
    </g>
    <g transform="matrix(4.16667,0,0,4.16667,-3183.79,-986.515)">
        <path d="M767.806,258.501C768.143,258.498 768.466,258.385 768.803,258.377C768.903,258.686 768.594,258.891 768.329,258.934C768.005,259.021 767.596,258.96 767.378,259.268C767.118,259.549 767.29,259.991 767.044,260.28C766.858,260.395 766.577,260.336 766.525,260.109C766.38,259.336 767.025,258.549 767.806,258.501Z" style="fill:white;fill-rule:nonzero;"/>
    </g>
</svg>
