<?xml version="1.0" encoding="UTF-8" standalone="no"?>
<!DOCTYPE svg PUBLIC "-//W3C//DTD SVG 1.1//EN" "http://www.w3.org/Graphics/SVG/1.1/DTD/svg11.dtd">
<svg width="100%" height="100%" viewBox="0 0 103 104" version="1.1" xmlns="http://www.w3.org/2000/svg" xmlns:xlink="http://www.w3.org/1999/xlink" xml:space="preserve" xmlns:serif="http://www.serif.com/" style="fill-rule:evenodd;clip-rule:evenodd;stroke-linejoin:round;stroke-miterlimit:2;">
    <g transform="matrix(4.16667,0,0,4.16667,-1775.81,-1535.17)">
        <path d="M438.278,369.953C438.183,370.159 438.078,370.363 438.003,370.579C437.829,371.047 437.99,371.554 438.185,371.991C438.34,372.335 438.354,372.717 438.466,373.075C438.607,372.833 438.732,372.566 438.723,372.28C438.71,371.49 438.694,370.651 438.278,369.953ZM438.07,368.949C438.235,368.745 438.357,368.415 438.674,368.443C438.95,368.428 439.11,368.7 439.171,368.934C439.154,369.169 439.02,369.4 439.108,369.639C439.254,370.137 439.529,370.601 439.531,371.136C439.65,371.72 439.461,372.329 439.167,372.837C439.054,373.053 438.823,373.154 438.607,373.234C438.24,373.34 438.569,374.055 438.072,373.987C437.909,373.485 437.808,372.969 437.781,372.444C437.778,372.153 437.586,371.924 437.493,371.662C437.327,371.235 437.183,370.759 437.327,370.304C437.498,369.816 437.745,369.353 438.07,368.949Z" style="fill:white;fill-rule:nonzero;"/>
    </g>
    <g transform="matrix(4.16667,0,0,4.16667,-1775.81,-1535.17)">
        <path d="M434.427,372.014C434.713,371.792 435.094,372.2 434.919,372.495C434.857,372.717 434.545,372.747 434.401,372.592C434.226,372.447 434.243,372.143 434.427,372.014Z" style="fill:white;fill-rule:nonzero;"/>
    </g>
    <g transform="matrix(4.16667,0,0,4.16667,-1775.81,-1535.17)">
        <path d="M440.375,373.997C440.345,373.733 440.27,373.398 440.546,373.24C440.896,373.436 440.862,373.878 440.967,374.216C441.032,374.597 441.063,374.991 441.058,375.381C440.981,375.801 440.659,376.121 440.501,376.51C440.29,376.984 440.044,377.447 439.872,377.934C439.84,377.934 439.772,377.932 439.741,377.932C439.668,377.551 439.45,377.191 439.528,376.791C439.57,376.142 439.936,375.591 440.299,375.077C440.401,374.73 440.444,374.354 440.375,373.997Z" style="fill:white;fill-rule:nonzero;"/>
    </g>
    <g transform="matrix(4.16667,0,0,4.16667,-1775.81,-1535.17)">
        <path d="M439.831,390.328C439.733,390.417 439.853,390.546 439.861,390.651C439.962,390.871 439.838,391.104 439.719,391.29C439.498,391.613 439.221,391.893 438.933,392.157C439.05,392.208 439.159,392.298 439.293,392.315C439.643,392.366 439.923,392.101 440.267,392.081C440.559,392.085 440.645,391.701 440.937,391.709C441.218,391.68 441.557,391.712 441.737,391.445C441.744,391.203 441.804,390.966 441.796,390.726C441.53,390.426 441.347,390.065 441.268,389.673C440.762,389.807 440.183,389.9 439.831,390.328ZM447.836,389.611C447.577,389.662 447.315,389.736 447.113,389.907C447.165,390.038 447.367,390.096 447.431,390.245C447.896,390.829 447.766,391.716 447.259,392.233C447.501,392.181 447.727,392.052 447.983,392.075C448.153,391.905 448.349,391.738 448.433,391.505C448.55,391.202 448.48,390.874 448.49,390.563C448.468,390.227 448.577,389.905 448.612,389.578C448.354,389.59 448.095,389.603 447.836,389.611ZM443.729,389.415C443.583,389.596 443.475,389.808 443.325,389.991C443.122,390.266 442.858,390.494 442.676,390.786C442.693,391.135 442.634,391.475 442.603,391.822C442.731,391.834 442.845,391.889 442.932,391.995C443.383,392.077 443.847,392.028 444.271,391.859C444.567,391.754 444.782,392.04 444.951,392.233C445.308,392.272 445.635,392.111 445.978,392.05C446.188,391.861 446.4,391.668 446.546,391.424C446.702,391.173 446.696,390.861 446.667,390.58C446.558,390.471 446.426,390.396 446.3,390.32C445.944,390.065 445.463,390.231 445.098,389.998C444.773,389.842 444.639,389.486 444.544,389.164C444.263,389.199 443.956,389.229 443.729,389.415ZM435.956,388.993C435.583,389.093 435.261,389.317 434.952,389.542C434.761,389.687 434.556,389.837 434.449,390.058C434.402,390.265 434.655,390.433 434.551,390.643C434.486,390.902 434.121,390.915 433.959,390.743C434.127,391.321 433.724,391.816 433.481,392.301C433.811,392.434 434.167,392.366 434.503,392.298C435.001,392.079 435.552,392.117 436.071,392.224C435.958,392.047 435.856,391.861 435.812,391.656C436.063,391.656 436.308,391.73 436.525,391.855C436.676,391.945 436.869,391.969 437.031,391.887C437.351,391.71 437.708,391.623 438.038,391.465C438.395,391.315 438.582,390.954 438.867,390.713C438.672,390.474 438.55,390.192 438.469,389.898C437.769,390.011 436.964,389.778 436.604,389.125C436.488,388.855 436.18,388.926 435.956,388.993ZM429.879,389.443C429.461,389.567 429.053,389.766 428.741,390.078C428.759,390.395 428.76,390.721 428.864,391.027C428.972,391.427 429.283,391.717 429.505,392.054C429.842,391.97 430.224,391.953 430.481,392.233C430.863,392.298 431.218,392.11 431.596,392.09C431.992,392.094 432.359,391.892 432.696,391.703C432.841,391.461 433.079,391.171 432.937,390.876C432.797,390.496 432.768,390.068 432.506,389.744C432.266,389.455 432.066,389.135 431.921,388.791C431.255,389.046 430.594,389.345 429.879,389.443ZM440.5,387.46C440.47,387.616 440.444,387.779 440.422,387.941C440.724,387.912 440.948,388.137 441.192,388.279C441.456,388.445 441.758,388.699 441.702,389.049C441.189,388.997 440.848,388.567 440.422,388.328C440.426,388.68 440.388,389.031 440.4,389.386C440.821,389.26 441.271,389.016 441.715,389.155C442.037,389.284 442.021,389.67 442.085,389.955C442.12,390.052 442.257,390.259 442.366,390.116C442.635,389.763 442.849,389.369 443.128,389.02C443.323,388.764 443.662,388.704 443.944,388.586C443.472,388.59 443.016,388.435 442.595,388.235C442.77,388.327 442.775,388.517 442.744,388.693C442.574,388.705 442.392,388.726 442.258,388.605C442.011,388.419 441.661,388.244 441.672,387.887C441.26,387.801 440.9,387.573 440.5,387.46ZM441.989,375.125C442.215,374.743 442.228,374.241 442.544,373.92C442.807,374.216 442.922,374.686 442.805,375.08C442.576,375.64 442.131,376.065 441.76,376.529C441.307,377.08 441.314,377.831 441.195,378.5C441.142,378.678 441.24,378.83 441.335,378.973C441.378,379.248 441.353,379.53 441.314,379.806C441.228,380.293 441.105,380.786 440.848,381.215C440.658,381.563 440.385,381.862 440.224,382.228C440.073,382.557 439.878,382.878 439.841,383.247C439.69,384.163 439.361,385.07 439.46,386.009C439.757,386.049 440.023,386.196 440.279,386.35C439.93,385.699 439.729,384.904 440.006,384.19C440.094,384.09 440.27,384.019 440.376,384.137C440.517,384.303 440.484,384.535 440.508,384.739C440.514,385.197 440.678,385.631 440.859,386.047C440.959,386.29 441.133,386.516 441.134,386.793C441.807,387.028 442.496,387.236 443.114,387.601C443.534,387.866 444.022,387.99 444.497,388.128C444.653,388.15 444.725,388.298 444.793,388.425C444.89,388.422 444.984,388.421 445.088,388.426C445.199,387.944 445.407,387.482 445.438,386.987C445.35,386.467 445.35,385.936 445.453,385.421C445.476,385.13 445.559,384.804 445.399,384.541C445.272,384.317 445.177,384.075 445.032,383.865C444.933,384.208 444.955,384.569 444.864,384.917C444.791,385.187 444.728,385.463 444.672,385.74C444.618,385.748 444.509,385.765 444.455,385.773C444.471,386.429 444.248,387.057 444.007,387.659C443.964,387.825 443.761,387.764 443.638,387.778C443.51,387.174 443.764,386.58 443.71,385.974C443.773,385.168 443.693,384.332 443.305,383.609C442.961,382.996 442.698,382.344 442.427,381.694C442.039,380.791 441.813,379.794 441.933,378.81C441.979,379.169 441.931,379.532 441.983,379.89C442.031,379.482 442.02,379.072 441.985,378.665C442.001,377.934 442.342,377.263 442.767,376.687C442.866,376.546 443.057,376.594 443.2,376.62C443.243,377.209 442.98,377.762 442.858,378.327C442.713,379.184 442.767,380.078 443.018,380.913C443.173,381.289 443.351,381.656 443.487,382.04C443.694,382.572 444.09,383.034 444.16,383.614C444.283,383.321 444.349,382.996 444.555,382.745C444.723,382.531 444.912,382.326 445.142,382.177C445.326,382.05 445.567,382.201 445.629,382.394C445.648,382.752 445.534,383.127 445.67,383.474C445.835,383.811 446.048,384.131 446.158,384.494C446.242,384.939 446.071,385.381 446.068,385.827C446.2,386.036 446.272,386.27 446.222,386.521C446.107,387.107 445.879,387.665 445.671,388.222C445.504,388.554 445.571,388.929 445.487,389.28C445.758,389.362 446.044,389.385 446.322,389.438C446.51,389.079 446.906,388.919 447.265,388.78C447.532,388.674 447.819,388.622 448.11,388.621C448.432,388.56 448.856,388.483 449.094,388.771C449.285,388.954 449.24,389.235 449.271,389.474C449.33,389.936 449.264,390.405 449.348,390.867C449.417,391.269 449.313,391.675 449.111,392.026C449.338,392.012 449.57,391.972 449.799,392.019C450.129,392.119 450.372,392.396 450.702,392.506C450.523,392.817 450.07,392.982 449.774,392.733C449.519,392.57 449.249,392.773 449.021,392.883C448.69,393.086 448.28,393.01 447.93,392.913C447.746,392.871 447.601,392.752 447.497,392.602C447.21,392.691 446.944,392.912 446.63,392.816C446.414,392.809 446.2,392.761 445.987,392.777C445.724,392.851 445.476,392.987 445.199,393.013C444.99,393.034 444.791,392.957 444.601,392.889C444.509,392.817 444.418,392.75 444.33,392.684C444.199,392.368 443.861,392.592 443.646,392.676C443.264,392.817 442.747,392.95 442.423,392.617C442.172,392.637 441.989,392.826 441.783,392.948C441.435,393.096 441.059,392.984 440.71,392.908C440.328,392.889 439.973,393.066 439.612,393.161C439.209,393.246 438.871,392.872 438.476,393.013C438.136,393.11 437.787,393.205 437.432,393.153C437.179,393.149 436.966,392.999 436.729,392.94C436.323,392.91 435.907,392.974 435.511,392.854C435.337,392.822 435.203,392.628 435.016,392.704C434.593,392.796 434.25,393.18 433.793,393.096C433.51,393.027 433.217,392.941 432.933,393.048C432.526,393.201 432.1,393.085 431.683,393.102C431.163,393.073 430.629,393.237 430.129,393.034C429.817,392.902 429.503,393.131 429.186,393.062C429.013,393.013 428.872,392.9 428.711,392.83C428.494,392.891 428.342,393.135 428.095,393.09C427.93,393.092 427.768,392.948 427.611,393.035C427.278,393.201 426.9,393.182 426.541,393.224C426.293,393.284 426.105,392.947 426.239,392.744C426.324,392.554 426.21,392.232 426.474,392.168C426.829,392.088 427.105,392.385 427.425,392.484C427.466,392.385 427.521,392.294 427.584,392.208C427.586,392.18 427.59,392.124 427.592,392.095C427.331,391.901 427.261,391.558 427.223,391.258C427.191,390.632 427.002,389.96 427.288,389.369C427.501,388.98 427.822,388.612 428.247,388.459C428.896,388.429 429.574,388.277 430.203,388.524C430.509,388.459 430.799,388.339 431.101,388.256C430.941,387.956 430.922,387.612 430.815,387.298C430.672,386.821 430.385,386.391 430.328,385.889C430.292,385.502 430.209,385.111 430.293,384.726C430.388,384.235 430.551,383.748 430.833,383.332C431,383.095 431.325,382.909 431.613,383.028C431.755,383.076 431.752,383.242 431.797,383.366C431.961,383.446 432.073,383.601 432.069,383.792C432.104,384.402 432.45,384.96 432.39,385.58C432.414,385.716 432.284,385.824 432.157,385.78C431.886,385.66 431.757,385.373 431.653,385.116C431.499,384.697 431.377,384.257 431.378,383.808C431.229,384.21 430.944,384.59 431.001,385.04C430.972,386.075 431.646,386.954 431.742,387.967C432.018,387.885 432.339,387.685 432.611,387.888C432.896,388.05 432.766,388.437 432.976,388.646C433.275,389.029 433.614,389.407 433.759,389.884C433.771,389.908 433.798,389.958 433.811,389.982C433.802,389.731 433.982,389.542 434.145,389.376C434.525,389.006 434.988,388.724 435.481,388.528C435.928,388.497 436.354,388.275 436.806,388.357C437.175,388.491 437.333,388.893 437.645,389.112C438.099,389.197 438.554,388.961 438.993,389.137C439.208,389.375 439.292,389.692 439.416,389.982C439.498,389.867 439.6,389.771 439.733,389.72C439.338,389.331 439.612,388.771 439.569,388.299C439.444,388.102 439.243,387.973 439.104,387.792C438.918,388.137 438.747,388.529 438.41,388.754C438.438,388.845 438.491,388.927 438.477,389.035C438.194,389.084 437.959,388.877 437.791,388.68C437.616,388.421 437.489,388.13 437.413,387.83C437.332,387.564 437.652,387.281 437.896,387.444C438.035,387.494 438.009,387.679 438.021,387.801C438.156,387.469 438.454,387.252 438.65,386.967C438.618,386.565 438.448,386.165 438.576,385.763C438.453,385.861 438.33,385.963 438.178,386.009C438.313,386.109 438.396,386.273 438.301,386.436C438.047,386.603 437.791,386.768 437.561,386.969C436.979,387.496 436.196,387.684 435.484,387.971C435.411,387.986 435.385,388.059 435.347,388.117C435.857,388.001 436.356,387.781 436.893,387.83C436.94,388.092 436.565,388.156 436.414,388.31C436.126,388.323 435.82,388.353 435.561,388.474C435.301,388.495 435.059,388.684 434.796,388.608C434.694,388.507 434.646,388.368 434.589,388.245C434.073,388.381 433.614,388.786 433.052,388.66C432.985,388.522 432.91,388.389 432.884,388.241C432.994,387.843 433.396,387.65 433.73,387.47C433.992,387.315 434.296,387.272 434.583,387.186C434.523,386.616 434.475,386.044 434.338,385.485C434.228,385.261 434.145,385.023 434.009,384.813C433.66,384.244 433.592,383.568 433.496,382.925C433.374,382.054 433.356,381.166 433.505,380.298C433.599,379.737 433.678,379.17 433.822,378.619C434.087,377.941 434.521,377.347 434.844,376.698C435.179,376.153 435.58,375.65 435.995,375.165C436.193,374.925 436.323,374.53 436.671,374.495C436.876,374.621 436.854,374.935 436.835,375.155C436.694,375.61 436.911,376.081 436.805,376.54C436.691,377.52 436.265,378.445 436.269,379.441C436.272,380.196 436.396,380.962 436.701,381.658C436.813,381.949 437.082,382.197 437.031,382.535C436.417,382.563 436.006,381.962 435.833,381.44C435.61,380.929 435.592,380.368 435.522,379.824C435.512,379.177 435.479,378.514 435.664,377.886C435.786,377.455 435.92,377.025 436.012,376.588C435.562,377.229 435.219,377.938 434.853,378.632C434.647,378.985 434.58,379.39 434.515,379.788C434.446,380.217 434.293,380.633 434.285,381.072C434.27,381.669 434.276,382.267 434.325,382.862C434.337,383.392 434.359,383.946 434.624,384.423C434.835,384.786 434.985,385.184 435.073,385.598C435.159,386.037 435.329,386.458 435.366,386.911C435.647,386.878 435.904,386.751 436.16,386.637C436.729,386.374 437.308,386.088 437.938,386.018C437.689,385.886 437.685,385.533 437.881,385.351C438.047,385.153 438.45,385.11 438.565,385.387C438.65,384.628 438.871,383.891 439.098,383.165C439.275,382.747 439.479,382.338 439.666,381.925C439.166,381.373 439.022,380.615 438.897,379.906C438.841,379.482 438.743,379.066 438.688,378.643C438.632,378.348 438.544,378.056 438.561,377.755C438.407,378.029 438.229,378.296 438.146,378.603C438.336,378.669 438.477,378.84 438.446,379.051C438.423,379.671 438.598,380.326 438.324,380.914C438.423,381.004 438.592,381.077 438.567,381.246C438.507,381.377 438.436,381.504 438.378,381.639C438.628,381.638 438.743,381.874 438.772,382.091C438.831,382.465 439.041,382.882 438.823,383.244C438.72,383.299 438.561,383.317 438.488,383.21C438.294,382.983 438.285,382.672 438.213,382.397C438.151,382.19 438.11,381.978 438.094,381.765C437.871,381.511 437.878,381.018 438.251,380.906C438.249,380.809 438.227,380.72 438.183,380.644C437.896,380.235 437.838,379.71 437.874,379.227C437.83,379.279 437.812,379.35 437.817,379.437C437.773,379.642 437.781,379.851 437.766,380.06C437.771,380.277 437.419,380.241 437.406,380.052C437.264,379.308 437.656,378.625 437.924,377.961C438.047,377.616 438.229,377.3 438.385,376.971C438.459,376.647 438.433,376.297 438.566,375.99C438.689,375.763 439.034,375.795 439.138,376.026C439.18,376.199 439.145,376.382 439.15,376.563C439.126,377.245 439.309,377.909 439.399,378.581C439.536,379.53 439.687,380.504 440.12,381.369C440.365,380.918 440.655,380.48 440.786,379.978C440.886,379.672 440.744,379.357 440.761,379.048C440.767,378.476 440.729,377.905 440.776,377.337C440.866,376.908 440.982,376.466 441.261,376.117C441.508,375.789 441.803,375.493 441.989,375.125Z" style="fill:white;fill-rule:nonzero;"/>
    </g>
    <g transform="matrix(4.16667,0,0,4.16667,-1775.81,-1535.17)">
        <path d="M431.859,375.664C431.754,375.783 431.789,375.953 431.799,376.102C431.853,376.518 431.971,376.925 432.104,377.324C432.236,377.08 432.399,376.835 432.324,376.542C432.261,376.287 432.185,376.031 432.044,375.809C431.989,375.742 431.967,375.61 431.859,375.664ZM431.385,375.461C431.518,374.992 432.216,374.887 432.494,375.279C432.917,375.809 433.222,376.58 432.888,377.231C432.569,377.487 432.504,377.915 432.248,378.218C432.089,378.38 431.857,378.365 431.667,378.279C431.596,377.97 431.668,377.651 431.604,377.343C431.532,376.978 431.46,376.615 431.462,376.245C431.479,375.975 431.241,375.722 431.385,375.461Z" style="fill:white;fill-rule:nonzero;"/>
    </g>
    <g transform="matrix(4.16667,0,0,4.16667,-1775.81,-1535.17)">
        <path d="M434.785,380.219C434.878,380.075 435.055,380.104 435.2,380.12C435.322,380.453 435.232,380.82 435.351,381.159C435.489,381.584 435.492,382.044 435.397,382.48C435.363,382.567 435.232,382.516 435.199,382.454C435.04,382.28 434.893,382.084 434.84,381.851C434.78,381.611 434.871,381.361 434.805,381.124C434.715,380.83 434.719,380.514 434.785,380.219Z" style="fill:white;fill-rule:nonzero;"/>
    </g>
    <g transform="matrix(4.16667,0,0,4.16667,-1775.81,-1535.17)">
        <path d="M443.694,380.377C443.66,380.022 444.299,379.957 444.337,380.308C444.37,380.559 444.246,380.822 444.051,380.982C443.87,380.828 443.649,380.642 443.694,380.377Z" style="fill:white;fill-rule:nonzero;"/>
    </g>
    <g transform="matrix(4.16667,0,0,4.16667,-1775.81,-1535.17)">
        <path d="M437.097,380.342C437.292,380.217 437.571,380.377 437.586,380.6C437.638,381.065 437.616,381.538 437.708,382C437.817,382.555 437.935,383.157 437.723,383.705C437.644,383.434 437.411,383.262 437.299,383.012C437.188,382.784 437.107,382.542 437.047,382.298C436.951,381.818 436.869,381.329 436.901,380.839C436.917,380.66 436.909,380.43 437.097,380.342Z" style="fill:white;fill-rule:nonzero;"/>
    </g>
    <g transform="matrix(4.16667,0,0,4.16667,-1775.81,-1535.17)">
        <path d="M432.242,381.627C432.395,381.313 432.629,380.936 433.027,380.952C433.073,381.304 432.862,381.603 432.775,381.929C432.845,382.27 433.164,382.509 433.211,382.859C433.255,383.139 432.866,383.304 432.681,383.108C432.334,382.711 432.038,382.162 432.242,381.627Z" style="fill:white;fill-rule:nonzero;"/>
    </g>
    <g transform="matrix(4.16667,0,0,4.16667,-1775.81,-1535.17)">
        <path d="M441.143,383.329C441.172,383.024 441.586,382.661 441.873,382.934C442.277,383.421 442.278,384.164 442.002,384.717C441.896,384.719 441.764,384.768 441.729,384.635C441.57,384.326 441.535,383.973 441.499,383.635C441.372,383.544 441.134,383.532 441.143,383.329Z" style="fill:white;fill-rule:nonzero;"/>
    </g>
    <g transform="matrix(4.16667,0,0,4.16667,-1775.81,-1535.17)">
        <path d="M436.202,383.512C436.301,383.257 436.592,383.174 436.842,383.229C436.887,383.462 436.686,383.678 436.79,383.904C436.909,384.201 437.086,384.473 437.186,384.778C437.298,384.609 437.523,384.44 437.72,384.603C437.94,384.818 437.776,385.117 437.695,385.358C437.624,385.616 437.427,385.818 437.36,386.08C437.063,386.223 436.79,385.951 436.684,385.697C436.575,385.421 436.479,385.14 436.374,384.864C436.249,384.431 436.033,383.961 436.202,383.512Z" style="fill:white;fill-rule:nonzero;"/>
    </g>
    <g transform="matrix(4.16667,0,0,4.16667,-1775.81,-1535.17)">
        <path d="M433.167,384.901C433.5,384.687 433.867,385.204 433.6,385.469C433.455,385.669 433.128,385.615 433.02,385.408C432.884,385.238 432.991,384.989 433.167,384.901Z" style="fill:white;fill-rule:nonzero;"/>
    </g>
    <g transform="matrix(4.16667,0,0,4.16667,-1775.81,-1535.17)">
        <path d="M442.055,385.535C442.285,385.379 442.597,385.577 442.633,385.835C442.713,386.247 442.787,386.754 442.488,387.1C442.172,387.061 441.948,386.73 441.895,386.429C441.822,386.134 441.742,385.719 442.055,385.535Z" style="fill:white;fill-rule:nonzero;"/>
    </g>
    <g transform="matrix(4.16667,0,0,4.16667,-1775.81,-1535.17)">
        <path d="M447.078,386.676C447.499,386.463 447.794,387.149 447.542,387.439C447.151,387.59 446.624,386.918 447.078,386.676Z" style="fill:white;fill-rule:nonzero;"/>
    </g>
</svg>
