<?xml version="1.0" encoding="UTF-8" standalone="no"?>
<!DOCTYPE svg PUBLIC "-//W3C//DTD SVG 1.1//EN" "http://www.w3.org/Graphics/SVG/1.1/DTD/svg11.dtd">
<svg width="100%" height="100%" viewBox="0 0 200 200" version="1.1" xmlns="http://www.w3.org/2000/svg" xmlns:xlink="http://www.w3.org/1999/xlink" xml:space="preserve" xmlns:serif="http://www.serif.com/" style="fill-rule:evenodd;clip-rule:evenodd;stroke-linejoin:round;stroke-miterlimit:2;">
    <g transform="matrix(4.16667,0,0,4.16667,-2661.61,-1542.98)">
        <path d="M668.688,413.751C668.679,413.878 668.675,414.009 668.669,414.137C668.999,414.044 669.335,413.981 669.677,413.973C669.355,413.866 669.01,413.857 668.688,413.751ZM668.69,412.39C668.693,412.702 668.69,413.013 668.684,413.325C668.98,413.37 669.277,413.408 669.57,413.482C669.576,413.232 669.583,412.981 669.561,412.731C669.556,412.598 669.414,412.596 669.319,412.567C669.105,412.52 668.894,412.465 668.69,412.39ZM659.799,405.606C659.813,406.38 659.8,407.153 659.806,407.929C659.792,409.805 659.825,411.681 659.763,413.559C659.747,413.69 659.904,413.723 659.988,413.787C660.308,413.961 660.598,414.261 660.989,414.233C661.008,414.015 661.111,413.774 661.348,413.722C661.813,413.598 662.215,413.917 662.63,414.065C662.844,414.036 663.06,413.989 663.274,414.038C663.369,413.911 663.451,413.761 663.606,413.697C663.861,413.613 664.131,413.714 664.324,413.887C664.566,414.098 664.898,414.177 665.214,414.117C665.214,413.839 665.453,413.534 665.754,413.601C666.073,413.686 666.346,413.901 666.579,414.132C666.876,414.122 667.175,414.101 667.475,414.114C667.481,414.069 667.499,413.979 667.506,413.934C667.561,413.887 667.618,413.837 667.677,413.787C667.623,413.186 667.659,412.583 667.647,411.98C667.65,409.827 667.65,407.675 667.653,405.52C665.956,405.526 664.257,405.494 662.561,405.567C661.642,405.623 660.719,405.574 659.799,405.606ZM668.679,404.889C668.682,406.179 668.679,407.469 668.686,408.758C668.678,409.531 668.713,410.307 668.663,411.078C668.717,411.38 668.677,411.686 668.708,411.99C668.989,412.083 669.281,412.16 669.579,412.182C669.535,411.921 669.565,411.656 669.541,411.395C669.521,411.374 669.483,411.327 669.465,411.305C669.218,411.246 668.958,411.253 668.723,411.153C668.714,411.05 668.708,410.948 668.703,410.845C668.972,410.767 669.251,410.818 669.514,410.898C669.512,410.575 669.515,410.253 669.509,409.929C669.26,409.879 668.796,410.009 668.75,409.661C668.892,409.399 669.267,409.528 669.515,409.542C669.509,409.159 669.504,408.777 669.517,408.395C669.27,408.432 669.021,408.485 668.771,408.46C668.757,408.343 668.673,408.173 668.82,408.102C669.028,407.985 669.281,408.026 669.512,408.032C669.505,407.637 669.501,407.243 669.502,406.848C669.405,406.819 669.267,406.861 669.207,406.768C669.136,406.618 669.352,406.637 669.441,406.587C669.47,405.78 669.451,404.97 669.441,404.162C669.167,404.384 668.937,404.651 668.679,404.889ZM662.03,402.78C661.63,402.939 661.203,403.089 660.897,403.405C660.488,403.796 660.043,404.22 659.918,404.794C660.599,404.839 661.29,404.765 661.969,404.837C661.638,404.864 661.308,404.862 660.979,404.852C660.582,404.839 660.178,404.886 659.788,404.807C659.791,404.825 659.796,404.864 659.799,404.882C660.008,404.942 660.235,404.893 660.453,404.907C661.006,404.889 661.563,404.955 662.112,404.855C662.613,404.804 663.113,404.895 663.614,404.881C664.966,404.876 666.318,404.887 667.669,404.897C667.7,404.8 667.689,404.706 667.635,404.622C667.494,404.387 667.396,404.131 667.241,403.906C666.911,403.505 666.475,403.214 666.036,402.946C665.528,402.587 664.906,402.409 664.286,402.454C663.53,402.514 662.74,402.477 662.03,402.78ZM668.067,402.083C668.139,402.24 668.126,402.417 668.007,402.548C667.949,402.667 667.772,402.782 667.858,402.923C668.037,403.159 668.291,402.84 668.517,402.939C668.61,403.183 668.374,403.357 668.364,403.579C668.456,403.813 668.598,404.034 668.607,404.292C668.768,404.114 668.938,403.941 669.146,403.817C668.927,403.167 668.569,402.554 668.067,402.083ZM658.356,402.911C658.722,403.119 659.077,403.348 659.401,403.614C659.54,403.568 659.606,403.383 659.686,403.263C659.465,403.012 659.237,402.763 659.036,402.497C658.941,402.375 658.989,402.22 658.996,402.083C658.802,402.374 658.536,402.608 658.356,402.911ZM667.028,401.462C667.026,401.692 666.888,401.876 666.78,402.066C666.9,402.212 667.08,402.327 667.271,402.352C667.396,402.163 667.466,401.887 667.726,401.845C667.561,401.631 667.284,401.52 667.028,401.462ZM659.206,401.935C659.47,402.272 659.74,402.605 660.003,402.943C660.181,402.76 660.379,402.598 660.581,402.442C660.582,402.403 660.584,402.327 660.585,402.29C660.407,401.929 660.065,401.602 660.104,401.175C659.774,401.389 659.486,401.661 659.206,401.935ZM665.523,400.818C665.53,401.047 665.505,401.277 665.435,401.496C665.754,401.544 666.038,401.697 666.338,401.809C666.436,401.616 666.524,401.419 666.587,401.212C666.226,401.098 665.872,400.962 665.523,400.818ZM660.312,401.056C660.447,401.472 660.713,401.837 660.963,402.192C661.247,402.066 661.528,401.934 661.835,401.865C661.821,401.647 661.862,401.419 661.76,401.22C661.655,401.018 661.695,400.789 661.701,400.573C661.204,400.61 660.729,400.788 660.312,401.056ZM663.61,400.389C663.638,400.47 663.667,400.553 663.697,400.634C663.587,400.915 663.634,401.221 663.631,401.514C664.101,401.437 664.575,401.38 665.054,401.421C665.133,401.192 665.245,400.971 665.23,400.722C664.704,400.559 664.16,400.438 663.61,400.389ZM662.089,400.463C662.032,400.886 662.274,401.262 662.266,401.68C662.599,401.641 662.935,401.624 663.27,401.572C663.263,401.335 663.248,401.097 663.273,400.862C663.277,400.658 663.536,400.571 663.517,400.359C663.039,400.307 662.553,400.324 662.089,400.463ZM664.901,399.917C665.694,400.106 666.463,400.393 667.216,400.709C667.798,400.958 668.36,401.303 668.741,401.82C669.253,402.362 669.568,403.077 669.676,403.809C669.903,403.731 670.14,403.846 670.206,404.081C670.235,404.757 670.205,405.436 670.214,406.113C670.248,407.025 670.175,407.938 670.21,408.85C670.559,408.861 670.906,408.862 671.256,408.86C671.255,408.881 671.251,408.922 671.25,408.941C670.901,408.957 670.554,408.947 670.206,408.961C670.193,409.635 670.192,410.308 670.171,410.983C670.312,411.05 670.533,411.096 670.481,411.306C670.367,411.329 670.254,411.332 670.153,411.381C670.155,412.264 670.104,413.145 670.054,414.027C670.279,414.036 670.473,414.166 670.692,414.206C670.867,413.976 671.168,413.923 671.431,413.852C671.7,413.781 671.975,413.848 672.22,413.966C672.392,414.042 672.473,413.796 672.632,413.774C672.833,413.764 673.034,413.774 673.237,413.794C673.556,413.804 673.791,414.079 674.114,414.083C674.095,413.383 674.106,412.683 674.102,411.983C674.109,410.255 674.065,408.528 674.041,406.802C674.03,404.5 674.034,402.198 674.034,399.895C673.678,399.929 673.316,400.014 672.963,399.934C672.584,399.84 672.193,399.897 671.81,399.882L667.296,399.882C666.497,399.899 665.697,399.845 664.901,399.917ZM653.345,399.913C653.342,402.872 653.332,405.829 653.353,408.788C653.906,408.912 654.484,408.819 655.045,408.889C655.136,408.919 655.277,408.97 655.247,409.095C655.074,409.201 654.865,409.229 654.667,409.22C654.228,409.188 653.79,409.159 653.356,409.082C653.363,410.487 653.384,411.891 653.353,413.296C653.565,413.286 653.74,413.398 653.903,413.522C654.187,413.462 654.478,413.634 654.564,413.909C654.599,413.909 654.666,413.911 654.699,413.911C654.708,413.86 654.722,413.761 654.73,413.71C654.846,413.626 654.96,413.509 655.119,413.533C655.318,413.524 655.398,413.761 655.565,413.826C655.902,413.819 656.238,413.848 656.575,413.85C656.708,413.53 656.944,413.112 657.343,413.136C657.344,412.051 657.353,410.966 657.346,409.882C657.354,408.903 657.314,407.924 657.398,406.948C657.395,406.095 657.43,405.238 657.399,404.384C657.289,403.691 657.5,402.981 657.873,402.399C658.242,401.858 658.737,401.423 659.214,400.978C659.864,400.443 660.64,399.991 661.495,399.917C661.147,399.886 660.799,399.876 660.453,399.882C659.475,399.891 658.496,399.865 657.519,399.907C656.49,399.93 655.46,399.909 654.431,399.929C654.07,399.949 653.702,399.997 653.345,399.913ZM653.347,398.261C653.352,398.585 653.352,398.909 653.344,399.235C653.458,399.218 653.573,399.201 653.693,399.2C655.469,399.239 657.245,399.231 659.021,399.245C663.407,399.245 667.794,399.249 672.18,399.246C672.431,399.252 672.689,399.22 672.938,399.288C673.296,399.377 673.671,399.307 674.027,399.242C674.027,398.97 674.028,398.697 674.022,398.424C671.755,398.462 669.485,398.391 667.216,398.408C662.908,398.402 658.598,398.44 654.29,398.331C654.474,398.258 654.68,398.313 654.873,398.27C654.733,398.225 654.585,398.225 654.445,398.251C654.085,398.347 653.711,398.286 653.347,398.261ZM677.645,398.18C677.476,398.466 677.208,398.669 677.017,398.937C676.526,399.448 676.032,399.956 675.479,400.399C675.38,400.473 675.257,400.458 675.145,400.462C675.132,400.808 675.139,401.155 675.138,401.505C675.446,401.18 675.798,400.901 676.152,400.629C676.518,400.372 676.83,400.048 677.188,399.78C677.862,399.264 678.483,398.682 679.162,398.173C678.656,398.151 678.148,398.13 677.645,398.18ZM675.149,398.114C675.146,398.721 675.157,399.329 675.134,399.936C675.758,399.368 676.38,398.787 676.9,398.122C676.316,398.122 675.732,398.124 675.149,398.114ZM678.192,397.143C677.18,397.229 676.162,397.136 675.148,397.21C675.145,397.285 675.145,397.362 675.146,397.438C676.729,397.454 678.309,397.364 679.893,397.374C679.891,397.266 679.891,397.16 679.895,397.054C679.325,397.051 678.761,397.136 678.192,397.143ZM664.614,394.298C664.551,395.223 664.635,396.153 664.605,397.08C665.517,397.096 666.426,397.028 667.333,397.118C667.356,396.063 667.345,395.007 667.34,393.952C666.784,394.239 666.222,394.515 665.673,394.813C665.38,394.95 665.104,395.147 664.773,395.17C664.781,395.126 664.799,395.042 664.809,395C665.607,394.599 666.396,394.173 667.208,393.79C667.431,393.703 667.306,393.415 667.326,393.233C666.835,393.228 666.345,393.179 665.853,393.2C665.469,393.598 665.055,393.968 664.614,394.298ZM664.589,393.193C664.585,393.402 664.585,393.61 664.599,393.819C664.833,393.62 665.104,393.454 665.288,393.203C665.054,393.19 664.82,393.19 664.589,393.193ZM661.72,393.255C661.4,393.456 661.063,393.633 660.771,393.872C660.812,394.948 660.79,396.024 660.816,397.1C661.815,397.073 662.815,397.083 663.815,397.076C663.792,396.392 663.818,395.706 663.812,395.022C663.013,395.616 662.251,396.267 661.388,396.768C661.276,396.842 661.054,396.837 661.097,396.653C661.298,396.393 661.614,396.249 661.87,396.044C662.425,395.596 663.009,395.183 663.565,394.736C663.667,394.643 663.813,394.55 663.801,394.39C663.804,393.985 663.815,393.579 663.788,393.175C663.601,393.235 663.467,393.38 663.328,393.509C662.695,394.081 662.144,394.734 661.575,395.369C661.485,395.456 661.392,395.539 661.28,395.594C661.153,395.673 660.913,395.649 661.004,395.448C661.107,395.195 661.363,395.065 661.54,394.87C662.095,394.22 662.804,393.729 663.478,393.213C663.022,393.173 662.564,393.2 662.109,393.19C661.977,393.199 661.831,393.173 661.72,393.255ZM660.737,393.083C660.759,393.259 660.762,393.437 660.739,393.613C660.872,393.428 661.071,393.311 661.257,393.184C661.075,393.196 660.877,393.225 660.737,393.083ZM666.552,392.564C666.814,392.599 667.083,392.594 667.349,392.577C667.343,392.31 667.343,392.045 667.346,391.78C667.099,392.059 666.825,392.313 666.552,392.564ZM662.654,392.632C663.054,392.596 663.454,392.614 663.855,392.616C663.833,392.34 663.832,392.06 663.887,391.787C663.507,392.112 663.029,392.298 662.654,392.632ZM660.754,389.733C660.755,390.706 660.758,391.679 660.767,392.65C661.183,392.579 661.611,392.644 662.028,392.596C662.459,392.333 662.856,392.011 663.3,391.765C663.461,391.637 663.688,391.571 663.798,391.391C663.813,390.878 663.808,390.363 663.803,389.85C663.827,389.826 663.876,389.775 663.901,389.751C663.429,389.698 662.955,389.785 662.484,389.74C661.907,389.731 661.33,389.737 660.754,389.733ZM664.546,389.7C664.591,390.102 664.591,390.509 664.562,390.913C664.75,390.899 665.063,390.606 665.103,390.94C664.958,391.081 664.779,391.179 664.61,391.287C664.565,391.72 664.596,392.159 664.59,392.594C665.04,392.589 665.493,392.626 665.941,392.574C666.396,392.262 666.744,391.825 667.171,391.481C667.24,391.413 667.344,391.345 667.331,391.229C667.339,390.706 667.349,390.18 667.328,389.657C666.401,389.71 665.473,389.701 664.546,389.7ZM675.198,392.966C675.205,394.149 675.139,395.333 675.178,396.516C675.753,396.589 676.332,396.546 676.91,396.6C677.903,396.596 678.896,396.6 679.886,396.7C679.8,395.064 679.833,393.424 679.823,391.784C679.098,391.338 678.283,391.075 677.516,390.712C676.836,390.403 676.143,390.109 675.497,389.73C675.274,389.624 675.219,389.371 675.224,389.146C675.178,390.419 675.212,391.694 675.198,392.966ZM677.339,388.485C677.279,388.822 677.293,389.161 677.403,389.485C678.248,389.85 679.125,390.139 679.966,390.514C680.306,390.716 680.604,390.993 680.968,391.158C681.134,391.196 681.259,391.044 681.393,390.969C681.432,390.694 681.205,390.503 681.027,390.334C680.547,389.942 679.982,389.679 679.459,389.352C678.797,388.962 678.058,388.743 677.339,388.485ZM653.631,388.241C653.62,389.217 653.713,390.196 653.62,391.171C653.623,391.396 653.389,391.534 653.402,391.759C653.396,393.7 653.429,395.643 653.356,397.583C653.804,397.464 654.271,397.532 654.729,397.484C655.181,397.427 655.638,397.462 656.092,397.449C656.956,397.449 657.82,397.425 658.687,397.435C658.691,396.961 658.696,396.486 658.693,396.012C658.543,395.985 658.259,396.036 658.244,395.825C658.357,395.718 658.553,395.778 658.701,395.738C658.693,394.191 658.688,392.645 658.692,391.098C658.435,391.008 658.144,391.127 657.904,390.985C658.143,390.833 658.434,390.93 658.693,390.85C658.679,390.104 658.675,389.356 658.696,388.61C658.698,388.386 658.95,388.331 659.13,388.317C659.103,388.294 659.051,388.247 659.024,388.222C657.227,388.196 655.428,388.218 653.631,388.241ZM660.3,388.208C659.908,388.192 659.531,388.309 659.147,388.36C659.296,388.751 659.221,389.177 659.24,389.586C659.271,390.915 659.186,392.241 659.192,393.569C659.194,394.309 659.19,395.049 659.196,395.789C659.262,395.828 659.327,395.872 659.39,395.921C659.409,396.04 659.275,396.046 659.201,396.089C659.182,396.534 659.201,396.981 659.211,397.427C659.438,397.41 659.666,397.409 659.896,397.423C659.923,396.764 659.896,396.104 659.919,395.446C660.001,394.647 659.955,393.843 659.97,393.04C659.976,391.866 659.955,390.688 659.99,389.514C659.879,389.239 660.064,388.909 660.375,388.912C660.777,388.893 661.181,388.917 661.582,388.889C663.523,388.86 665.463,388.982 667.404,388.947C667.501,388.856 667.604,388.757 667.74,388.727C667.997,388.714 668.261,388.937 668.227,389.208C668.237,391.93 668.238,394.653 668.228,397.375C668.508,397.382 668.79,397.381 669.072,397.376C669.044,395.054 669.058,392.731 669.051,390.408C669.061,389.667 668.971,388.921 669.065,388.184C666.144,388.214 663.222,388.216 660.3,388.208ZM672.33,388.083C671.899,388.061 671.476,388.154 671.047,388.157C670.578,388.163 670.11,388.186 669.644,388.179C669.655,388.673 669.644,389.167 669.625,389.661C669.628,391.714 669.631,393.768 669.626,395.822C669.579,396.338 669.568,396.858 669.573,397.378C671.058,397.374 672.543,397.376 674.028,397.372C674.006,396.104 674.046,394.836 673.985,393.569C673.961,391.865 673.976,390.159 673.966,388.454C673.942,388.261 674.056,388.094 674.183,387.962C673.868,388.003 673.549,388.001 673.233,388.005C672.93,388.001 672.634,388.098 672.33,388.083ZM652.928,387.143C653.14,387.145 653.344,387.204 653.506,387.35C659.178,387.384 664.853,387.345 670.524,387.382C671.64,387.419 672.752,387.529 673.865,387.546C673.718,387.294 673.531,387.066 673.351,386.839C673.242,386.788 673.117,386.81 673.005,386.802C671.776,386.807 670.547,386.804 669.319,386.804C667.49,386.794 665.661,386.833 663.833,386.776C660.553,386.741 657.273,386.771 653.992,386.752C653.822,386.762 653.697,386.624 653.537,386.602C653.327,386.774 653.103,386.934 652.928,387.143ZM669.217,382.23C669.214,383.466 669.215,384.704 669.208,385.94C670.322,385.944 671.437,385.95 672.55,385.938C671.994,385.171 671.386,384.442 670.703,383.784C670.184,383.286 669.812,382.647 669.217,382.23ZM658.488,381.666C658.04,382.125 657.678,382.665 657.161,383.057C656.665,383.634 656.103,384.151 655.547,384.671C655.169,385.149 654.677,385.518 654.266,385.962C655.224,386.002 656.186,385.963 657.145,385.973C657.935,385.966 658.728,385.992 659.517,385.959C659.484,384.169 659.486,382.378 659.521,380.588C659.186,380.956 658.8,381.274 658.488,381.666ZM660.799,379.31C660.518,379.608 660.233,379.9 659.933,380.177C659.963,382.108 659.948,384.04 659.942,385.969C660.24,385.975 660.54,385.975 660.842,385.973C660.796,383.753 660.764,381.531 660.799,379.31ZM657.485,376.595C657.479,376.645 657.466,376.749 657.46,376.8C657.328,376.926 657.194,377.08 657.001,377.1C656.73,377.118 656.46,377.096 656.19,377.121C656.144,377.339 656.127,377.559 656.133,377.779C656.142,378.655 656.146,379.528 656.139,380.403C656.602,380.007 657.03,379.575 657.48,379.166C657.501,378.308 657.499,377.452 657.485,376.595ZM663.802,376.392C663.229,376.962 662.601,377.474 662.069,378.083C661.762,378.466 661.36,378.753 661.012,379.095C661.142,379.117 661.246,379.217 661.226,379.358C661.226,380.763 661.231,382.17 661.217,383.575C661.226,384.374 661.144,385.173 661.169,385.972C661.834,385.969 662.495,385.988 663.159,385.957C665.001,385.925 666.846,385.964 668.688,385.94C668.676,384.839 668.681,383.735 668.684,382.634C668.522,382.598 668.174,382.686 668.145,382.484C668.309,382.436 668.482,382.409 668.655,382.381C668.659,382.093 668.757,381.739 668.528,381.511C668.287,381.238 668.071,380.944 667.849,380.659C667.822,381.304 667.825,381.948 667.824,382.595C667.764,383.597 667.754,384.602 667.771,385.606C667.787,385.723 667.73,385.825 667.68,385.925C667.58,385.914 667.481,385.903 667.386,385.892C667.302,385.661 667.02,385.739 666.834,385.669C666.726,385.63 666.544,385.624 666.55,385.471C666.8,385.403 667.049,385.554 667.305,385.55C667.35,384.762 667.236,383.982 667.264,383.196C667.271,382.166 667.227,381.137 667.176,380.11C666.635,379.746 666.193,379.259 665.672,378.87C665.099,378.446 664.535,378.01 663.998,377.544C663.792,377.307 663.489,377.061 663.589,376.71C663.865,376.587 664.09,376.801 664.241,377.009C664.289,377.003 664.384,376.995 664.431,376.99C664.229,376.804 664.037,376.61 663.872,376.389C663.854,376.391 663.818,376.392 663.802,376.392ZM656.557,375.909C656.425,376.04 656.361,376.22 656.339,376.399C656.495,376.374 656.69,376.444 656.825,376.342C656.832,376.172 656.757,375.917 656.557,375.909ZM663.672,374.679C663.411,374.772 663.213,374.974 663,375.143C662.703,375.399 662.375,375.618 662.101,375.899C661.767,376.241 661.381,376.527 661.076,376.896C660.183,377.784 659.284,378.668 658.343,379.506C658.242,379.618 658.089,379.711 658.088,379.876C658.063,380.025 658.05,380.205 657.897,380.282C657.785,380.272 657.68,380.247 657.574,380.221C657.085,380.767 656.457,381.172 655.989,381.733C655.45,381.964 655.065,382.417 654.656,382.817C654.172,383.296 653.702,383.79 653.197,384.249C652.834,384.604 652.541,385.022 652.182,385.384C651.728,385.93 651.204,386.417 650.783,386.991C650.64,387.198 650.384,387.44 650.543,387.708C650.797,387.612 650.967,387.391 651.165,387.218C651.356,387.026 651.596,386.89 651.782,386.694C652.055,386.392 652.38,386.149 652.678,385.874C653.826,384.921 654.829,383.812 655.909,382.786C656.373,382.251 656.951,381.826 657.38,381.261C657.763,380.837 658.169,380.433 658.613,380.074C659.031,379.565 659.587,379.201 660.041,378.726C660.632,378.19 661.263,377.7 661.845,377.153C662.278,376.717 662.745,376.315 663.197,375.901C663.448,375.663 663.657,375.235 664.06,375.28C664.325,375.324 664.271,375.661 664.466,375.794C665.088,376.377 665.671,376.999 666.29,377.585C667.286,378.442 668.107,379.476 668.976,380.46C669.392,380.991 669.896,381.441 670.401,381.886C670.757,382.184 670.972,382.61 671.313,382.925C671.951,383.523 672.553,384.163 673.066,384.872C673.396,385.35 673.768,385.803 674.2,386.193C674.271,386.173 674.342,386.151 674.414,386.132C674.566,386.423 674.728,386.712 674.918,386.981C675.229,387.425 675.446,387.932 675.826,388.325C675.942,388.37 676.133,388.415 676.206,388.274C676.281,388.104 676.187,387.927 676.112,387.774C676.411,387.988 676.615,388.307 676.858,388.579C676.849,388.331 676.829,388.067 676.697,387.848C676.366,387.253 675.883,386.765 675.413,386.28C675.005,385.873 674.734,385.356 674.372,384.913C673.825,384.261 673.204,383.675 672.561,383.119C671.505,382.067 670.424,381.04 669.406,379.952C669.002,379.456 668.523,379.032 668.05,378.607C667.665,378.165 667.26,377.743 666.88,377.298C666.298,376.596 665.764,375.857 665.188,375.15C665.003,374.921 664.802,374.698 664.679,374.427C664.311,374.317 663.998,374.566 663.672,374.679ZM663.763,373.731C664.069,373.61 664.417,373.444 664.747,373.585C665.015,373.707 665.354,373.716 665.532,373.983C666.477,375.151 667.338,376.389 668.367,377.487C669.535,378.851 670.732,380.189 672.026,381.432C672.575,381.995 673.138,382.545 673.691,383.102C673.966,383.333 674.154,383.642 674.396,383.906C674.939,384.503 675.274,385.262 675.861,385.824C676.207,386.278 676.68,386.624 676.979,387.115C677.142,387.333 677.236,387.593 677.386,387.818C677.712,387.948 678.073,387.966 678.396,388.109C679.053,388.319 679.683,388.617 680.255,389.003C680.936,389.371 681.662,389.756 682.064,390.448C682.428,391.106 681.903,392.073 681.123,392.025C681.032,392.079 680.942,392.134 680.856,392.188C680.862,393.472 680.851,394.759 680.851,396.044C680.842,396.364 680.871,396.688 680.813,397.005C680.789,397.417 680.871,397.863 680.697,398.251C679.966,398.999 679.109,399.61 678.308,400.283C677.815,400.639 677.386,401.075 676.882,401.417C676.269,401.874 675.668,402.354 675.152,402.921C675.119,404.964 675.14,407.01 675.114,409.052C675.061,410.674 675.09,412.296 675.065,413.917C675.432,413.72 675.844,413.825 676.217,413.944C676.734,414.022 677.263,414.014 677.784,414.05C677.903,414.092 678.107,414.139 678.063,414.311C678.042,414.477 677.828,414.462 677.708,414.506C677.533,414.768 677.205,414.825 676.915,414.837C676.641,414.837 676.356,414.894 676.096,414.786C675.954,414.706 675.953,414.522 675.908,414.387C675.467,414.257 675.223,414.7 674.881,414.872C674.679,414.948 674.523,414.794 674.392,414.666C674.055,414.525 673.673,414.932 673.358,414.657C673.271,414.945 672.915,414.897 672.709,414.769C672.505,414.677 672.389,414.441 672.159,414.403C672.125,414.503 672.132,414.639 672.007,414.665C671.796,414.704 671.572,414.675 671.385,414.79C671.126,414.923 670.854,414.807 670.628,414.677C670.011,414.573 669.371,414.663 668.795,414.897C668.357,415.016 667.749,415.042 667.474,414.614C667.577,414.45 667.713,414.31 667.922,414.317C667.924,414.311 667.929,414.298 667.93,414.292C667.46,414.333 666.897,414.241 666.527,414.6C665.919,414.682 665.354,414.965 664.739,415.022C664.375,415.01 664.131,414.696 663.777,414.653C663.429,414.564 663.104,414.765 662.777,414.852C662.423,414.85 662.065,414.815 661.731,414.695C661.408,414.56 661.056,414.71 660.787,414.893C660.54,415.093 660.208,415.01 659.923,415.091C659.65,415.151 659.433,414.903 659.44,414.643C659.2,414.651 658.946,414.489 658.931,414.235C658.908,412.733 658.9,411.229 658.888,409.727C658.972,408.989 658.797,408.241 658.948,407.504L658.873,407.471C658.827,406.561 658.875,405.645 658.852,404.733C658.559,404.595 658.234,404.538 657.952,404.38C657.854,404.167 658.123,404.166 658.259,404.198C658.469,404.243 658.668,404.325 658.878,404.378C659.108,404.45 659.206,404.15 659.221,403.971C658.99,403.826 658.771,403.665 658.543,403.512C658.417,403.424 658.321,403.286 658.159,403.268C658.042,403.503 657.91,403.745 657.915,404.014C657.929,404.579 657.91,405.144 657.938,405.708C658.116,405.946 658.477,405.947 658.749,406.009C658.752,406.062 658.759,406.171 658.763,406.223C658.492,406.293 658.229,406.2 657.975,406.118C657.995,408.596 657.95,411.073 657.988,413.55C658.092,413.45 658.183,413.294 658.352,413.315C658.533,413.376 658.653,413.553 658.735,413.718C658.787,414.011 658.781,414.313 658.755,414.61C658.758,414.786 658.603,414.955 658.423,414.944C658.18,414.968 658.062,414.657 657.817,414.702C657.584,414.737 657.312,414.624 657.306,414.36C657.202,414.376 657.102,414.393 657,414.409C656.631,414.216 656.316,414.61 655.947,414.575C655.772,414.554 655.624,414.622 655.489,414.721C655.26,414.775 655.095,414.58 654.894,414.52C654.544,414.559 654.191,414.544 653.841,414.546C653.602,414.538 653.467,414.316 653.294,414.184C653.229,414.393 653.218,414.705 652.948,414.753C652.7,414.88 652.416,414.68 652.378,414.426C652.092,414.699 651.753,414.368 651.429,414.429C651.222,414.44 650.864,414.427 650.923,414.127C650.842,414.114 650.764,414.1 650.688,414.089C650.56,413.973 650.442,413.766 650.24,413.85C649.714,413.889 649.392,414.365 648.919,414.532C648.716,414.618 648.498,414.745 648.271,414.686C648.073,414.64 647.944,414.471 647.785,414.362C647.314,414.3 646.87,414.564 646.401,414.515C646.204,414.51 646.063,414.333 645.998,414.165C646.062,414.03 646.176,413.907 646.317,413.856C646.635,413.819 646.967,413.79 647.274,413.895C647.504,413.95 647.686,414.108 647.902,414.192C648.377,413.996 648.883,413.884 649.349,413.661C649.689,413.495 650.078,413.511 650.447,413.528C650.64,413.556 650.8,413.423 650.986,413.395C651.396,413.286 651.829,413.335 652.239,413.227C652.236,410.96 652.238,408.692 652.244,406.425C652.233,404.669 652.292,402.913 652.251,401.157C652.236,397.477 652.236,393.798 652.227,390.118C652.221,389.878 652.23,389.605 652.449,389.456C652.481,388.838 652.466,388.22 652.494,387.602C652.154,387.761 651.921,388.061 651.63,388.286C651.4,388.469 651.233,388.792 650.901,388.782C650.241,388.707 649.64,388.091 649.675,387.409C649.813,386.657 650.412,386.13 650.878,385.565C651.408,385.018 651.89,384.426 652.385,383.845C652.963,383.319 653.504,382.757 654.061,382.208C654.426,381.794 654.87,381.464 655.299,381.12C655.338,380.284 655.309,379.444 655.315,378.604C655.257,378.106 655.271,377.599 655.329,377.1C655.393,376.524 655.25,375.928 655.423,375.368C655.588,375.247 655.773,375.343 655.922,375.442C655.824,375.345 655.694,375.224 655.747,375.073C655.777,374.887 656.003,374.85 656.157,374.887C656.615,374.979 657.052,375.159 657.519,375.219C657.757,375.209 657.753,375.518 657.953,375.589C658.114,375.649 658.102,375.841 658.114,375.981C658.146,376.835 658.088,377.689 658.145,378.542C658.631,378.106 659.092,377.645 659.559,377.188C660.13,376.708 660.572,376.093 661.156,375.624C661.688,375.099 662.266,374.626 662.857,374.173C663.12,373.958 663.457,373.868 663.763,373.731Z" style="fill:white;fill-rule:nonzero;"/>
    </g>
    <g transform="matrix(4.16667,0,0,4.16667,-2661.61,-1542.98)">
        <path d="M662.884,377.895C663.214,377.811 663.571,377.87 663.913,377.856C664.125,377.825 664.182,378.157 663.986,378.222C663.762,378.248 663.534,378.233 663.31,378.235C663.143,378.229 662.946,378.259 662.818,378.124C662.697,378.054 662.798,377.936 662.884,377.895Z" style="fill:white;fill-rule:nonzero;"/>
    </g>
    <g transform="matrix(4.16667,0,0,4.16667,-2661.61,-1542.98)">
        <path d="M662.669,379.502C662.66,379.171 663.36,379.157 663.289,379.544C663.413,379.545 663.541,379.545 663.668,379.545C663.644,379.566 663.597,379.608 663.572,379.631C663.459,379.621 663.351,379.605 663.244,379.573C663.063,379.581 662.779,379.695 662.669,379.502Z" style="fill:white;fill-rule:nonzero;"/>
    </g>
    <g transform="matrix(4.16667,0,0,4.16667,-2661.61,-1542.98)">
        <path d="M663.109,381.772C662.994,382.111 662.795,382.465 662.873,382.833C663.048,383.198 663.366,383.482 663.716,383.678C664.163,383.921 664.708,383.735 665.116,383.498C665.32,383.395 665.388,383.171 665.492,382.984C665.817,382.845 665.889,382.455 665.938,382.141C666.011,381.796 665.841,381.446 665.578,381.227C665.25,380.979 664.847,380.837 664.438,380.808C663.847,380.815 663.314,381.226 663.109,381.772ZM662.685,380.564C662.938,380.164 663.397,379.952 663.846,379.859C664.515,379.788 665.165,380.064 665.719,380.419C665.961,380.565 666.123,380.804 666.307,381.014C666.493,381.028 666.682,381.05 666.866,381.087C666.909,381.313 666.689,381.294 666.538,381.3C666.655,381.617 666.747,381.958 666.673,382.3C666.487,382.999 666.146,383.655 665.675,384.202C665.319,384.505 664.829,384.639 664.369,384.593C663.952,384.57 663.566,384.396 663.165,384.298C662.678,384.187 662.249,383.776 662.182,383.27C662.128,382.985 662.034,382.706 662.015,382.415C661.869,382.403 661.728,382.368 661.598,382.304C661.661,382.125 661.864,382.122 662.015,382.061C662.144,381.527 662.354,381.008 662.685,380.564Z" style="fill:white;fill-rule:nonzero;"/>
    </g>
    <g transform="matrix(4.16667,0,0,4.16667,-2661.61,-1542.98)">
        <path d="M657.775,383.304C658.038,383.245 658.314,383.255 658.581,383.289C658.695,383.286 658.8,383.503 658.639,383.518C658.321,383.597 657.978,383.583 657.663,383.497C657.644,383.399 657.683,383.335 657.775,383.304Z" style="fill:white;fill-rule:nonzero;"/>
    </g>
    <g transform="matrix(4.16667,0,0,4.16667,-2661.61,-1542.98)">
        <path d="M665.894,384.361C666.028,384.333 666.171,384.337 666.312,384.348C666.405,384.365 666.563,384.39 666.518,384.524C666.288,384.596 666.04,384.55 665.809,384.512C665.788,384.432 665.817,384.382 665.894,384.361Z" style="fill:white;fill-rule:nonzero;"/>
    </g>
    <g transform="matrix(4.16667,0,0,4.16667,-2661.61,-1542.98)">
        <path d="M662.106,384.659C662.549,384.579 663.008,384.587 663.456,384.62C663.419,384.871 663.044,384.775 662.859,384.8C662.62,384.762 662.26,384.894 662.106,384.659Z" style="fill:white;fill-rule:nonzero;"/>
    </g>
    <g transform="matrix(4.16667,0,0,4.16667,-2661.61,-1542.98)">
        <path d="M656.927,384.794C657.171,384.747 657.423,384.778 657.671,384.769C657.875,384.766 658.122,384.761 658.271,384.927C658.267,385.116 657.974,385.15 657.822,385.151C657.471,385.122 657.089,385.224 656.763,385.064C656.663,384.929 656.792,384.811 656.927,384.794Z" style="fill:white;fill-rule:nonzero;"/>
    </g>
    <g transform="matrix(4.16667,0,0,4.16667,-2661.61,-1542.98)">
        <path d="M670.006,384.884C670.154,384.843 670.312,384.801 670.467,384.845C670.409,385.04 670.046,385.124 670.006,384.884Z" style="fill:white;fill-rule:nonzero;"/>
    </g>
    <g transform="matrix(4.16667,0,0,4.16667,-2661.61,-1542.98)">
        <path d="M661.277,388.43C661.339,388.225 661.628,388.366 661.79,388.324C661.789,388.35 661.785,388.401 661.782,388.427C661.612,388.429 661.444,388.432 661.277,388.43Z" style="fill:white;fill-rule:nonzero;"/>
    </g>
    <g transform="matrix(4.16667,0,0,4.16667,-2661.61,-1542.98)">
        <path d="M656.298,388.681C656.728,388.634 657.177,388.588 657.603,388.679C657.693,388.835 657.481,388.899 657.373,388.927C657.015,388.982 656.647,388.967 656.291,388.917C656.292,388.858 656.297,388.741 656.298,388.681Z" style="fill:white;fill-rule:nonzero;"/>
    </g>
    <g transform="matrix(4.16667,0,0,4.16667,-2661.61,-1542.98)">
        <path d="M671.002,389.911C671.105,389.798 671.29,389.848 671.428,389.858C671.82,389.935 672.231,389.864 672.62,389.973C672.778,390.17 672.461,390.218 672.323,390.209C671.879,390.169 671.412,390.182 670.992,390.011C670.995,389.985 671.001,389.935 671.002,389.911Z" style="fill:white;fill-rule:nonzero;"/>
    </g>
    <g transform="matrix(4.16667,0,0,4.16667,-2661.61,-1542.98)">
        <path d="M655.563,390.177C655.824,390.141 656.098,390.096 656.36,390.164L656.392,390.257C656.376,390.29 656.343,390.358 656.326,390.391C656.105,390.462 655.869,390.468 655.642,390.501C655.491,390.523 655.277,390.514 655.226,390.341C655.238,390.179 655.447,390.218 655.563,390.177Z" style="fill:white;fill-rule:nonzero;"/>
    </g>
    <g transform="matrix(4.16667,0,0,4.16667,-2661.61,-1542.98)">
        <path d="M670.702,391.587C670.999,391.573 671.282,391.694 671.581,391.702C671.756,391.735 672.015,391.676 672.105,391.878C671.662,391.983 671.212,391.829 670.784,391.72C670.765,391.686 670.724,391.62 670.702,391.587Z" style="fill:white;fill-rule:nonzero;"/>
    </g>
    <g transform="matrix(4.16667,0,0,4.16667,-2661.61,-1542.98)">
        <path d="M677.032,392.974C677.086,393.546 677.049,394.121 677.136,394.688C677.506,394.831 677.911,394.807 678.302,394.814C678.534,394.291 678.543,393.716 678.541,393.151C678.044,393.036 677.527,393.093 677.032,392.974ZM676.915,392.425C677.032,392.31 677.183,392.208 677.358,392.257C677.844,392.343 678.349,392.319 678.821,392.471C679.132,392.552 679.317,392.885 679.297,393.193C679.285,393.822 679.25,394.471 679.015,395.064C678.899,395.356 678.595,395.595 678.269,395.539C677.707,395.501 677.046,395.55 676.609,395.129C676.315,394.772 676.461,394.287 676.427,393.867C676.452,393.417 676.346,392.962 676.411,392.516C676.471,392.272 676.747,392.341 676.915,392.425Z" style="fill:white;fill-rule:nonzero;"/>
    </g>
    <g transform="matrix(4.16667,0,0,4.16667,-2661.61,-1542.98)">
        <path d="M655.344,392.622C655.7,392.475 656.094,392.514 656.472,392.516C656.562,392.505 656.706,392.546 656.678,392.667C656.647,392.837 656.44,392.768 656.321,392.786C655.994,392.762 655.612,392.859 655.344,392.622Z" style="fill:white;fill-rule:nonzero;"/>
    </g>
    <g transform="matrix(4.16667,0,0,4.16667,-2661.61,-1542.98)">
        <path d="M670.132,392.897C670.193,392.743 670.377,392.751 670.512,392.789C670.748,392.85 671.023,392.859 671.2,393.055C671.071,393.27 670.809,393.231 670.606,393.174C670.433,393.126 670.168,393.12 670.132,392.897Z" style="fill:white;fill-rule:nonzero;"/>
    </g>
    <g transform="matrix(4.16667,0,0,4.16667,-2661.61,-1542.98)">
        <path d="M672.737,393.372C672.968,393.206 673.313,393.165 673.566,393.302C673.712,393.395 673.572,393.514 673.507,393.604C673.293,393.591 673.067,393.634 672.869,393.542C672.799,393.505 672.686,393.471 672.737,393.372Z" style="fill:white;fill-rule:nonzero;"/>
    </g>
    <g transform="matrix(4.16667,0,0,4.16667,-2661.61,-1542.98)">
        <path d="M671.227,394.811C671.467,394.788 671.714,394.798 671.948,394.864C672.095,394.958 671.934,395.105 671.811,395.094C671.545,395.108 671.24,395.169 671.009,395.001C670.979,394.87 671.127,394.827 671.227,394.811Z" style="fill:white;fill-rule:nonzero;"/>
    </g>
    <g transform="matrix(4.16667,0,0,4.16667,-2661.61,-1542.98)">
        <path d="M654.34,394.987C654.65,395.007 654.946,395.119 655.253,395.175C655.485,395.235 655.759,395.245 655.943,395.424C655.405,395.589 654.866,395.314 654.341,395.214C654.341,395.157 654.34,395.044 654.34,394.987Z" style="fill:white;fill-rule:nonzero;"/>
    </g>
    <g transform="matrix(4.16667,0,0,4.16667,-2661.61,-1542.98)">
        <path d="M654.904,396.667C655.347,396.572 655.812,396.586 656.258,396.656C656.351,396.672 656.47,396.679 656.521,396.778C656.271,396.905 655.981,396.91 655.712,396.962C655.404,396.986 655.101,397.07 654.792,397.035C654.776,396.909 654.729,396.707 654.904,396.667Z" style="fill:white;fill-rule:nonzero;"/>
    </g>
    <g transform="matrix(4.16667,0,0,4.16667,-2661.61,-1542.98)">
        <path d="M672.503,396.679C672.835,396.62 673.183,396.565 673.521,396.624C673.681,396.665 673.624,396.938 673.463,396.936C673.034,396.964 672.605,397.009 672.176,396.983C672.074,396.999 671.989,396.845 672.095,396.788C672.224,396.731 672.363,396.711 672.503,396.679Z" style="fill:white;fill-rule:nonzero;"/>
    </g>
    <g transform="matrix(4.16667,0,0,4.16667,-2661.61,-1542.98)">
        <path d="M656.426,400.376C656.788,400.334 657.156,400.368 657.523,400.354C657.713,400.366 657.929,400.319 658.1,400.432C658.162,400.563 657.972,400.565 657.896,400.561C657.443,400.555 656.989,400.563 656.537,400.558C656.436,400.573 656.241,400.418 656.426,400.376Z" style="fill:white;fill-rule:nonzero;"/>
    </g>
    <g transform="matrix(4.16667,0,0,4.16667,-2661.61,-1542.98)">
        <path d="M669.703,400.886C670.258,400.886 670.815,400.659 671.364,400.819C671.288,400.964 671.118,401.013 670.968,401.028C670.253,401.069 669.544,401.19 668.823,401.194C668.782,401.152 668.75,401.104 668.724,401.053C669.042,400.96 669.369,400.886 669.703,400.886Z" style="fill:white;fill-rule:nonzero;"/>
    </g>
    <g transform="matrix(4.16667,0,0,4.16667,-2661.61,-1542.98)">
        <path d="M656.201,401.427C656.367,401.419 656.723,401.342 656.747,401.576C656.383,401.771 655.941,401.645 655.571,401.821C655.469,401.868 655.304,401.893 655.254,401.765C655.259,401.624 655.407,401.601 655.515,401.561C655.737,401.489 655.969,401.457 656.201,401.427Z" style="fill:white;fill-rule:nonzero;"/>
    </g>
    <g transform="matrix(4.16667,0,0,4.16667,-2661.61,-1542.98)">
        <path d="M671.343,402.336C672.099,402.474 672.858,402.331 673.606,402.243C673.522,402.427 673.292,402.449 673.12,402.491C672.52,402.584 671.901,402.57 671.303,402.47C671.179,402.48 671.21,402.251 671.343,402.336Z" style="fill:white;fill-rule:nonzero;"/>
    </g>
    <g transform="matrix(4.16667,0,0,4.16667,-2661.61,-1542.98)">
        <path d="M654.476,403.71C654.561,403.523 654.789,403.522 654.965,403.514C655.255,403.52 655.563,403.481 655.838,403.598C655.921,403.762 655.673,403.8 655.565,403.809C655.202,403.806 654.813,403.882 654.476,403.71Z" style="fill:white;fill-rule:nonzero;"/>
    </g>
    <g transform="matrix(4.16667,0,0,4.16667,-2661.61,-1542.98)">
        <path d="M663.771,403.717C664.462,403.634 665.165,403.697 665.863,403.677C666.269,403.698 666.7,403.598 667.084,403.774C667.096,403.937 667.07,404.179 666.853,404.173C665.972,404.195 665.089,404.175 664.206,404.181C663.479,404.118 662.749,404.12 662.021,404.085C661.606,404.1 661.188,404.12 660.776,404.055C660.603,403.971 660.728,403.712 660.907,403.764C661.862,403.767 662.815,403.721 663.771,403.717Z" style="fill:white;fill-rule:nonzero;"/>
    </g>
    <g transform="matrix(4.16667,0,0,4.16667,-2661.61,-1542.98)">
        <path d="M671.454,403.902C672.165,403.776 672.893,403.809 673.613,403.8C673.695,403.774 673.792,403.901 673.71,403.961C673.643,404.005 673.572,404.032 673.497,404.044C672.842,404.087 672.186,404.016 671.531,403.977C671.512,403.958 671.473,403.921 671.454,403.902Z" style="fill:white;fill-rule:nonzero;"/>
    </g>
    <g transform="matrix(4.16667,0,0,4.16667,-2661.61,-1542.98)">
        <path d="M655.193,405.205C655.709,405.177 656.237,405.135 656.746,405.249C656.876,405.44 656.591,405.464 656.462,405.475C655.866,405.466 655.26,405.536 654.674,405.399C654.745,405.179 655.014,405.237 655.193,405.205Z" style="fill:white;fill-rule:nonzero;"/>
    </g>
    <g transform="matrix(4.16667,0,0,4.16667,-2661.61,-1542.98)">
        <path d="M670.905,405.345C671.176,405.186 671.502,405.257 671.801,405.229C672.215,405.237 672.629,405.132 673.043,405.199C673.012,405.403 672.774,405.362 672.63,405.411C672.229,405.501 671.819,405.425 671.416,405.423C671.242,405.411 671.061,405.433 670.905,405.345Z" style="fill:white;fill-rule:nonzero;"/>
    </g>
    <g transform="matrix(4.16667,0,0,4.16667,-2661.61,-1542.98)">
        <path d="M668.78,405.743C668.723,405.594 668.743,405.387 668.941,405.376C669.091,405.37 669.438,405.261 669.422,405.512C669.339,405.763 669,405.77 668.78,405.743Z" style="fill:white;fill-rule:nonzero;"/>
    </g>
    <g transform="matrix(4.16667,0,0,4.16667,-2661.61,-1542.98)">
        <path d="M660.417,405.928C660.499,405.868 660.587,405.719 660.708,405.813C660.778,406.036 660.704,406.268 660.706,406.497C660.683,406.729 660.777,406.948 660.797,407.177C660.827,408.352 660.862,409.528 660.849,410.704C660.818,411.563 660.943,412.452 660.674,413.284C660.413,413.209 660.449,412.866 660.417,412.651C660.384,410.798 660.424,408.942 660.412,407.089C660.322,406.704 660.38,406.313 660.417,405.928Z" style="fill:white;fill-rule:nonzero;"/>
    </g>
    <g transform="matrix(4.16667,0,0,4.16667,-2661.61,-1542.98)">
        <path d="M663.808,405.87C663.839,405.747 664.043,405.767 664.072,405.888C664.125,406.137 663.993,406.386 664.042,406.636C664.146,407.159 664.101,407.694 664.112,408.225C664.112,409.554 664.118,410.882 664.097,412.211C664.086,412.532 664.124,412.858 664.051,413.175C663.95,413.163 663.791,413.179 663.798,413.036C663.756,411.057 663.782,409.077 663.773,407.099C663.72,406.694 663.659,406.264 663.808,405.87Z" style="fill:white;fill-rule:nonzero;"/>
    </g>
    <g transform="matrix(4.16667,0,0,4.16667,-2661.61,-1542.98)">
        <path d="M666.455,406.194C666.386,405.973 666.72,405.732 666.896,405.915C667.047,406.063 667.035,406.296 667.06,406.492C667.105,407.52 666.997,408.548 667.012,409.577C666.997,410.832 667.007,412.086 667.004,413.341C667.019,413.505 666.894,413.623 666.771,413.71C666.682,413.632 666.541,413.565 666.56,413.423C666.537,412.366 666.566,411.309 666.547,410.251C666.476,409.401 666.515,408.547 666.498,407.694C666.486,407.195 666.53,406.691 666.455,406.194Z" style="fill:white;fill-rule:nonzero;"/>
    </g>
    <g transform="matrix(4.16667,0,0,4.16667,-2661.61,-1542.98)">
        <path d="M671.405,405.958C671.813,405.901 672.229,405.947 672.638,405.877C672.812,405.844 672.983,405.886 673.156,405.919C673.114,406.104 672.911,406.149 672.755,406.187C672.343,406.267 671.916,406.322 671.497,406.264C671.352,406.223 671.399,406.067 671.405,405.958Z" style="fill:white;fill-rule:nonzero;"/>
    </g>
    <g transform="matrix(4.16667,0,0,4.16667,-2661.61,-1542.98)">
        <path d="M661.235,406.419C661.253,406.277 661.229,406.003 661.42,405.985C661.586,406.253 661.516,406.577 661.561,406.875C661.616,407.22 661.598,407.574 661.604,407.924C661.608,409.727 661.766,411.537 661.587,413.338C661.563,413.467 661.451,413.547 661.356,413.62C661.146,413.376 661.151,413.042 661.153,412.738C661.144,411.357 661.15,409.977 661.158,408.598C661.15,407.872 661.233,407.147 661.235,406.419Z" style="fill:white;fill-rule:nonzero;"/>
    </g>
    <g transform="matrix(4.16667,0,0,4.16667,-2661.61,-1542.98)">
        <path d="M662.773,406.093C662.835,406.089 662.96,406.082 663.022,406.077C663.108,406.839 663.1,407.61 663.104,408.378L663.104,412.288C663.117,412.612 663.079,412.939 663.004,413.255C662.965,413.259 662.888,413.264 662.849,413.267C662.793,412.994 662.753,412.716 662.757,412.435C662.764,410.321 662.739,408.206 662.773,406.093Z" style="fill:white;fill-rule:nonzero;"/>
    </g>
    <g transform="matrix(4.16667,0,0,4.16667,-2661.61,-1542.98)">
        <path d="M665.008,409.874C665.112,408.905 665.059,407.927 665.068,406.952C665.219,407.413 665.114,407.901 665.15,408.376C665.136,409.554 665.229,410.728 665.216,411.906C665.204,412.454 665.27,413.011 665.189,413.552C664.997,413.671 664.966,413.387 664.975,413.264C664.975,412.134 665.014,411.005 665.008,409.874Z" style="fill:white;fill-rule:nonzero;"/>
    </g>
    <g transform="matrix(4.16667,0,0,4.16667,-2661.61,-1542.98)">
        <path d="M656.242,407.114C656.483,407.089 656.786,406.951 656.992,407.144C656.792,407.334 656.501,407.269 656.253,407.314C655.877,407.382 655.494,407.36 655.115,407.354C654.995,407.35 654.825,407.349 654.814,407.195C655.287,407.128 655.768,407.151 656.242,407.114Z" style="fill:white;fill-rule:nonzero;"/>
    </g>
    <g transform="matrix(4.16667,0,0,4.16667,-2661.61,-1542.98)">
        <path d="M658.049,407.549L658.081,407.49C658.342,407.493 658.604,407.504 658.866,407.485C658.87,407.58 658.875,407.677 658.881,407.773C658.601,407.779 658.268,407.882 658.028,407.688C658.034,407.654 658.044,407.584 658.049,407.549Z" style="fill:white;fill-rule:nonzero;"/>
    </g>
    <g transform="matrix(4.16667,0,0,4.16667,-2661.61,-1542.98)">
        <path d="M658.075,409.048C658.31,408.8 658.666,408.958 658.912,409.101C658.847,409.167 658.798,409.311 658.684,409.259C658.482,409.177 658.232,409.214 658.075,409.048Z" style="fill:white;fill-rule:nonzero;"/>
    </g>
    <g transform="matrix(4.16667,0,0,4.16667,-2661.61,-1542.98)">
        <path d="M658.187,410.543C658.071,410.417 658.237,410.319 658.351,410.311C658.576,410.393 658.911,410.503 658.826,410.812C658.582,410.825 658.372,410.68 658.187,410.543Z" style="fill:white;fill-rule:nonzero;"/>
    </g>
    <g transform="matrix(4.16667,0,0,4.16667,-2661.61,-1542.98)">
        <path d="M655.071,411.075C655.34,410.86 655.696,410.942 656.013,410.93C656.373,410.94 656.735,410.819 657.094,410.922C657.063,411.155 656.808,411.202 656.618,411.235C656.268,411.28 655.914,411.259 655.564,411.262C655.385,411.264 655.176,411.243 655.071,411.075Z" style="fill:white;fill-rule:nonzero;"/>
    </g>
    <g transform="matrix(4.16667,0,0,4.16667,-2661.61,-1542.98)">
        <path d="M671.8,411.113C671.99,410.958 672.254,411.047 672.479,411.027C672.703,411.048 672.959,410.975 673.159,411.11C672.708,411.147 672.251,411.145 671.8,411.113Z" style="fill:white;fill-rule:nonzero;"/>
    </g>
    <g transform="matrix(4.16667,0,0,4.16667,-2661.61,-1542.98)">
        <path d="M654.537,412.692C655.438,412.564 656.356,412.587 657.263,412.628C657.26,412.671 657.254,412.757 657.25,412.802C656.643,413.039 655.979,412.921 655.347,412.985C655.089,412.991 654.836,413.029 654.581,413.055C654.365,413.074 654.316,412.712 654.537,412.692Z" style="fill:white;fill-rule:nonzero;"/>
    </g>
    <g transform="matrix(4.16667,0,0,4.16667,-2661.61,-1542.98)">
        <path d="M671.11,412.946C671.269,412.776 671.518,412.814 671.729,412.809C672.471,412.844 673.216,412.769 673.958,412.786C673.926,412.918 673.781,412.929 673.681,412.971C672.894,413.158 672.085,413.272 671.276,413.2C671.16,413.204 671.001,413.055 671.11,412.946Z" style="fill:white;fill-rule:nonzero;"/>
    </g>
    <g transform="matrix(4.16667,0,0,4.16667,-2661.61,-1542.98)">
        <path d="M670.468,413.587C670.604,413.456 670.887,413.588 670.858,413.786C670.899,414.044 670.503,414.134 670.399,413.916C670.305,413.805 670.374,413.668 670.468,413.587Z" style="fill:white;fill-rule:nonzero;"/>
    </g>
    <g transform="matrix(4.16667,0,0,4.16667,-2661.61,-1542.98)">
        <path d="M643.548,413.792C643.777,413.739 644.022,413.822 644.26,413.836C644.444,413.842 644.541,414.075 644.42,414.214C644.128,414.374 643.7,414.425 643.447,414.169C643.341,414.05 643.398,413.845 643.548,413.792Z" style="fill:white;fill-rule:nonzero;"/>
    </g>
    <g transform="matrix(4.16667,0,0,4.16667,-2661.61,-1542.98)">
        <path d="M678.721,414.095C679.018,413.96 679.365,413.951 679.639,413.758C679.875,413.651 680.073,413.864 680.103,414.089C680.034,414.22 679.997,414.396 679.84,414.446C679.636,414.509 679.432,414.569 679.234,414.647C679.024,414.73 678.742,414.677 678.642,414.458C678.543,414.339 678.678,414.206 678.721,414.095Z" style="fill:white;fill-rule:nonzero;"/>
    </g>
    <g transform="matrix(4.16667,0,0,4.16667,-2661.61,-1542.98)">
        <path d="M680.547,414.458C680.763,414.089 681.281,413.921 681.646,414.165C681.814,414.268 681.808,414.571 681.574,414.579C681.274,414.618 680.979,414.8 680.677,414.695C680.633,414.614 680.589,414.535 680.547,414.458Z" style="fill:white;fill-rule:nonzero;"/>
    </g>
</svg>
