<?xml version="1.0" encoding="UTF-8" standalone="no"?>
<!DOCTYPE svg PUBLIC "-//W3C//DTD SVG 1.1//EN" "http://www.w3.org/Graphics/SVG/1.1/DTD/svg11.dtd">
<svg width="100%" height="100%" viewBox="0 0 200 200" version="1.1" xmlns="http://www.w3.org/2000/svg" xmlns:xlink="http://www.w3.org/1999/xlink" xml:space="preserve" xmlns:serif="http://www.serif.com/" style="fill-rule:evenodd;clip-rule:evenodd;stroke-linejoin:round;stroke-miterlimit:2;">
    <g transform="matrix(2.85052,0,0,2.85052,-2201.38,30.4885)">
        <path d="M790.202,38.748C790.58,39.463 791.011,40.203 791.069,41.028C791.721,40.961 792.368,40.834 793.021,40.79C793.018,40.772 793.012,40.737 793.008,40.719C793.4,40.727 793.802,40.688 794.185,40.801C794.495,40.825 794.784,41.024 795.101,40.963C796.01,40.749 796.954,40.887 797.862,41.047C798.337,41.127 798.834,41.166 799.271,41.389C799.63,41.545 799.963,41.78 800.358,41.836C800.686,41.877 801.047,41.872 801.326,41.674C802.009,41.281 802.767,40.844 803.585,40.996C804.026,41.1 804.475,41.179 804.923,41.256C805.812,41.406 806.649,41.823 807.562,41.85C808.016,41.83 808.485,41.907 808.921,41.746C809.646,41.465 810.342,41.115 811.017,40.73C811.312,40.598 811.579,40.386 811.908,40.345C811.78,40.319 811.62,40.345 811.543,40.223C811.454,40.117 811.596,40.011 811.693,40.01C812.021,40 812.356,39.969 812.678,40.047C812.95,40.1 813.231,40.017 813.504,40.09C814.051,40.227 814.606,40.344 815.139,40.537C815.555,40.64 815.955,40.787 816.335,40.987C816.737,41.106 817.123,41.281 817.538,41.36C818.289,41.484 819.058,41.352 819.771,41.109C819.594,40.973 819.793,40.789 819.926,40.723C820.237,40.707 820.546,40.803 820.86,40.785C821.439,40.721 822.026,40.785 822.597,40.897C823.366,41.106 824.1,41.537 824.921,41.489C825.364,41.538 825.816,41.514 826.255,41.614C826.44,41.676 826.508,41.401 826.688,41.401C827.354,41.346 828.021,41.293 828.688,41.244C829.192,41.262 829.717,41.141 830.202,41.33C830.401,41.311 830.535,41.115 830.696,41.009C829.302,41.014 827.901,40.942 826.511,41.063C825.884,41.037 825.256,40.971 824.628,41.01C824.181,41.004 823.72,41.093 823.289,40.948C823.916,40.97 824.53,40.825 825.156,40.804C825.485,40.809 825.8,40.684 826.131,40.704C827.673,40.49 829.233,40.418 830.79,40.412C831.055,40.375 831.358,40.448 831.583,40.266C831.904,40.035 832.098,39.67 832.422,39.44C831.952,39.475 831.471,39.522 830.997,39.557C830.187,39.696 829.359,39.655 828.545,39.764C827.962,39.774 827.383,39.828 826.804,39.896C826.425,39.899 826.062,40.031 825.682,40.011C824.229,40.112 822.769,40.074 821.312,40.08C820.563,40.071 819.812,40.14 819.061,40.072C817.938,39.977 816.81,39.973 815.683,39.976C814.577,39.998 813.477,39.824 812.372,39.856C811.653,39.832 810.929,39.914 810.22,39.781C809.462,39.703 808.701,39.697 807.941,39.703C807.085,39.733 806.236,39.603 805.384,39.541C804.557,39.467 803.716,39.582 802.899,39.387C802.194,39.186 801.455,39.267 800.734,39.198C800.478,39.172 800.221,39.19 799.966,39.16C799.493,39.076 799.009,39.115 798.536,39.022C798.096,38.93 797.643,38.958 797.196,38.914C796.595,38.863 795.99,38.91 795.388,38.891C795.032,38.85 794.675,38.811 794.32,38.759C793.425,38.748 792.526,38.773 791.631,38.748C791.155,38.791 790.678,38.749 790.202,38.748ZM787.746,35.82C788.545,36.461 789.208,37.258 789.787,38.101C789.852,37.867 790.098,37.678 790.344,37.742C790.819,37.848 791.314,37.855 791.774,38.024C792.145,38.127 792.534,38.111 792.915,38.133C793.62,38.14 794.314,38.274 795.012,38.367C795.586,38.395 796.163,38.415 796.735,38.369C797.639,38.188 798.544,38.461 799.448,38.479C800.099,38.533 800.746,38.619 801.4,38.612C802.133,38.588 802.854,38.746 803.573,38.86C804.564,38.933 805.563,38.811 806.553,38.923C807.511,39.067 808.483,38.926 809.444,39.028C809.971,39.024 810.489,39.145 811.015,39.135C812.019,39.135 813.021,39.135 814.023,39.192C815.85,39.324 817.687,39.177 819.508,39.369C821.591,39.35 823.677,39.414 825.756,39.289C826.085,39.288 826.403,39.196 826.732,39.192C827.321,39.183 827.899,39.008 828.491,39.053C828.491,39.038 828.49,39.006 828.489,38.989C828.979,38.963 829.463,38.885 829.956,38.905C830.948,38.811 831.942,38.735 832.937,38.676C833.091,38.554 833.182,38.375 833.271,38.207C833.403,37.954 833.571,37.726 833.718,37.483C832.516,37.456 831.313,37.475 830.111,37.471C829.209,37.471 828.305,37.461 827.406,37.559C826.532,37.565 825.655,37.559 824.786,37.658C824.107,37.699 823.426,37.656 822.747,37.684C822.271,37.703 821.8,37.775 821.324,37.761C820.321,37.737 819.318,37.765 818.315,37.762C817.162,37.745 816.01,37.755 814.856,37.754C812.773,37.736 810.687,37.811 808.611,37.601C807.536,37.597 806.46,37.601 805.384,37.601C804.706,37.615 804.033,37.52 803.355,37.521C802.877,37.482 802.404,37.376 801.923,37.376C801.598,37.371 801.279,37.28 800.952,37.299C800.32,37.324 799.692,37.232 799.062,37.211C798.566,37.115 798.062,37.09 797.56,37.059C797.04,36.957 796.509,37.039 795.987,36.949C795.561,36.94 795.142,36.856 794.718,36.805C793.757,36.738 792.808,36.577 791.848,36.526C790.474,36.323 789.09,36.172 787.746,35.82ZM783.38,32.299C783.756,32.547 784.049,32.896 784.397,33.182C785.136,33.834 786,34.323 786.771,34.937C786.917,35.056 787.055,35.229 787.265,35.215C787.697,35.203 788.103,35.367 788.524,35.435C789.62,35.65 790.731,35.783 791.838,35.944C793.625,36.053 795.392,36.388 797.185,36.422C797.584,36.465 797.985,36.503 798.387,36.52C799.863,36.75 801.366,36.622 802.841,36.856C804.835,37.03 806.841,36.934 808.841,36.965C809.339,37.02 809.839,37.043 810.341,37.043C812.447,37.122 814.557,37.08 816.663,37.088C818.42,37.078 820.176,37.103 821.932,37.076C822.848,36.959 823.774,36.973 824.697,36.936C825.593,36.836 826.495,36.801 827.397,36.768C829.295,36.551 831.208,36.596 833.115,36.573C833.499,36.58 833.896,36.514 834.265,36.654C834.423,36.348 834.64,36.08 834.853,35.814C834.148,35.768 833.439,35.823 832.74,35.903C832.064,35.946 831.388,35.828 830.715,35.922C829.668,36.037 828.614,35.985 827.563,35.996C826.508,35.998 825.452,36.009 824.396,35.974C824.202,35.953 823.903,36.034 823.833,35.784C823.881,35.566 824.154,35.595 824.327,35.584C825.527,35.518 826.731,35.547 827.933,35.54C828.736,35.525 829.548,35.59 830.345,35.459C830.846,35.405 831.33,35.25 831.833,35.209C832.263,35.149 832.7,35.172 833.128,35.096C833.653,35.073 834.17,34.969 834.698,35C834.899,34.969 835.07,35.094 835.2,35.236C835.347,34.959 835.49,34.67 835.727,34.459C835.51,34.517 835.303,34.626 835.071,34.619C834.474,34.616 833.876,34.677 833.281,34.615C832.303,34.559 831.324,34.652 830.346,34.619C829.363,34.598 828.385,34.69 827.413,34.817C827.088,34.809 826.679,34.927 826.428,34.658C826.309,34.467 826.545,34.28 826.72,34.263C826.973,34.239 827.227,34.268 827.48,34.247C828.4,34.139 829.328,34.24 830.251,34.18C830.521,34.092 830.807,34.16 831.084,34.108C830.889,34.069 830.688,34.064 830.491,34.08C829.998,34.193 829.491,34.121 828.99,34.141C827.036,34.119 825.076,34.212 823.127,34.018C820.368,34.004 817.608,34.016 814.851,34.013C813.05,33.993 811.24,34.073 809.449,33.864C808.394,33.869 807.337,33.856 806.284,33.78C805.591,33.658 804.883,33.772 804.188,33.684C803.885,33.645 803.579,33.666 803.279,33.618C802.681,33.522 802.069,33.618 801.472,33.522C800.946,33.5 800.427,33.393 799.898,33.422C798.916,33.467 797.952,33.233 796.973,33.21C795.875,33.079 794.773,32.975 793.67,32.912C792.917,32.841 792.162,32.893 791.408,32.86C790.178,32.819 788.946,32.826 787.717,32.816C786.809,32.815 785.899,32.74 785.009,32.557C784.615,32.481 784.204,32.531 783.825,32.387C783.677,32.357 783.531,32.25 783.38,32.299ZM807.291,29.437C807.721,29.737 808.062,30.142 808.397,30.54C808.84,31.1 809.368,31.59 809.771,32.18C809.909,32.472 809.495,32.723 809.289,32.483C808.854,32.018 808.455,31.518 808.021,31.049C807.602,30.506 807.088,30.049 806.589,29.584C806.225,29.586 805.786,29.766 805.512,29.43C805.481,29.921 805.358,30.403 805.349,30.899C805.339,31.469 805.273,32.051 805.406,32.614C805.935,32.636 806.463,32.688 806.988,32.748C808.058,32.813 809.139,32.681 810.201,32.85C811.097,32.908 811.993,32.896 812.891,32.908C812.851,32.716 812.702,32.578 812.622,32.408C812.386,32.018 812.252,31.571 811.973,31.205C811.522,30.57 811.104,29.91 810.65,29.276C810.15,29.246 809.644,29.309 809.141,29.301C808.521,29.307 807.91,29.434 807.291,29.437ZM811.266,29.141C811.395,29.326 811.53,29.507 811.677,29.68C811.619,29.504 811.574,29.323 811.567,29.143C811.466,29.138 811.365,29.139 811.266,29.141ZM792.935,25.598C792.923,25.867 792.827,26.123 792.794,26.391C792.632,27.313 792.731,28.25 792.747,29.18C792.732,29.617 793.081,29.93 793.305,30.268C793.522,30.608 793.854,30.885 793.978,31.278C794.083,31.551 793.651,31.767 793.466,31.553C793.18,31.253 792.906,30.929 792.703,30.566C792.637,30.74 792.587,30.926 792.477,31.082C792.284,31.218 792.028,31.323 791.801,31.207C790.97,30.834 790.155,30.418 789.306,30.084C787.738,29.422 786.041,29.186 784.415,28.714C783.955,28.567 783.472,28.49 782.988,28.479C782.882,28.481 782.829,28.589 782.756,28.653C782.453,28.969 782.089,29.221 781.728,29.462C781.863,29.602 782.047,29.69 782.188,29.827C782.466,30.082 782.813,30.24 783.112,30.47C783.441,30.691 783.722,30.979 784.066,31.18C784.34,31.374 784.709,31.493 784.817,31.847C785.384,31.865 785.95,31.943 786.519,31.905C787.319,31.853 788.121,31.865 788.924,31.864C790.252,31.864 791.579,31.858 792.906,31.858C793.327,31.846 793.743,31.934 794.164,31.936C794.133,31.763 794.081,31.596 794.022,31.436C794.071,31.173 793.934,30.949 793.859,30.713C793.459,29.125 793.017,27.526 792.976,25.877C792.951,25.787 793.011,25.636 792.935,25.598ZM787.198,25.533C786.477,26.019 785.717,26.439 784.974,26.888C784.435,27.244 783.856,27.535 783.303,27.869C783.746,27.819 784.184,27.928 784.619,27.99C785.532,28.121 786.441,28.287 787.332,28.529C787.792,28.627 788.263,28.692 788.704,28.864C788.998,28.988 789.309,29.069 789.6,29.205C790.362,29.467 791.072,29.854 791.798,30.205C791.793,29.914 791.85,29.619 791.8,29.333C791.629,29.026 791.386,28.768 791.196,28.474C790.726,27.789 790.186,27.155 789.722,26.464C789.598,26.301 789.393,26.235 789.219,26.141C788.672,25.906 788.146,25.615 787.573,25.45C787.441,25.401 787.303,25.451 787.198,25.533ZM780.646,24.01C779.704,24.144 778.754,24.244 777.833,24.492C777.177,24.885 776.53,25.291 775.877,25.69C775.916,25.713 775.956,25.74 775.995,25.77C776.034,25.746 776.11,25.7 776.146,25.678C776.726,26.006 777.262,26.405 777.835,26.743C778.247,27.065 778.722,27.297 779.115,27.645C779.683,28.115 780.28,28.554 780.89,28.968C781.035,29.078 781.17,28.906 781.3,28.849C781.195,28.849 780.971,28.795 781.111,28.66C781.281,28.469 781.538,28.387 781.745,28.245C781.753,28.131 781.708,28.006 781.778,27.91C781.873,27.813 782.004,27.764 782.123,27.703C782.475,27.549 782.771,27.287 783.132,27.147C783.255,27.09 783.402,27.151 783.521,27.084C784.233,26.648 784.913,26.16 785.635,25.739C785.98,25.537 786.294,25.283 786.644,25.088C785.597,24.842 784.658,24.243 783.581,24.112C782.614,23.958 781.619,23.836 780.646,24.01ZM806.813,24.76C806.409,25.899 806.034,27.052 805.774,28.233C806.2,28.602 806.779,28.305 807.263,28.246C807.762,28.36 808.267,28.233 808.771,28.235C809.138,28.198 809.514,28.246 809.877,28.164C809.038,27.036 808.341,25.807 807.644,24.587C807.506,24.281 807.257,23.993 807.307,23.639C807.154,24.018 806.979,24.387 806.813,24.76ZM826.076,23.496C825.868,23.779 825.742,24.112 825.546,24.402C826.255,24.699 827.038,24.623 827.786,24.703C827.952,24.739 827.903,24.531 827.915,24.442C827.915,24.153 827.915,23.865 827.903,23.579C827.292,23.641 826.685,23.531 826.076,23.496ZM812.671,22.633C812.476,23.037 812.424,23.494 812.303,23.926C812.255,24.424 812.152,24.922 812.171,25.428C812.187,26.432 812.159,27.448 812.353,28.438C812.459,28.778 812.482,29.138 812.572,29.485C812.723,30.232 812.966,30.957 813.253,31.663C813.411,32.084 813.818,32.421 813.765,32.906C816.159,32.887 818.554,32.9 820.948,32.893C821.79,32.903 822.633,32.866 823.475,32.91C823.369,32.551 823.242,32.187 823.249,31.807C823.231,30.877 823.274,29.949 823.366,29.026C823.391,28.748 823.409,28.47 823.494,28.207C823.694,27.588 823.763,26.938 823.929,26.311C824.133,25.694 824.192,25.033 824.477,24.442C824.597,24.117 824.817,23.836 824.903,23.502C824.737,23.42 824.582,23.32 824.43,23.217C823.17,23.22 821.907,23.22 820.647,23.127C820.176,23.049 819.694,23.075 819.219,23.055C818.36,23.026 817.513,22.887 816.659,22.813C816.257,22.764 815.861,22.674 815.458,22.643C814.907,22.542 814.367,22.36 813.8,22.371C813.417,22.377 812.976,22.365 812.671,22.633ZM793.561,21.913C793.589,22.432 793.682,22.945 793.693,23.465C793.672,23.678 793.874,23.858 793.786,24.073C793.709,24.365 793.734,24.668 793.736,24.969C793.766,25.752 793.766,26.544 793.929,27.317C794.061,27.938 794.143,28.569 794.329,29.177C794.63,30.101 794.792,31.064 795.054,31.997C795.511,32.09 795.978,32.053 796.436,32.129C796.931,32.219 797.438,32.201 797.937,32.268C798.783,32.389 799.64,32.367 800.492,32.386C801.019,32.436 801.546,32.479 802.075,32.469C802.605,32.45 803.13,32.545 803.659,32.54C803.538,32.557 803.412,32.562 803.297,32.607C803.686,32.636 804.078,32.585 804.47,32.617C804.295,31.989 804.45,31.35 804.444,30.715L804.475,30.714C804.462,30.69 804.508,30.965 804.536,30.859C804.508,30.701 804.488,30.549 804.523,30.395C804.709,29.462 804.767,28.502 805.082,27.598C805.148,27.264 805.3,26.955 805.38,26.625C805.597,25.695 805.961,24.809 806.331,23.932C806.448,23.627 806.645,23.361 806.729,23.045C805.183,23.242 803.637,23.526 802.072,23.464C801.199,23.442 800.326,23.429 799.457,23.35C798.423,23.205 797.379,23.078 796.38,22.768C795.718,22.537 795.051,22.33 794.379,22.135C794.294,22.282 794.219,22.442 794.109,22.576C793.965,22.674 793.736,22.588 793.705,22.417C793.695,22.274 793.755,22.145 793.764,22.008C793.724,21.93 793.634,21.926 793.561,21.913ZM791.306,22.994C791.059,23.17 790.745,23.287 790.58,23.555C790.501,24.405 790.474,25.27 790.245,26.096C790.74,26.773 791.298,27.405 791.75,28.112C791.769,27.696 791.711,27.277 791.783,26.865C791.858,25.727 792.29,24.625 792.932,23.69C792.938,23.07 792.827,22.452 792.854,21.83C792.326,22.202 791.867,22.668 791.306,22.994ZM803.188,21.469C803.107,21.846 803.162,22.276 802.932,22.602C803.292,22.594 803.654,22.58 804.011,22.536C803.775,22.381 803.387,22.417 803.314,22.08C803.313,21.84 803.455,21.588 803.253,21.388C803.237,21.406 803.204,21.448 803.188,21.469ZM811.542,19.879C810.751,20.237 810.037,20.74 809.254,21.115C808.657,21.453 808.041,21.748 807.437,22.072C807.658,22.108 807.768,22.352 807.748,22.559C807.693,22.865 807.536,23.141 807.426,23.432C807.765,23.547 807.888,23.901 808.062,24.182C808.854,25.5 809.661,26.812 810.525,28.082C810.78,28.131 811.047,28.091 811.305,28.065C811.22,26.987 811.194,25.906 811.229,24.826C811.266,24.289 811.388,23.766 811.489,23.24C811.61,22.803 811.692,22.324 812.014,21.982C812.319,21.676 812.757,21.563 813.167,21.484C812.752,20.86 812.453,20.153 812.248,19.433C812.019,19.592 811.783,19.739 811.542,19.879ZM795.955,19.979C795.689,20.162 795.4,20.319 795.159,20.535C794.983,20.78 794.895,21.073 794.727,21.323C795.285,21.506 795.85,21.67 796.409,21.858C797.424,22.258 798.521,22.358 799.595,22.486C800.03,22.559 800.472,22.516 800.91,22.542C801.374,22.581 801.84,22.607 802.306,22.587C802.293,22.541 802.269,22.452 802.255,22.407C801.937,22.507 801.671,22.264 801.397,22.145C800.411,21.604 799.462,21.002 798.483,20.453C797.905,20.063 797.304,19.713 796.699,19.369C796.538,19.664 796.215,19.792 795.955,19.979ZM801.724,19.055C802.071,19.273 802.367,19.588 802.642,19.899C802.657,19.742 802.713,19.586 802.835,19.481C803.036,19.373 803.312,19.483 803.367,19.706C803.367,19.994 803.334,20.283 803.321,20.574C803.342,20.598 803.384,20.643 803.402,20.668C803.394,20.188 803.421,19.709 803.396,19.231C802.833,19.248 802.274,19.154 801.724,19.055ZM796.76,18.692C797.117,18.918 797.503,19.089 797.87,19.299C798.287,19.524 798.646,19.842 799.068,20.063C799.966,20.539 800.808,21.112 801.706,21.582C801.939,21.662 802.134,21.863 802.39,21.863C802.402,21.455 802.544,21.057 802.536,20.653C802.244,20.28 801.872,19.977 801.539,19.642C801.41,19.5 801.386,19.303 801.366,19.122C800.861,19.11 800.346,19.176 799.851,19.049C798.834,18.83 797.792,18.789 796.76,18.692ZM793.5,15.569C792.938,16.281 792.636,17.149 792.175,17.925C791.725,18.664 791.368,19.459 791.134,20.293C790.929,21.08 790.72,21.875 790.678,22.692C791.06,22.414 791.454,22.156 791.814,21.852C792.548,21.237 793.322,20.674 794.106,20.129C794.443,19.901 794.753,19.61 795.157,19.518C795.423,19.323 795.655,19.082 795.901,18.864C795.897,18.759 795.896,18.656 795.895,18.559C795.288,18.387 794.884,17.809 794.709,17.232C794.438,16.356 794.341,15.421 794.413,14.508C794.06,14.809 793.809,15.219 793.5,15.569ZM822.346,14.465C822.122,15.246 821.964,16.044 821.827,16.847C821.787,17.276 821.778,17.706 821.74,18.133C821.765,19.058 822.047,19.951 822.396,20.797C822.563,21.173 822.836,21.483 823.032,21.84C823.125,21.978 823.079,22.145 823.017,22.287C823.291,22.278 823.568,22.281 823.845,22.292C823.569,21.789 823.434,21.225 823.302,20.672C823.167,19.805 823.249,18.92 823.354,18.055C823.445,17.199 823.815,16.408 824.152,15.631C823.487,15.344 822.966,14.822 822.346,14.465ZM827.094,14.518C826.814,14.637 826.54,14.772 826.285,14.94C825.516,15.438 825.036,16.278 824.748,17.129C824.419,17.89 824.369,18.735 824.345,19.553C824.309,20.485 824.526,21.442 825.025,22.235C825.39,22.183 825.756,22.074 826.126,22.129C826.385,22.166 826.456,22.453 826.41,22.676C826.844,22.68 827.278,22.69 827.712,22.682C827.922,22.7 828.069,22.53 828.239,22.437C828.381,22.506 828.515,22.623 828.685,22.606C829.123,22.602 829.563,22.556 830.002,22.588C829.958,22.238 829.841,21.902 829.681,21.588C829.306,20.668 828.84,19.773 828.638,18.794C828.414,17.658 828.155,16.483 828.421,15.331C828.456,15.021 828.613,14.731 828.587,14.414C828.089,14.378 827.578,14.383 827.094,14.518ZM793.25,14.512C792.601,14.983 791.963,15.473 791.286,15.906C790.577,16.338 789.941,16.872 789.274,17.363C788.644,17.783 787.996,18.18 787.367,18.605C786.755,18.923 786.23,19.378 785.646,19.74C785.002,20.182 784.339,20.591 783.671,20.994C782.987,21.448 782.335,21.951 781.624,22.365C780.96,22.748 780.344,23.23 779.623,23.509C779.749,23.53 779.869,23.461 779.991,23.439C780.643,23.242 781.32,23.12 782.004,23.14C782.521,23.119 783.031,23.21 783.546,23.214C784.429,23.324 785.271,23.633 786.092,23.961C787.269,24.336 788.439,24.748 789.542,25.311C789.644,24.398 789.703,23.483 789.832,22.573C789.958,21.196 790.354,19.85 790.972,18.614C791.274,17.901 791.713,17.258 792.04,16.557C792.401,15.813 792.797,15.071 793.381,14.477C793.446,14.383 793.677,14.36 793.555,14.202C793.457,14.309 793.364,14.42 793.25,14.512ZM811.059,13.924C810.901,14.295 810.707,14.725 810.272,14.824C809.799,14.905 809.319,14.946 808.84,14.961C808.157,14.992 807.485,15.115 806.805,15.171C806.423,15.197 806.054,15.319 805.671,15.348C805.51,15.399 805.321,15.373 805.178,15.47C805.23,15.473 805.336,15.483 805.387,15.489C806.06,15.662 806.734,15.828 807.406,16.008C807.887,16.095 808.367,16.189 808.831,16.352C809.797,16.561 810.759,16.805 811.735,16.946C811.74,16.564 811.66,16.186 811.671,15.805C811.641,15.239 811.757,14.683 811.812,14.123C811.558,14.063 811.323,13.934 811.059,13.924ZM815.367,10.451C814.944,10.502 814.689,10.879 814.372,11.115C813.771,11.66 813.259,12.322 812.965,13.081C812.538,14.385 812.467,15.787 812.667,17.139C812.82,17.311 813.13,17.264 813.277,17.459C813.38,17.604 813.246,17.768 813.208,17.912C813.064,17.931 812.92,17.936 812.776,17.936C812.845,18.385 812.947,18.826 813.117,19.248C813.337,20.026 813.667,20.768 814.074,21.464C814.333,21.496 814.592,21.533 814.852,21.571C815.977,21.871 817.152,21.914 818.306,22.059C818.983,22.122 819.667,22.055 820.343,22.139C820.877,22.152 821.405,22.28 821.94,22.216C821.589,21.67 821.23,21.112 821.06,20.479C820.851,19.841 820.71,19.183 820.636,18.518C820.579,18.011 820.661,17.506 820.708,17.006C820.737,16.621 820.899,16.264 820.929,15.881C820.994,15.5 821.131,15.137 821.214,14.76C821.344,14.176 821.614,13.639 821.812,13.078C821.973,12.733 822.149,12.397 822.302,12.048C822.471,11.651 822.72,11.291 822.871,10.884C822.405,10.899 821.938,10.879 821.475,10.819C820.897,10.771 820.316,10.766 819.748,10.651C819.293,10.576 818.854,10.421 818.399,10.361C817.388,10.326 816.375,10.366 815.367,10.451ZM818.003,7.774C818.141,7.97 818.33,8.12 818.521,8.268L818.521,7.78C818.347,7.777 818.175,7.774 818.003,7.774ZM800.479,7.89C799.826,8.17 799.22,8.551 798.663,8.992C797.921,9.535 797.322,10.241 796.766,10.969C796.924,10.867 797.148,10.791 797.306,10.945C797.483,11.112 797.366,11.391 797.193,11.516C796.841,11.793 796.456,12.031 796.129,12.341C795.992,12.472 795.949,12.665 795.886,12.838C795.691,13.436 795.512,14.043 795.416,14.666C795.331,15.274 795.407,15.893 795.525,16.49C795.643,16.907 795.772,17.393 796.184,17.616C796.538,17.717 796.909,17.719 797.274,17.756C797.876,17.79 798.472,17.871 799.068,17.955C799.618,18.037 800.159,18.207 800.722,18.185C801.215,18.164 801.704,18.246 802.197,18.242C802.196,18.258 802.192,18.287 802.189,18.304C802.504,18.278 802.808,18.389 803.122,18.391C803.587,18.397 804.017,18.615 804.482,18.615C804.757,18.623 805.031,18.651 805.307,18.639C805.497,18.656 805.727,18.889 805.562,19.071C805.445,19.266 805.203,19.266 805.003,19.269C805.092,20.004 805.33,20.709 805.47,21.436C805.51,21.622 805.466,21.827 805.318,21.962C805.176,21.852 805.021,21.733 804.971,21.553C804.813,20.977 804.629,20.403 804.59,19.806C804.522,19.635 804.464,19.465 804.435,19.288C804.401,19.288 804.334,19.291 804.3,19.291C804.299,19.356 804.3,19.426 804.302,19.497C804.339,19.531 804.415,19.6 804.453,19.635C804.604,20.071 804.513,20.534 804.544,20.987C804.542,21.416 804.577,21.848 804.549,22.28C804.532,22.431 804.364,22.449 804.279,22.545C804.692,22.477 805.103,22.395 805.516,22.326C805.493,22.096 805.511,21.842 805.707,21.693C806.211,21.371 806.783,21.179 807.303,20.887C808.135,20.455 809.001,20.091 809.822,19.638C810.513,19.297 811.218,18.981 811.933,18.692C811.981,18.669 812.037,18.621 812.01,18.567C811.94,18.262 811.918,17.948 811.872,17.639C811.191,17.373 810.482,17.211 809.771,17.055C809.053,16.918 808.35,16.709 807.638,16.541C806.645,16.264 805.604,16.115 804.659,15.682C804.698,16.11 804.725,16.553 804.923,16.944C805.049,17.268 805.265,17.545 805.476,17.819C805.643,18.016 805.628,18.323 805.457,18.515C805.382,18.537 805.307,18.563 805.233,18.589C805.131,18.586 805.027,18.588 804.926,18.594C804.488,18.317 804.248,17.831 804.036,17.379C803.802,16.885 803.828,16.332 803.736,15.807C803.642,15.207 803.778,14.61 803.788,14.013C803.804,14.125 803.809,14.242 803.85,14.356C803.885,14.189 803.853,14.022 803.853,13.858C803.989,12.934 804.273,12.042 804.503,11.137C804.677,10.496 804.947,9.889 805.167,9.264C805.315,8.867 805.516,8.467 805.513,8.035C805.153,8.069 804.808,7.956 804.453,7.942C804.386,8 804.304,8.096 804.206,8.032C804.069,7.951 803.974,7.801 803.812,7.774C803.297,7.617 802.753,7.645 802.224,7.598C801.638,7.614 800.986,7.535 800.479,7.89ZM819.573,7.483C819.583,8.216 819.628,8.951 819.623,9.684C819.781,9.809 819.996,9.799 820.187,9.83C820.576,9.886 820.969,9.916 821.36,9.963C821.243,9.793 821.158,9.604 821.125,9.401C821.056,9.016 820.876,8.662 820.784,8.283C820.637,7.854 820.592,7.401 820.515,6.957C820.238,7.196 819.901,7.334 819.573,7.483ZM806.271,8.021C806.249,8.576 806.005,9.086 805.816,9.598C805.683,9.871 805.621,10.174 805.476,10.442C806.052,9.902 806.574,9.302 807.216,8.836C807.614,8.553 807.952,8.199 808.32,7.879C808.634,7.588 808.879,7.237 809.193,6.949C808.212,7.286 807.227,7.616 806.271,8.021ZM810.607,6.664C809.637,7.598 808.847,8.717 807.745,9.51C807.06,10 806.561,10.692 805.897,11.207C805.671,11.416 805.478,11.74 805.123,11.715C804.988,12.238 804.852,12.766 804.822,13.31C804.792,13.735 804.657,14.16 804.713,14.59C805.856,14.237 807.057,14.143 808.239,14.004C808.811,13.936 809.403,13.969 809.962,13.842C810.233,13.484 810.243,13.014 810.357,12.594C810.432,12.317 810.466,12.03 810.508,11.747C810.808,10.414 810.681,9.032 810.912,7.69C810.967,7.232 811.073,6.782 811.097,6.321C810.877,6.336 810.755,6.529 810.607,6.664ZM827.317,6.31C827.077,6.631 826.758,6.91 826.642,7.311C826.456,7.812 826.336,8.38 826.498,8.907C826.715,9.711 827.367,10.345 828.114,10.681C828.37,10.174 828.389,9.598 828.565,9.067C828.681,8.699 828.76,8.32 828.9,7.96C829.024,7.539 828.969,7.059 828.691,6.711C828.515,6.494 828.465,6.192 828.23,6.024C828.109,5.926 828.011,5.809 827.94,5.674C827.731,5.885 827.493,6.069 827.317,6.31ZM802.547,5.68C802.881,6.109 803.212,6.539 803.6,6.92C803.626,6.498 803.734,6.085 803.718,5.659C803.326,5.659 802.936,5.631 802.547,5.68ZM818.92,2.03C818.111,2.161 817.333,2.532 816.763,3.127C816.259,3.594 815.967,4.295 816.012,4.983C816.021,5.54 816.283,6.082 816.659,6.485C816.973,6.731 817.308,6.989 817.703,7.078C817.792,6.897 817.931,6.699 818.162,6.717C818.818,6.731 819.469,6.493 820.001,6.121C820.111,5.832 819.876,5.566 819.832,5.286C819.729,4.711 819.552,4.141 819.567,3.551C819.575,3.028 819.588,2.506 819.56,1.985C819.348,1.923 819.13,2 818.92,2.03ZM802.473,1.162C801.623,1.613 800.906,2.545 801.075,3.549C801.202,3.974 801.359,4.459 801.777,4.684C802.137,4.908 802.575,4.824 802.974,4.86C803.702,4.869 804.423,4.967 805.148,4.998C805.38,5.017 805.595,5.121 805.827,5.126C805.739,5.059 805.652,4.976 805.535,4.977C805.368,4.676 805.327,4.324 805.381,3.989C805.415,3.389 805.677,2.842 805.813,2.266C805.965,1.865 806.085,1.453 806.175,1.035C805.51,0.809 804.797,0.912 804.11,0.845C803.557,0.873 802.957,0.851 802.473,1.162ZM803.431,0.164C804.105,0.094 804.782,0.182 805.46,0.19C805.877,0.176 806.264,0.342 806.655,0.463C806.905,0.614 806.983,0.935 806.947,1.21C806.839,1.878 806.709,2.543 806.535,3.198C806.39,3.65 806.359,4.125 806.369,4.598C806.374,4.879 806.201,5.104 805.93,5.172C805.983,5.174 806.091,5.177 806.146,5.178C806.233,5.281 806.274,5.422 806.13,5.502C805.681,5.656 805.197,5.556 804.737,5.629C804.646,6.131 804.814,6.668 804.574,7.145C804.912,7.222 805.243,7.34 805.593,7.354C805.406,6.934 805.19,6.529 804.986,6.117C804.94,6.018 804.882,5.909 804.923,5.803C804.996,5.709 805.116,5.675 805.213,5.617C805.465,5.749 805.563,6.028 805.7,6.259C805.866,6.599 806.042,6.938 806.176,7.293C806.479,7.225 806.749,7.065 807.047,6.983C807.775,6.76 808.505,6.534 809.216,6.262C809.645,6.054 810.159,6.015 810.518,5.678C810.784,5.424 811.109,5.248 811.4,5.027C811.579,4.879 811.898,4.877 812.029,5.09C812.174,5.286 812.058,5.55 812.122,5.77C812.718,6.403 813.367,6.983 814.06,7.511C814.709,8.047 815.435,8.489 816.059,9.061C816.17,9.16 816.094,9.318 816.09,9.446C815.826,9.457 815.643,9.253 815.457,9.102C814.754,8.526 813.995,8.022 813.305,7.432C812.851,7.076 812.454,6.655 812.038,6.258C811.908,7.381 811.7,8.502 811.72,9.637C811.724,10.625 811.55,11.598 811.38,12.569C811.309,12.822 811.256,13.08 811.271,13.348C811.498,13.403 811.715,13.502 811.95,13.524C812.183,12.115 813.104,10.91 814.202,10.039C814.604,9.625 815.212,9.549 815.76,9.504C816.679,9.467 817.601,9.407 818.521,9.455C818.552,9.208 818.326,9.078 818.185,8.919C817.864,8.595 817.538,8.275 817.251,7.918C816.972,7.567 816.491,7.497 816.177,7.188C814.869,6.153 814.813,4.057 815.839,2.805C816.583,1.912 817.676,1.352 818.802,1.125C819.202,1.085 819.623,0.954 820.012,1.115C819.989,0.874 819.931,0.617 820.043,0.393C820.166,0.295 820.352,0.401 820.357,0.547C820.409,0.807 820.313,1.06 820.241,1.305C820.262,1.516 820.41,1.693 820.438,1.905C820.589,2.612 820.472,3.336 820.527,4.051C820.603,4.543 820.7,5.033 820.856,5.508C820.904,5.789 821.09,6.039 821.03,6.334C820.991,6.561 821.298,6.641 821.29,6.869C821.463,7.912 821.864,8.914 821.904,9.979C821.943,10.065 822.06,10.03 822.136,10.059C822.54,10.114 822.948,10.123 823.354,10.17C823.541,10.191 823.767,10.274 823.781,10.495C823.966,10.526 824.192,10.531 824.318,10.698C824.53,10.961 824.773,11.199 825.036,11.416C825.405,11.797 825.731,12.217 826.064,12.631C826.209,12.86 826.435,13.051 826.499,13.323C826.528,13.512 826.324,13.547 826.199,13.624C826.025,13.711 825.885,13.563 825.795,13.432C825.19,12.569 824.487,11.778 823.766,11.012C823.616,11.689 823.172,12.252 822.937,12.901C822.849,13.188 822.618,13.422 822.615,13.735C823.236,14.138 823.804,14.625 824.452,14.99C824.645,15.123 824.731,14.776 824.86,14.68C825.261,14.293 825.686,13.891 826.226,13.713C826.524,13.576 826.804,13.377 827.139,13.348C827.091,12.655 827.152,11.959 827.147,11.266C826.575,10.901 826.087,10.391 825.78,9.783C825.255,8.679 825.435,7.282 826.211,6.339C826.604,5.932 826.992,5.515 827.451,5.18C827.637,5.043 827.828,4.828 828.083,4.887C828.224,4.905 828.262,5.069 828.336,5.17C828.833,5.354 829.226,5.719 829.613,6.067C829.821,6.248 829.767,6.529 829.81,6.772C830.068,7.401 829.871,8.081 829.728,8.713C829.518,9.444 829.382,10.194 829.139,10.915C828.982,11.252 828.811,11.631 828.449,11.792C828.311,11.879 828.156,11.809 828.021,11.762C828.035,12.268 828.029,12.774 828.034,13.283C828.466,13.284 828.931,13.3 829.318,13.519C829.593,13.711 829.86,14.009 829.841,14.368C829.768,14.777 829.592,15.16 829.529,15.573C829.353,16.448 829.517,17.342 829.642,18.214C829.716,18.865 829.983,19.468 830.218,20.075C830.406,20.569 830.691,21.024 830.831,21.537C830.956,21.944 831.142,22.354 831.104,22.789C831.1,23.151 830.796,23.519 830.422,23.526C829.853,23.553 829.283,23.553 828.714,23.567C828.734,23.951 828.773,24.334 828.799,24.721C829.263,24.728 829.727,24.722 830.19,24.725C830.574,24.697 830.894,25.052 830.934,25.415C831.096,26.398 830.761,27.371 830.781,28.355C830.752,29.482 830.804,30.678 831.408,31.667C831.516,31.926 831.784,32.116 831.794,32.412C831.832,32.893 831.078,33.172 830.812,32.758C830.271,32.043 829.849,31.176 829.838,30.268C829.823,30.274 829.792,30.281 829.777,30.285C829.702,29.819 829.681,29.35 829.648,28.883C829.671,28.428 829.747,27.979 829.771,27.526C829.809,26.907 829.987,26.301 829.933,25.68C828.586,25.704 827.224,25.7 825.904,25.403C825.664,25.356 825.446,25.227 825.197,25.223C824.998,26.137 824.724,27.037 824.574,27.966C824.395,28.684 824.351,29.426 824.288,30.161C824.276,31.038 824.2,31.955 824.542,32.787C824.591,32.881 824.651,33.028 824.782,33.021C826.984,33.002 829.19,33.063 831.393,32.995C831.692,32.944 831.992,32.891 832.298,32.91C832.903,32.932 833.496,32.777 834.104,32.786C834.954,32.721 835.805,32.541 836.66,32.621C836.982,32.735 837.301,33.022 837.264,33.393C837.296,33.967 836.984,34.468 836.723,34.955C836.415,35.435 836.153,35.944 835.859,36.433C835.471,36.92 835.171,37.471 834.815,37.983C834.636,38.389 834.334,38.728 834.177,39.144C834.622,39.305 835.061,39.507 835.535,39.572C835.879,39.652 836.245,39.512 836.579,39.639C836.807,39.715 836.799,40.075 836.565,40.141C836.251,40.216 835.924,40.191 835.605,40.239C835.07,40.345 834.539,40.172 834.015,40.081C833.845,40.057 833.663,39.969 833.496,40.036C833.335,40.221 833.177,40.41 832.995,40.576C833.824,40.799 834.651,41.094 835.521,41.092C836.046,41.079 836.567,41.168 837.093,41.168C837.281,41.141 837.511,41.35 837.354,41.529C837.169,41.693 836.897,41.677 836.667,41.722C835.896,41.843 835.101,41.973 834.325,41.807C833.562,41.774 832.82,41.548 832.063,41.469C831.788,41.613 831.599,41.867 831.362,42.062C831.293,42.297 831.264,42.543 831.253,42.79C830.891,42.996 830.458,42.938 830.062,42.97C829.651,43.008 829.239,42.944 828.833,43.015C828.236,43.12 827.628,43.246 827.021,43.164C826.179,43.127 825.361,42.905 824.562,42.655C824.101,42.481 823.614,42.375 823.121,42.412C822.652,42.364 822.145,42.375 821.731,42.122C821.732,42.068 821.737,41.961 821.738,41.908C821.32,41.93 820.886,41.85 820.49,42.02C820.168,42.068 819.899,42.262 819.593,42.351C818.942,42.559 818.246,42.649 817.566,42.556C817.204,42.541 816.863,42.403 816.508,42.358C816.012,42.453 815.507,42.487 815.006,42.504C814.595,42.451 814.36,41.961 814.609,41.619C814.247,41.506 813.876,41.426 813.515,41.315C812.893,41.141 812.274,41.43 811.733,41.709C811.381,41.916 811.042,42.145 810.665,42.303C810.885,42.289 811.109,42.277 811.324,42.34C811.788,42.461 812.272,42.533 812.703,42.758C812.865,42.89 813.08,43.073 812.98,43.309C812.836,43.439 812.632,43.49 812.447,43.538C811.867,43.623 811.378,43.217 810.817,43.15C809.988,42.953 809.148,43.159 808.316,43.214C807.553,43.332 806.779,43.439 806.052,43.711C805.759,43.787 805.471,43.964 805.159,43.889C805.249,43.641 805.508,43.531 805.718,43.406C806.021,43.252 806.312,43.057 806.647,42.976C806.03,42.824 805.432,42.578 804.798,42.512C804.168,42.778 803.511,43.002 802.839,43.153C802.038,43.442 801.195,43.589 800.361,43.749C798.892,43.938 797.424,43.619 795.982,43.369C795.735,43.324 795.485,43.285 795.241,43.224C795.148,43.174 794.994,43.063 795.079,42.948C795.204,42.83 795.381,42.858 795.536,42.856C796.091,42.856 796.645,42.91 797.197,42.957C797.672,42.992 798.14,43.115 798.618,43.082C799.112,43.089 799.607,43.034 800.101,43.061C799.843,42.915 799.503,42.852 799.234,42.692C798.743,42.366 798.128,42.61 797.584,42.486C796.828,42.504 796.076,42.357 795.37,42.091C794.928,42.192 794.564,42.547 794.104,42.623C793.393,42.762 792.704,42.471 792.01,42.364C791.436,42.272 790.853,42.229 790.272,42.244C789.634,42.321 789.095,42.72 788.466,42.831C788.221,42.846 788.007,42.668 787.866,42.485C787.771,42.268 787.855,42.017 788.048,41.889C788.051,41.86 788.057,41.802 788.061,41.773C785.771,41.776 783.48,41.787 781.191,41.768C783.416,41.76 785.642,41.764 787.866,41.767C788.101,41.787 788.333,41.735 788.549,41.643C789.135,41.388 789.745,41.138 790.393,41.108C790.264,40.932 790.169,40.737 790.086,40.539C789.719,40.574 789.362,40.669 789.004,40.748C788.339,40.794 787.728,41.083 787.093,41.263C786.399,41.489 785.663,41.545 784.939,41.51C784.41,41.443 783.891,41.301 783.393,41.109C783.211,41.025 783.071,40.877 782.941,40.731C782.816,40.611 782.86,40.34 783.063,40.348C783.634,40.319 784.147,40.627 784.7,40.71C785.725,40.906 786.755,40.619 787.718,40.285C788.396,40.098 789.104,39.967 789.81,40.045C789.599,39.648 789.351,39.262 789.086,38.905C788.691,39.121 788.229,39.069 787.797,39.103C787.509,39.076 787.225,39.215 786.943,39.128C786.879,38.905 787.162,38.91 787.293,38.834C787.769,38.684 788.228,38.393 788.744,38.435C788.271,37.82 787.771,37.215 787.159,36.729C786.725,36.294 786.276,35.871 785.77,35.524C785.258,35.188 784.768,34.824 784.273,34.468C783.522,33.885 782.873,33.191 782.18,32.546C782.004,32.389 782.058,32.135 782.11,31.94C781.659,31.433 781.079,31.061 780.577,30.608C779.425,29.565 778.172,28.643 776.928,27.713C776.295,27.25 775.774,26.656 775.138,26.199C774.953,26.047 774.687,25.835 774.795,25.566C774.901,25.303 775.207,25.22 775.464,25.283C775.768,25.073 776.072,24.863 776.401,24.692C777.04,24.266 777.704,23.884 778.371,23.509C779.764,22.883 781.034,22.036 782.321,21.225C783.605,20.287 785.014,19.533 786.291,18.585C786.989,18.135 787.688,17.687 788.365,17.205C789.109,16.74 789.744,16.13 790.451,15.615C791.833,14.706 793.135,13.682 794.433,12.658C794.624,12.5 794.833,12.364 795.033,12.219C795.238,11.975 795.332,11.662 795.476,11.383C796.261,9.683 797.691,8.358 799.292,7.427C799.987,7.062 800.76,6.798 801.551,6.801C802.075,6.75 802.598,6.847 803.122,6.823C802.832,6.474 802.552,6.115 802.276,5.755C802.193,5.63 802.026,5.651 801.898,5.615C801.461,5.56 801.116,5.252 800.831,4.94C800.467,4.481 800.271,3.9 800.238,3.32C800.297,2.166 801.045,1.121 802.033,0.561C802.446,0.289 802.946,0.197 803.431,0.164Z" style="fill:white;fill-rule:nonzero;"/>
    </g>
    <g transform="matrix(2.85052,0,0,2.85052,-2201.38,30.4885)">
        <path d="M808.596,11.748C808.611,11.588 808.78,11.523 808.919,11.567C809.063,11.989 809.049,12.456 808.925,12.883C808.786,12.928 808.61,12.871 808.597,12.709C808.559,12.391 808.554,12.065 808.596,11.748Z" style="fill:white;fill-rule:nonzero;"/>
    </g>
    <g transform="matrix(2.85052,0,0,2.85052,-2201.38,30.4885)">
        <path d="M805.851,12.424C805.972,12.381 806.014,12.424 805.975,12.549C805.852,12.584 805.811,12.543 805.851,12.424Z" style="fill:white;fill-rule:nonzero;"/>
    </g>
    <g transform="matrix(2.85052,0,0,2.85052,-2201.38,30.4885)">
        <path d="M817.184,17.594C817.382,17.455 817.559,17.717 817.561,17.899C817.593,18.373 817.688,18.852 817.626,19.328C817.548,19.563 817.189,19.568 817.111,19.333C817.06,19.008 817.048,18.679 817.001,18.354C816.998,18.098 816.958,17.768 817.184,17.594Z" style="fill:white;fill-rule:nonzero;"/>
    </g>
    <g transform="matrix(2.85052,0,0,2.85052,-2201.38,30.4885)">
        <path d="M814.754,18.056C814.755,17.926 814.791,17.748 814.935,17.713C815.096,17.692 815.163,17.864 815.214,17.987C815.282,18.23 815.291,18.544 815.078,18.724C814.887,18.554 814.774,18.307 814.754,18.056Z" style="fill:white;fill-rule:nonzero;"/>
    </g>
    <g transform="matrix(2.85052,0,0,2.85052,-2201.38,30.4885)">
        <path d="M819.088,18.239C819.12,18.198 819.185,18.114 819.218,18.073C819.432,18.135 819.452,18.4 819.469,18.586C819.465,18.846 819.654,19.076 819.592,19.34C819.566,19.481 819.401,19.502 819.284,19.497C819.12,19.451 819.078,19.26 819.045,19.118C819.01,18.823 819.029,18.526 819.02,18.231C819.036,18.233 819.07,18.237 819.088,18.239Z" style="fill:white;fill-rule:nonzero;"/>
    </g>
    <g transform="matrix(2.85052,0,0,2.85052,-2201.38,30.4885)">
        <path d="M804.005,27.206C804.068,27.078 804.118,26.875 804.303,26.892C804.333,27.167 804.175,27.41 804.12,27.675C804.011,28.147 803.8,28.604 803.83,29.102C803.719,29.548 803.761,30.012 803.681,30.465C803.624,30.785 803.642,31.115 803.576,31.436C803.532,31.668 803.176,31.793 803.028,31.584C802.926,31.487 802.932,31.336 802.932,31.208C802.931,30.541 803.181,29.914 803.311,29.268C803.43,28.547 803.756,27.887 804.005,27.206Z" style="fill:white;fill-rule:nonzero;"/>
    </g>
    <g transform="matrix(2.85052,0,0,2.85052,-2201.38,30.4885)">
        <path d="M801.975,28.016C802.042,27.842 802.229,27.851 802.379,27.9C802.447,28.309 802.267,28.703 802.229,29.109C802.116,29.678 802.093,30.26 802.085,30.84C802.097,31.067 801.86,31.119 801.681,31.07C801.519,30.604 801.634,30.104 801.647,29.625C801.654,29.076 801.765,28.524 801.975,28.016Z" style="fill:white;fill-rule:nonzero;"/>
    </g>
    <g transform="matrix(2.85052,0,0,2.85052,-2201.38,30.4885)">
        <path d="M828.415,28.94C828.369,28.689 828.275,28.313 828.539,28.16C828.758,28.348 828.611,28.669 828.551,28.901C828.517,28.909 828.449,28.93 828.415,28.94Z" style="fill:white;fill-rule:nonzero;"/>
    </g>
    <g transform="matrix(2.85052,0,0,2.85052,-2201.38,30.4885)">
        <path d="M827.249,28.499C827.331,28.395 827.516,28.385 827.589,28.505C827.732,28.668 827.707,28.898 827.688,29.099C827.631,29.528 827.63,29.962 827.579,30.393C827.531,30.845 827.656,31.317 827.491,31.756C827.356,31.768 827.167,31.83 827.074,31.698C826.7,30.905 826.887,30.01 827.017,29.182C827.074,28.948 827.068,28.676 827.249,28.499Z" style="fill:white;fill-rule:nonzero;"/>
    </g>
    <g transform="matrix(2.85052,0,0,2.85052,-2201.38,30.4885)">
        <path d="M814.242,28.958C814.259,28.823 814.462,28.803 814.544,28.887C814.704,29.071 814.71,29.326 814.729,29.559C814.752,30.069 815.056,30.546 814.934,31.067C814.879,31.064 814.771,31.06 814.718,31.059C814.549,30.832 814.392,30.592 814.337,30.313C814.254,29.869 814.138,29.406 814.242,28.958Z" style="fill:white;fill-rule:nonzero;"/>
    </g>
    <g transform="matrix(2.85052,0,0,2.85052,-2201.38,30.4885)">
        <path d="M797.746,29.125C797.847,28.996 798.024,29.186 797.905,29.287C797.808,29.388 797.651,29.221 797.746,29.125Z" style="fill:white;fill-rule:nonzero;"/>
    </g>
    <g transform="matrix(2.85052,0,0,2.85052,-2201.38,30.4885)">
        <path d="M815.915,29.254C816.011,29.193 816.175,29.188 816.235,29.303C816.399,29.53 816.355,29.819 816.36,30.084C816.353,30.358 816.413,30.634 816.37,30.908C816.358,31.127 816.011,31.145 815.931,30.969C815.747,30.655 815.759,30.28 815.74,29.93C815.755,29.699 815.731,29.424 815.915,29.254Z" style="fill:white;fill-rule:nonzero;"/>
    </g>
    <g transform="matrix(2.85052,0,0,2.85052,-2201.38,30.4885)">
        <path d="M799.81,29.312C799.851,29.312 799.931,29.312 799.97,29.313C800.063,29.612 800.106,29.93 800.044,30.241C799.94,30.252 799.838,30.256 799.733,30.255C799.649,29.94 799.7,29.612 799.81,29.312Z" style="fill:white;fill-rule:nonzero;"/>
    </g>
    <g transform="matrix(2.85052,0,0,2.85052,-2201.38,30.4885)">
        <path d="M821.19,29.66C821.288,29.572 821.449,29.722 821.354,29.824C821.257,29.949 821.066,29.757 821.19,29.66Z" style="fill:white;fill-rule:nonzero;"/>
    </g>
    <g transform="matrix(2.85052,0,0,2.85052,-2201.38,30.4885)">
        <path d="M817.991,29.934C818.021,29.807 818.145,29.742 818.232,29.664C818.571,29.737 818.618,30.108 818.7,30.386C818.755,30.569 818.726,30.76 818.704,30.948C818.504,30.977 818.297,30.855 818.218,30.672C818.093,30.446 817.954,30.2 817.991,29.934Z" style="fill:white;fill-rule:nonzero;"/>
    </g>
    <g transform="matrix(2.85052,0,0,2.85052,-2201.38,30.4885)">
        <path d="M825.393,30.226C825.64,30.069 825.847,30.391 825.835,30.614C825.847,30.865 825.876,31.139 825.749,31.371C825.538,31.477 825.431,31.213 825.377,31.059C825.302,30.795 825.16,30.445 825.393,30.226Z" style="fill:white;fill-rule:nonzero;"/>
    </g>
    <g transform="matrix(2.85052,0,0,2.85052,-2201.38,30.4885)">
        <path d="M828.436,31.041C828.542,31.057 828.701,31.016 828.75,31.154C828.897,31.471 829.004,31.807 829.12,32.139C829.174,32.274 829.174,32.421 829.155,32.567C829.028,32.61 828.854,32.694 828.758,32.553C828.596,32.296 828.6,31.979 828.486,31.705C828.396,31.492 828.368,31.26 828.436,31.041Z" style="fill:white;fill-rule:nonzero;"/>
    </g>
    <g transform="matrix(2.85052,0,0,2.85052,-2201.38,30.4885)">
        <path d="M809.777,34.33C810.144,34.309 810.515,34.313 810.876,34.377C810.979,34.379 811.075,34.487 811.028,34.594C810.956,34.737 810.781,34.716 810.649,34.737C810.347,34.744 810.043,34.751 809.742,34.737C809.613,34.721 809.434,34.678 809.428,34.522C809.503,34.403 809.642,34.344 809.777,34.33Z" style="fill:white;fill-rule:nonzero;"/>
    </g>
    <g transform="matrix(2.85052,0,0,2.85052,-2201.38,30.4885)">
        <path d="M803.439,34.813C803.616,34.451 804.059,34.471 804.393,34.555C804.399,34.709 804.209,34.764 804.104,34.844C803.901,34.969 803.585,35.075 803.439,34.813Z" style="fill:white;fill-rule:nonzero;"/>
    </g>
    <g transform="matrix(2.85052,0,0,2.85052,-2201.38,30.4885)">
        <path d="M817.336,34.934C818.604,34.754 819.887,34.754 821.164,34.783C821.306,34.764 821.474,34.879 821.397,35.037C821.276,35.16 821.095,35.126 820.941,35.139C819.937,35.145 818.929,35.158 817.93,35.036C817.731,34.996 817.504,35.067 817.336,34.934Z" style="fill:white;fill-rule:nonzero;"/>
    </g>
    <g transform="matrix(2.85052,0,0,2.85052,-2201.38,30.4885)">
        <path d="M817.399,35.869C817.769,35.656 818.207,35.772 818.611,35.754C819.091,35.807 819.577,35.78 820.056,35.858C820.087,36.005 820.103,36.223 819.898,36.239C819.141,36.301 818.379,36.179 817.631,36.07C817.514,36.06 817.437,35.969 817.399,35.869Z" style="fill:white;fill-rule:nonzero;"/>
    </g>
    <g transform="matrix(2.85052,0,0,2.85052,-2201.38,30.4885)">
        <path d="M810.58,36.27C811.129,36.234 811.679,36.259 812.228,36.249C812.562,36.256 812.897,36.233 813.228,36.291C813.42,36.323 813.397,36.637 813.197,36.637C812.372,36.674 811.546,36.639 810.721,36.649C810.397,36.631 810.052,36.696 809.753,36.541C809.643,36.443 809.804,36.319 809.899,36.311C810.124,36.269 810.353,36.285 810.58,36.27Z" style="fill:white;fill-rule:nonzero;"/>
    </g>
    <g transform="matrix(2.85052,0,0,2.85052,-2201.38,30.4885)">
        <path d="M829.058,37.778C829.956,37.649 830.862,37.602 831.771,37.604C831.898,37.608 832.023,37.639 832.149,37.668C832.252,37.865 832.257,38.076 832.154,38.278C831.852,38.44 831.493,38.352 831.164,38.377C830.486,38.406 829.808,38.352 829.133,38.419C828.709,38.444 828.285,38.435 827.861,38.428C826.822,38.442 825.795,38.617 824.758,38.654C824.16,38.686 823.57,38.791 822.976,38.84C822.777,38.858 822.542,38.953 822.392,38.773C822.282,38.699 822.315,38.5 822.447,38.487C822.815,38.381 823.205,38.39 823.583,38.342C824.2,38.252 824.824,38.221 825.45,38.22C825.73,38.22 825.999,38.115 826.28,38.127C826.767,38.129 827.242,38.024 827.723,37.975C828.167,37.908 828.619,37.886 829.058,37.778Z" style="fill:white;fill-rule:nonzero;"/>
    </g>
    <g transform="matrix(2.85052,0,0,2.85052,-2201.38,30.4885)">
        <path d="M815.85,38.158C816.46,38.073 817.091,38.225 817.71,38.201C817.861,38.21 818.141,38.2 818.159,38.408C817.903,38.535 817.612,38.49 817.339,38.485C816.893,38.451 816.44,38.485 816,38.395C815.859,38.434 815.683,38.23 815.85,38.158Z" style="fill:white;fill-rule:nonzero;"/>
    </g>
    <g transform="matrix(2.85052,0,0,2.85052,-2201.38,30.4885)">
        <path d="M804.549,40.457C804.896,40.371 805.297,40.348 805.611,40.549C805.411,40.795 805.057,40.768 804.773,40.749C804.644,40.742 804.412,40.605 804.549,40.457Z" style="fill:white;fill-rule:nonzero;"/>
    </g>
    <g transform="matrix(2.85052,0,0,2.85052,-2201.38,30.4885)">
        <path d="M778.769,41.201C779.113,41.102 779.468,41.24 779.818,41.24C780.172,41.278 780.541,41.192 780.885,41.307C781.12,41.374 781.245,41.735 781.042,41.903C780.788,42.177 780.382,42.02 780.054,42.062C779.717,42.106 779.414,41.928 779.081,41.917C778.917,41.878 778.702,41.891 778.597,41.737C778.5,41.551 778.521,41.24 778.769,41.201Z" style="fill:white;fill-rule:nonzero;"/>
    </g>
    <g transform="matrix(2.85052,0,0,2.85052,-2201.38,30.4885)">
        <path d="M783.093,42.676C782.931,42.54 783.093,42.262 783.285,42.296C783.552,42.336 783.781,42.498 784.038,42.578C784.453,42.7 784.877,42.831 785.315,42.811C785.57,42.803 785.87,42.787 786.051,43.005C785.92,43.169 785.749,43.307 785.548,43.374C785.089,43.435 784.615,43.375 784.188,43.207C783.81,43.065 783.376,42.987 783.093,42.676Z" style="fill:white;fill-rule:nonzero;"/>
    </g>
    <g transform="matrix(2.85052,0,0,2.85052,-2201.38,30.4885)">
        <path d="M838.939,43.056C839.274,43.034 839.697,42.854 839.933,43.19C839.96,43.387 839.866,43.598 839.668,43.663C839.294,43.742 838.907,43.718 838.538,43.824C838.012,43.854 837.485,43.936 836.957,43.884C836.567,43.844 836.161,43.92 835.79,43.766C835.919,43.529 836.238,43.631 836.454,43.545C836.929,43.356 837.45,43.375 837.935,43.23C838.275,43.201 838.605,43.123 838.939,43.056Z" style="fill:white;fill-rule:nonzero;"/>
    </g>
    <g transform="matrix(2.85052,0,0,2.85052,-2201.38,30.4885)">
        <path d="M817.887,43.115C818.372,43.014 818.873,43.074 819.366,43.063C820.143,43.07 820.955,43.021 821.688,43.319C822.208,43.483 822.737,43.634 823.23,43.873C823.793,44.138 824.411,44.235 825.002,44.411C825.226,44.448 825.272,44.823 825.014,44.842C824.508,44.78 823.997,44.786 823.491,44.723C822.761,44.586 822.069,44.288 821.335,44.173C820.813,44.053 820.275,44.084 819.743,44.08C819.165,44.103 818.586,44.049 818.01,44.108C817.718,44.16 817.363,43.938 817.386,43.618C817.406,43.362 817.63,43.141 817.887,43.115Z" style="fill:white;fill-rule:nonzero;"/>
    </g>
    <g transform="matrix(2.85052,0,0,2.85052,-2201.38,30.4885)">
        <path d="M790.29,43.867C790.515,43.753 790.906,43.828 790.896,44.138C790.871,44.33 790.668,44.449 790.487,44.468C789.602,44.658 788.721,45.057 787.796,44.905C787.469,44.842 787.107,44.869 786.814,44.697C786.638,44.586 786.795,44.358 786.959,44.365C787.56,44.371 788.173,44.438 788.766,44.289C789.274,44.151 789.782,44.008 790.29,43.867Z" style="fill:white;fill-rule:nonzero;"/>
    </g>
    <g transform="matrix(2.85052,0,0,2.85052,-2201.38,30.4885)">
        <path d="M828.59,44.268C828.975,44.083 829.382,44.348 829.759,44.44C830.031,44.573 830.485,44.587 830.538,44.957C830.525,45.251 830.163,45.21 829.961,45.186C829.659,45.092 829.342,45.073 829.044,44.976C828.865,44.916 828.645,44.916 828.541,44.737C828.441,44.581 828.534,44.416 828.59,44.268Z" style="fill:white;fill-rule:nonzero;"/>
    </g>
    <g transform="matrix(2.85052,0,0,2.85052,-2201.38,30.4885)">
        <path d="M817.347,45.165C817.848,45.091 818.362,45.056 818.863,45.158C819.08,45.229 819.239,45.483 819.148,45.709C819.087,45.93 818.843,46.041 818.629,46.038C818.149,46.043 817.679,46.145 817.204,46.192C816.904,46.208 816.565,46.012 816.521,45.7C816.548,45.566 816.626,45.451 816.719,45.358C816.867,45.166 817.133,45.206 817.347,45.165Z" style="fill:white;fill-rule:nonzero;"/>
    </g>
</svg>
