<?xml version="1.0" encoding="UTF-8" standalone="no"?>
<!DOCTYPE svg PUBLIC "-//W3C//DTD SVG 1.1//EN" "http://www.w3.org/Graphics/SVG/1.1/DTD/svg11.dtd">
<svg width="100%" height="100%" viewBox="0 0 142 67" version="1.1" xmlns="http://www.w3.org/2000/svg" xmlns:xlink="http://www.w3.org/1999/xlink" xml:space="preserve" xmlns:serif="http://www.serif.com/" style="fill-rule:evenodd;clip-rule:evenodd;stroke-linejoin:round;stroke-miterlimit:2;">
    <g transform="matrix(4.16667,0,0,4.16667,-2468.22,-2274.77)">
        <path d="M609.217,558.482C609.203,559.17 609.048,559.842 608.967,560.521C609.064,560.519 609.166,560.523 609.267,560.531C609.258,559.844 609.471,559.178 609.447,558.491C609.369,558.484 609.293,558.481 609.217,558.482ZM621.771,558.281C621.724,558.791 621.667,559.3 621.566,559.801C621.588,560.095 621.409,560.541 621.771,560.686C621.793,560.185 621.639,559.691 621.732,559.193C621.801,558.826 621.758,558.445 621.856,558.087C621.773,558.102 621.781,558.209 621.771,558.281ZM606.323,557.509C605.525,557.646 604.712,557.631 603.907,557.586C602.887,557.473 601.857,557.624 600.84,557.49C599.985,557.429 599.126,557.428 598.275,557.323C597.715,557.319 597.151,557.304 596.59,557.34C596.631,557.631 596.527,557.916 596.549,558.211C596.571,558.683 596.454,559.148 596.419,559.621C596.432,559.599 596.455,559.556 596.469,559.535C596.736,559.66 596.855,560.054 596.801,560.34C596.542,560.412 596.412,560.166 596.354,559.963C596.332,560.138 596.314,560.316 596.302,560.497C596.416,560.47 596.527,560.439 596.643,560.416C597.155,560.262 597.682,560.418 598.2,560.429C598.506,560.426 598.782,560.583 599.084,560.618C599.493,560.633 599.89,560.757 600.302,560.747C601.141,560.941 602.012,560.916 602.856,561.084C603.759,561.078 604.668,561.123 605.568,561.01C606.009,560.965 606.467,561.056 606.897,560.942C606.799,560.801 606.559,560.793 606.509,560.612C606.558,560.484 606.684,560.416 606.776,560.33C606.658,559.918 606.786,559.494 606.83,559.085C606.917,558.72 606.857,558.344 606.921,557.98C606.947,557.824 606.94,557.604 607.136,557.573C607.287,557.556 607.379,557.698 607.383,557.838C607.411,558.406 607.397,558.975 607.34,559.543C607.542,559.46 607.516,559.211 607.605,559.047C607.816,558.554 607.864,557.99 608.179,557.548C608.322,557.955 608.13,558.39 608.04,558.795C607.953,559.326 607.77,559.835 607.61,560.349C607.734,560.367 607.86,560.394 607.984,560.424C607.984,560.269 607.996,560.117 608.02,559.97C608.113,559.961 608.205,559.954 608.3,559.953C608.533,559.123 608.624,558.263 608.768,557.418C608.512,557.461 608.245,557.467 608.049,557.277C607.473,557.342 606.889,557.377 606.323,557.509ZM615.76,553.349C615.361,554.004 614.74,554.463 614.183,554.97C613.902,555.236 613.525,555.39 613.265,555.674C613.689,555.709 614.172,555.644 614.526,555.941C614.672,556.025 614.626,556.206 614.605,556.346C614.229,556.555 613.793,556.401 613.389,556.42C613.11,556.43 612.835,556.408 612.56,556.373C612.412,556.431 612.321,556.576 612.207,556.68C612.675,556.668 613.148,556.652 613.613,556.729C613.814,556.745 614.023,556.783 614.177,556.933C614.139,557.027 614.072,557.09 613.978,557.121C613.188,557.353 612.36,557.371 611.543,557.361C611.066,557.739 610.61,558.163 610.036,558.39C609.979,558.703 610.035,559.03 609.976,559.347C609.899,559.756 609.936,560.174 609.89,560.586C610.352,560.605 610.814,560.532 611.278,560.545C612.156,560.584 613.034,560.596 613.913,560.588C614.244,560.58 614.561,560.757 614.895,560.693C615.211,560.662 615.575,560.442 615.825,560.747C615.813,560.48 615.805,560.214 615.782,559.951C615.684,559.14 615.746,558.321 615.742,557.508C615.561,557.512 615.38,557.524 615.201,557.509C614.926,557.5 614.748,557.262 614.568,557.088C614.496,557.015 614.595,556.945 614.667,556.963C615.026,556.989 615.385,556.978 615.744,556.967C615.743,556.815 615.743,556.668 615.745,556.52C615.476,556.564 615.132,556.672 614.918,556.447C614.75,556.332 614.906,556.099 615.062,556.066C615.286,556.008 615.521,556.033 615.753,556.01C615.729,555.124 615.756,554.238 615.76,553.349ZM615.759,551.164C615.49,552.074 615.063,552.926 614.604,553.754C615.063,553.269 615.473,552.736 615.733,552.119C615.787,551.803 615.749,551.48 615.759,551.164ZM617.095,550.189C617.036,550.551 617.302,550.83 617.392,551.158C617.574,551.638 617.715,552.139 617.991,552.576C618.737,553.81 619.322,555.168 620.369,556.189C620.784,556.705 621.278,557.152 621.798,557.559C621.811,557.589 621.833,557.646 621.846,557.674C621.876,557.514 621.906,557.358 621.928,557.199C621.716,557.193 621.439,557.213 621.322,556.999C621.229,556.756 621.519,556.623 621.709,556.597C621.367,556.279 621.039,555.946 620.653,555.682C620.203,555.294 619.866,554.794 619.447,554.373C618.891,553.86 618.535,553.176 618.201,552.504C617.993,551.974 617.666,551.508 617.409,551.004C617.266,550.747 617.215,550.453 617.095,550.189ZM616.493,548.461C616.472,548.551 616.469,548.644 616.487,548.742C616.566,549.24 616.532,549.745 616.543,550.248C616.564,550.65 616.477,551.072 616.672,551.449C616.52,551.96 616.587,552.498 616.579,553.027C616.586,554.04 616.591,555.056 616.599,556.07C616.683,556.168 616.846,556.148 616.966,556.189C617.379,556.23 617.787,556.388 618.207,556.315C618.598,556.258 618.991,556.202 619.388,556.222C618.692,554.953 617.722,553.826 617.27,552.433C617.021,551.706 616.69,550.996 616.612,550.226C616.557,549.858 616.479,549.459 616.657,549.115C616.602,548.894 616.605,548.66 616.493,548.461ZM615.609,548.246C615.265,548.756 615.057,549.338 614.855,549.918C614.272,551.424 613.548,552.879 612.665,554.232C612.529,554.457 612.402,554.685 612.258,554.906C611.811,555.522 611.244,556.037 610.76,556.623C610.975,556.623 611.232,556.693 611.394,556.506C611.768,556.18 612.091,555.804 612.473,555.49C612.894,555.054 613.193,554.521 613.548,554.036C614.42,552.583 615.24,551.057 615.604,549.387C615.695,549.01 615.815,548.626 615.775,548.234C615.733,548.237 615.65,548.242 615.609,548.246ZM611.802,547.094C610.742,547.068 609.702,547.312 608.646,547.347C607.82,547.433 606.991,547.351 606.165,547.419C605.262,547.464 604.362,547.576 603.458,547.592C603.021,547.599 602.602,547.734 602.171,547.785C601.848,547.843 601.639,548.125 601.563,548.429C601.361,549.175 600.999,549.861 600.65,550.545C600.245,551.375 599.762,552.162 599.229,552.916C598.522,554.03 597.651,555.056 596.584,555.84C596.345,556.087 596.074,556.297 595.819,556.53C596.069,556.492 596.39,556.59 596.521,556.306C596.754,556.316 596.987,556.332 597.223,556.328C597.23,556.367 597.246,556.446 597.255,556.485C597.486,556.531 597.739,556.414 597.981,556.459C598.393,556.459 598.76,556.689 599.172,556.678C599.438,556.717 599.786,556.638 599.969,556.889C600.575,556.994 601.192,556.978 601.804,556.982C602.81,556.982 603.814,556.984 604.819,556.904C605.7,556.916 606.559,556.665 607.436,556.626C607.787,556.55 608.143,556.504 608.489,556.627C608.827,556.535 609.189,556.533 609.503,556.365C609.842,556.225 610.155,556.025 610.511,555.928C610.89,555.836 611.084,555.468 611.337,555.208C611.753,554.658 612.193,554.116 612.501,553.494C612.977,552.566 613.44,551.635 613.894,550.695C614.226,550.113 614.492,549.496 614.772,548.888C615.006,548.246 615.344,547.646 615.572,547.002C615.12,546.943 614.667,547.045 614.216,547.024C613.409,546.984 612.607,547.119 611.802,547.094ZM615.636,546.213C615.846,546.246 615.905,545.981 616.089,545.945C616.213,545.932 616.299,546.036 616.389,546.107C616.418,546.411 616.583,546.671 616.716,546.939C617.205,547.795 617.362,548.787 617.766,549.681C617.97,550.256 618.295,550.775 618.607,551.299C619.048,551.989 619.291,552.801 619.831,553.429C620.258,553.875 620.697,554.312 621.083,554.797C621.632,555.253 622.185,555.709 622.681,556.221C622.864,556.465 622.705,556.748 622.52,556.931C622.488,557.408 622.469,557.887 622.49,558.365C622.51,558.818 622.426,559.285 622.582,559.723C622.672,559.976 622.699,560.287 622.93,560.465C623.152,560.64 623.362,560.91 623.684,560.845C624.136,560.763 624.596,560.902 625.04,560.765C625.314,560.692 625.583,560.84 625.859,560.84C626.002,560.846 626.279,560.849 626.249,561.066C626.156,561.263 625.896,561.275 625.707,561.311C625.296,561.331 624.926,561.588 624.508,561.513C623.958,561.44 623.404,561.488 622.854,561.506C622.481,561.478 622.074,561.414 621.803,561.137C621.707,561.031 621.587,561.158 621.499,561.203C621.324,561.283 621.163,561.097 620.989,561.119C620.585,561.161 620.177,561.144 619.771,561.142C619.561,561.126 619.295,561.119 619.173,560.918C619.064,560.743 619.23,560.538 619.403,560.507C619.6,560.426 619.795,560.556 619.995,560.521C620.252,560.459 620.519,560.5 620.78,560.494C620.803,560.17 620.755,559.839 620.846,559.524C620.936,559.189 620.934,558.84 621.002,558.502C620.895,558.307 620.765,558.132 620.628,557.961C620.446,557.958 620.262,557.945 620.097,557.875C620.023,557.847 619.997,557.801 620.021,557.73C620.124,557.674 620.239,557.65 620.338,557.588C620.396,557.5 620.31,557.419 620.271,557.353C620.165,557.211 620.07,557.06 619.932,556.951C619.48,556.904 619.021,556.98 618.573,556.889C618.126,556.791 617.67,556.713 617.211,556.751C617.01,556.767 616.807,556.75 616.607,556.724C616.612,556.763 616.618,556.84 616.622,556.877C617.121,556.896 617.621,556.912 618.121,556.947C618.229,556.976 618.34,557.09 618.248,557.204C618.075,557.316 617.861,557.304 617.668,557.335C617.326,557.373 616.982,557.389 616.642,557.425C616.597,557.865 616.605,558.31 616.634,558.754C616.962,559.361 616.758,560.073 616.809,560.732C617.029,560.821 617.235,560.952 617.354,561.167C617.694,560.807 618.245,560.548 618.733,560.747C618.903,560.797 618.895,560.994 618.829,561.126C619.108,561.129 619.43,561.074 619.666,561.26C619.805,561.414 619.666,561.658 619.473,561.672C619.018,561.736 618.505,561.867 618.098,561.588L618.098,561.355C618.158,561.315 618.433,561.308 618.373,561.234C618.055,561.383 617.674,561.461 617.348,561.287C617.098,561.436 616.803,561.506 616.533,561.627C616.185,561.633 615.838,561.639 615.49,561.668C615.095,561.693 614.744,561.373 614.351,561.491C613.984,561.576 613.607,561.551 613.236,561.581C613.019,561.605 612.824,561.505 612.634,561.418C612.399,561.4 612.161,561.396 611.957,561.269C611.474,561.261 611.014,561.491 610.528,561.484C610.309,561.476 610.127,561.326 609.907,561.316C609.85,561.466 609.726,561.592 609.557,561.603C609.129,561.7 608.659,561.545 608.266,561.779C607.72,561.754 607.17,561.639 606.617,561.68C606.193,561.715 605.768,561.684 605.342,561.729C604.471,561.845 603.585,561.832 602.707,561.812C602.064,561.693 601.407,561.674 600.755,561.666C600.545,561.671 600.4,561.513 600.241,561.408C599.881,561.308 599.502,561.289 599.147,561.167C599.164,561.293 599.196,561.467 599.061,561.55C598.747,561.73 598.3,561.834 598.005,561.564C597.883,561.465 597.787,561.212 597.594,561.336C597.296,561.478 596.969,561.606 596.632,561.556C596.428,561.561 596.273,561.33 596.065,561.424C595.705,561.55 595.257,561.498 595.045,561.148C594.926,560.814 595.328,560.596 595.607,560.568C595.695,560.316 595.658,560.041 595.719,559.787C595.826,559.19 595.944,558.592 595.914,557.984C595.894,557.748 595.915,557.512 595.979,557.285C595.614,557.306 595.256,557.429 594.89,557.387C594.652,557.374 594.437,557.166 594.427,556.931C594.469,556.665 594.71,556.508 594.893,556.337C595.453,555.869 595.997,555.381 596.557,554.913C597.142,554.422 597.625,553.827 598.168,553.292C598.593,552.818 599.026,552.349 599.386,551.822C599.93,551.172 600.17,550.343 600.502,549.579C600.685,549.213 600.818,548.824 601,548.459C601.063,548.088 601.258,547.767 601.385,547.422C601.472,547.187 601.698,546.999 601.956,547.014C602.517,547.027 603.055,546.832 603.614,546.828C603.92,546.824 604.226,546.799 604.531,546.787C605.5,546.706 606.473,546.578 607.446,546.638C608.402,546.629 609.36,546.568 610.31,546.447C611.084,546.34 611.868,546.36 612.649,546.337C613.265,546.251 613.889,546.266 614.51,546.254C614.883,546.209 615.26,546.211 615.636,546.213Z" style="fill:white;fill-rule:nonzero;"/>
    </g>
    <g transform="matrix(4.16667,0,0,4.16667,-2468.22,-2274.77)">
        <path d="M613.17,548.224C613.332,548.099 613.549,548.247 613.547,548.439C613.479,548.651 613.238,548.712 613.085,548.849C612.574,549.254 612.102,549.701 611.594,550.111C611.097,550.572 610.563,551.004 609.96,551.321C609.701,551.44 609.468,551.722 609.156,551.63C609.078,551.466 609.272,551.363 609.367,551.27C609.98,550.808 610.631,550.396 611.201,549.88C611.866,549.338 612.473,548.724 613.17,548.224Z" style="fill:white;fill-rule:nonzero;"/>
    </g>
    <g transform="matrix(4.16667,0,0,4.16667,-2468.22,-2274.77)">
        <path d="M610.149,548.667C610.345,548.402 610.701,548.275 611.021,548.337C611.004,548.632 610.693,548.754 610.45,548.83C610.334,548.881 610.115,548.827 610.149,548.667Z" style="fill:white;fill-rule:nonzero;"/>
    </g>
    <g transform="matrix(4.16667,0,0,4.16667,-2468.22,-2274.77)">
        <path d="M610.301,553.392C610.563,553 610.754,552.512 611.192,552.281C611.143,552.326 611.094,552.375 611.045,552.426C610.969,552.836 610.94,553.272 610.698,553.629C610.301,554.252 609.847,554.859 609.259,555.317C609.044,555.458 608.72,555.653 608.487,555.448C608.409,555.262 608.568,555.124 608.692,555.021C609.302,554.556 609.856,554.016 610.301,553.392Z" style="fill:white;fill-rule:nonzero;"/>
    </g>
    <g transform="matrix(4.16667,0,0,4.16667,-2468.22,-2274.77)">
        <path d="M607.908,553.713C608.12,553.547 608.381,553.351 608.664,553.468C608.699,553.697 608.519,553.873 608.385,554.039C607.948,554.499 607.57,555.031 607.027,555.379C606.822,555.512 606.531,555.59 606.314,555.439C606.277,555.326 606.379,555.246 606.436,555.169C606.629,554.953 606.849,554.762 607.07,554.574C607.379,554.316 607.592,553.963 607.908,553.713Z" style="fill:white;fill-rule:nonzero;"/>
    </g>
    <g transform="matrix(4.16667,0,0,4.16667,-2468.22,-2274.77)">
        <path d="M605.06,554.615C605.204,554.505 605.369,554.353 605.565,554.416C605.784,554.444 605.795,554.781 605.608,554.865C605.24,555.035 604.946,555.397 604.503,555.355C604.591,555.049 604.81,554.801 605.06,554.615Z" style="fill:white;fill-rule:nonzero;"/>
    </g>
    <g transform="matrix(4.16667,0,0,4.16667,-2468.22,-2274.77)">
        <path d="M599.487,554.836C599.803,554.689 600.117,554.484 600.481,554.52C600.504,554.65 600.511,554.829 600.37,554.904C599.885,555.179 599.36,555.381 598.849,555.605C598.697,555.667 598.461,555.746 598.354,555.573C598.279,555.448 598.422,555.343 598.512,555.287C598.826,555.113 599.172,555.008 599.487,554.836Z" style="fill:white;fill-rule:nonzero;"/>
    </g>
    <g transform="matrix(4.16667,0,0,4.16667,-2468.22,-2274.77)">
        <path d="M601.958,555.326C601.998,554.961 602.365,554.697 602.722,554.819C602.742,554.947 602.812,555.146 602.667,555.234C602.461,555.39 602.196,555.336 601.958,555.326Z" style="fill:white;fill-rule:nonzero;"/>
    </g>
    <g transform="matrix(4.16667,0,0,4.16667,-2468.22,-2274.77)">
        <path d="M597.732,557.913C597.712,557.749 597.929,557.698 598.038,557.778C598.319,557.929 598.547,558.16 598.767,558.39C598.907,558.549 599.082,558.732 599.043,558.969C599.048,559.099 598.904,559.161 598.819,559.238C598.611,558.975 598.416,558.701 598.17,558.474C598.011,558.299 597.814,558.137 597.732,557.913Z" style="fill:white;fill-rule:nonzero;"/>
    </g>
    <g transform="matrix(4.16667,0,0,4.16667,-2468.22,-2274.77)">
        <path d="M605.686,557.801C605.823,557.635 606.179,557.749 606.1,557.99C605.881,558.353 605.736,558.841 605.285,558.975C605.226,558.539 605.453,558.148 605.686,557.801Z" style="fill:white;fill-rule:nonzero;"/>
    </g>
    <g transform="matrix(4.16667,0,0,4.16667,-2468.22,-2274.77)">
        <path d="M599.655,558.203C599.869,557.994 600.196,558.093 600.399,558.265C600.781,558.59 601.15,558.955 601.628,559.142C602.072,559.386 602.613,559.35 603.089,559.226C603.249,559.203 603.424,559.409 603.284,559.547C602.867,560.064 602.086,560.045 601.542,559.76C601.013,559.485 600.541,559.113 600.091,558.728C599.912,558.582 599.761,558.407 599.655,558.203Z" style="fill:white;fill-rule:nonzero;"/>
    </g>
    <g transform="matrix(4.16667,0,0,4.16667,-2468.22,-2274.77)">
        <path d="M604.146,558.299C604.285,558.212 604.517,558.256 604.538,558.443C604.458,558.646 604.254,558.77 604.102,558.918C603.984,559.011 603.778,559.187 603.653,559.011C603.584,558.683 603.889,558.432 604.146,558.299Z" style="fill:white;fill-rule:nonzero;"/>
    </g>
    <g transform="matrix(4.16667,0,0,4.16667,-2468.22,-2274.77)">
        <path d="M619.791,558.385C619.896,558.267 620.1,558.356 620.092,558.513C620.111,558.887 620.087,559.262 620.099,559.638C620.09,559.869 620.124,560.119 620.02,560.338C619.956,560.373 619.905,560.507 619.82,560.465C619.578,560.14 619.664,559.714 619.646,559.338C619.657,559.017 619.593,558.66 619.791,558.385Z" style="fill:white;fill-rule:nonzero;"/>
    </g>
    <g transform="matrix(4.16667,0,0,4.16667,-2468.22,-2274.77)">
        <path d="M597.013,558.976C597.32,558.799 597.575,559.088 597.819,559.238C597.983,559.347 598.225,559.492 598.149,559.73C597.921,559.789 597.681,559.754 597.491,559.611C597.279,559.45 596.912,559.309 597.013,558.976Z" style="fill:white;fill-rule:nonzero;"/>
    </g>
    <g transform="matrix(4.16667,0,0,4.16667,-2468.22,-2274.77)">
        <path d="M617.955,559.795C617.905,559.589 617.904,559.222 618.216,559.31C618.226,559.559 618.36,559.826 618.249,560.066C618.074,560.149 617.991,559.922 617.955,559.795Z" style="fill:white;fill-rule:nonzero;"/>
    </g>
    <g transform="matrix(4.16667,0,0,4.16667,-2468.22,-2274.77)">
        <path d="M592.747,560.201C593.006,560.148 593.309,560.082 593.547,560.238C593.662,560.299 593.679,560.493 593.568,560.573C593.254,560.862 592.726,560.9 592.395,560.619C592.291,560.387 592.566,560.248 592.747,560.201Z" style="fill:white;fill-rule:nonzero;"/>
    </g>
    <g transform="matrix(4.16667,0,0,4.16667,-2468.22,-2274.77)">
        <path d="M593.729,560.527C594.073,560.458 594.443,560.333 594.786,560.49C595.006,560.547 595.02,560.902 594.817,560.994C594.557,561.076 594.254,561.183 593.997,561.035C593.781,560.965 593.682,560.738 593.729,560.527Z" style="fill:white;fill-rule:nonzero;"/>
    </g>
</svg>
